<svg width="376" height="476" viewBox="0 0 376 476" fill="none" xmlns="http://www.w3.org/2000/svg">
    <path d="M212.559 395.881L-391.459 396.144M268.923 394C268.923 424.333 244.333 448.923 214 448.923C183.667 448.923 159.077 424.333 159.077 394C159.077 363.667 183.667 339.077 214 339.077C244.333 339.077 268.923 363.667 268.923 394ZM323.846 394C323.846 454.666 274.666 503.846 214 503.846C153.334 503.846 104.154 454.666 104.154 394C104.154 333.334 153.334 284.154 214 284.154C274.666 284.154 323.846 333.334 323.846 394ZM378.769 394C378.769 485 305 558.769 214 558.769C123 558.769 49.2308 485 49.2308 394C49.2308 303 123 229.231 214 229.231C305 229.231 378.769 303 378.769 394ZM433.692 394C433.692 515.333 335.333 613.692 214 613.692C92.6673 613.692 -5.69232 515.333 -5.69232 394C-5.69232 272.667 92.6673 174.308 214 174.308C335.333 174.308 433.692 272.667 433.692 394ZM488.615 394C488.615 545.666 365.666 668.615 214 668.615C62.3341 668.615 -60.6154 545.666 -60.6154 394C-60.6154 242.334 62.3341 119.385 214 119.385C365.666 119.385 488.615 242.334 488.615 394ZM543.538 394C543.538 575.999 395.999 723.538 214 723.538C32.0009 723.538 -115.538 575.999 -115.538 394C-115.538 212.001 32.0009 64.4615 214 64.4615C395.999 64.4615 543.538 212.001 543.538 394ZM598.462 394C598.462 606.332 426.332 778.462 214 778.462C1.66776 778.462 -170.462 606.332 -170.462 394C-170.462 181.668 1.66776 9.53845 214 9.53845C426.332 9.53845 598.462 181.668 598.462 394ZM653.385 394C653.385 636.665 456.665 833.385 214 833.385C-28.6654 833.385 -225.385 636.665 -225.385 394C-225.385 151.335 -28.6654 -45.3846 214 -45.3846C456.665 -45.3846 653.385 151.335 653.385 394ZM708.308 394C708.308 666.999 486.999 888.308 214 888.308C-58.9986 888.308 -280.308 666.999 -280.308 394C-280.308 121.001 -58.9986 -100.308 214 -100.308C486.999 -100.308 708.308 121.001 708.308 394ZM763.231 394C763.231 697.332 517.332 943.231 214 943.231C-89.3318 943.231 -335.231 697.332 -335.231 394C-335.231 90.6682 -89.3318 -155.231 214 -155.231C517.332 -155.231 763.231 90.6682 763.231 394ZM818.154 394C818.154 727.665 547.665 998.154 214 998.154C-119.665 998.154 -390.154 727.665 -390.154 394C-390.154 60.335 -119.665 -210.154 214 -210.154C547.665 -210.154 818.154 60.335 818.154 394ZM873.077 394C873.077 757.998 577.998 1053.08 214 1053.08C-149.998 1053.08 -445.077 757.998 -445.077 394C-445.077 30.0019 -149.998 -265.077 214 -265.077C577.998 -265.077 873.077 30.0019 873.077 394ZM928 394C928 788.331 608.331 1108 214 1108C-180.331 1108 -500 788.331 -500 394C-500 -0.331299 -180.331 -320 214 -320C608.331 -320 928 -0.331299 928 394Z" stroke="url(#paint0_radial_256_2417)" stroke-opacity="0.5"/>
    <defs>
        <radialGradient id="paint0_radial_256_2417" cx="0" cy="0" r="1" gradientUnits="userSpaceOnUse" gradientTransform="translate(214 394) rotate(90) scale(714)">
            <stop stop-color="#E4F9F8"/>
            <stop offset="1" stop-color="#97A9A9" stop-opacity="0"/>
        </radialGradient>
    </defs>
</svg>
