<svg width="144" height="22" viewBox="0 0 144 22" fill="none" xmlns="http://www.w3.org/2000/svg">
<path fill-rule="evenodd" clip-rule="evenodd" d="M6.49794 10.6808C3.13159 16.5553 0.292345 21.5052 0.18862 21.6808L0 22L1.92794 21.9998L3.85588 21.9997L8.73826 13.4554C11.4236 8.756 13.6431 4.91199 13.6705 4.91327C13.6979 4.91445 15.9138 8.75944 18.5948 13.4577L23.4693 22H25.3537C26.411 22 27.2235 21.9617 27.2049 21.9127C27.1867 21.8648 24.3693 16.9157 20.9442 10.9149L14.7167 0.00432205L13.6677 0.00216103L12.6188 0L6.49794 10.6808ZM31.4064 11V22H33.0505H34.6946V13.775V5.54999L38.7056 9.50272L42.7165 13.4554H43.3633H44.01L48.0708 9.45362L52.1316 5.45178V13.7259V22H53.7259H55.3201V11V0H54.1887H53.0573L48.2461 4.81613C45.6 7.46497 43.4038 9.6195 43.3658 9.60408C43.3277 9.58856 41.1482 7.42137 38.5222 4.78814L33.748 0.000293732L32.5772 0.000197819L31.4064 0V11ZM62.6935 1.56927V3.13844L70.9885 3.16525L79.2836 3.19196L79.8103 3.46549C80.5624 3.85609 81.0792 4.35345 81.398 4.99311C81.7782 5.75634 81.79 6.87696 81.4253 7.61161C81.1152 8.23635 80.5124 8.83182 79.8789 9.13904L79.3832 9.37946L71.0384 9.40569L62.6935 9.43181V10.9994V12.567L70.9885 12.5938L79.2836 12.6205L79.8458 12.8926C80.503 13.2108 81.1564 13.8698 81.4576 14.5184C81.7605 15.1706 81.7543 16.2704 81.4439 16.942C81.1353 17.61 80.5 18.2337 79.7818 18.5739L79.184 18.8569L70.9387 18.857L62.6935 18.8571V20.4286V22H71.0473C79.0355 22 79.4349 21.9916 80.1695 21.8063C81.7289 21.4132 83.008 20.5216 83.9016 19.2045C85.5236 16.8143 85.2587 13.5765 83.2632 11.3993L82.8988 11.0018L83.4101 10.4504C83.9748 9.84136 84.62 8.61064 84.8212 7.75893C84.9999 7.00248 84.9732 5.48537 84.7676 4.71429C84.3213 3.04032 82.9753 1.42705 81.4053 0.684554C79.9679 0.00471443 80.0071 0.00726822 70.8391 0.00343786L62.6935 0V1.56927ZM91.6888 6.33482V12.6696H102.799H113.909V11.0982V9.52679H104.443H94.977V6.33482V3.14286H104.443H113.909V1.57143V0H102.799H91.6888V6.33482ZM120.784 1.57143V3.14286L128.78 3.14521C133.693 3.14669 136.941 3.18519 137.204 3.2449C138.257 3.48435 139.159 4.15623 139.55 4.99361C139.719 5.35366 139.764 5.63888 139.765 6.33482C139.765 7.10394 139.729 7.29123 139.487 7.7768C139.16 8.43347 138.689 8.86963 137.927 9.22222L137.374 9.47768L129.079 9.50439L120.784 9.5312V11.1004V12.6696H125.393H130.001L134.733 17.3348L139.466 22H141.733C142.98 22 144 21.967 144 21.9267C144 21.8865 141.904 19.7871 139.342 17.2616L134.684 12.6696L135.68 12.6684C138.173 12.6651 140.38 11.7363 141.744 10.1161C142.197 9.57923 142.736 8.49141 142.913 7.75893C143.094 7.01358 143.071 5.48969 142.869 4.72646C142.339 2.7332 140.717 1.10472 138.602 0.443439C137.282 0.0306443 136.583 0 128.484 0H120.784V1.57143ZM91.6888 20.4286V22H102.799H113.909V20.4286V18.8571H102.799H91.6888V20.4286Z" fill="#C8CFD3"/>
</svg>
