<svg width="24" height="24" viewBox="0 0 24 24" fill="none" xmlns="http://www.w3.org/2000/svg">
<path d="M7.9201 5.83316C7.9201 6.84559 7.04256 7.66632 5.96005 7.66632C4.87754 7.66632 4 6.84559 4 5.83316C4 4.82073 4.87754 4 5.96005 4C7.04256 4 7.9201 4.82073 7.9201 5.83316Z" fill="#1B2022"/>
<path d="M4.26804 9.01377H7.61856V19.1667H4.26804V9.01377Z" fill="#1B2022"/>
<path d="M13.0129 9.01377H9.66237V19.1667H13.0129C13.0129 19.1667 13.0129 15.9704 13.0129 13.9719C13.0129 12.7724 13.4225 11.5677 15.0567 11.5677C16.9036 11.5677 16.8925 13.1374 16.8839 14.3535C16.8726 15.9431 16.8995 17.5653 16.8995 19.1667H20.25V13.8082C20.2216 10.3867 19.3301 8.81009 16.3969 8.81009C14.655 8.81009 13.5753 9.6009 13.0129 10.3164V9.01377Z" fill="#1B2022"/>
</svg>
