<svg width="607" height="133" viewBox="0 0 607 133" fill="none" xmlns="http://www.w3.org/2000/svg">
<path fill-rule="evenodd" clip-rule="evenodd" d="M25.8461 48.9069C23.9573 50.9123 17.6356 53.169 12.2065 53.7759L10 54.0226L10.2106 58.007C10.4643 62.817 11.5106 66.9468 13.4953 70.9757C16.0065 76.0734 20.9458 81.5128 25.4844 84.1791L26.8129 84.9594L29.356 83.2578C30.7546 82.3223 32.9259 80.5179 34.1813 79.2487L36.464 76.9409L35.029 76.8213C33.8924 76.7267 33.4311 76.8882 32.8101 77.5979C31.8384 78.7087 27.3009 82.3601 26.892 82.3601C26.7271 82.3601 26.5922 75.2101 26.5922 66.4714V50.5831L28.1336 51.5537C28.9816 52.0874 30.4151 52.8401 31.319 53.2269L32.963 53.9295V52.8505C32.963 51.9651 32.7445 51.699 31.7451 51.3683C31.075 51.1463 29.6577 50.3069 28.5945 49.5026L26.6623 48.0405L25.8461 48.9069ZM34.462 51.2636C34.462 52.1591 34.6101 52.3064 35.4926 52.2914C36.3332 52.2776 36.5449 52.0847 36.6416 51.2464C36.7484 50.3229 36.6438 50.2187 35.611 50.2187C34.6029 50.2187 34.462 50.3465 34.462 51.2636ZM39.7086 53.5386C39.7086 54.3649 39.9087 54.6546 40.566 54.7798C41.899 55.0339 42.3319 54.7327 42.3319 53.5513C42.3319 52.5545 42.2194 52.4611 41.0202 52.4611C39.8244 52.4611 39.7086 52.5564 39.7086 53.5386ZM31.0893 56.0116C31.0893 57.2887 31.1249 57.3197 32.5883 57.3197C34.0517 57.3197 34.0873 57.2887 34.0873 56.0116C34.0873 54.7345 34.0517 54.7035 32.5883 54.7035C31.1249 54.7035 31.0893 54.7345 31.0893 56.0116ZM35.2067 55.0148C35.0032 55.0836 34.8368 56.0505 34.8368 57.1638V59.1884H37.2727H39.7086V57.1676V55.1464L37.6426 55.0186C36.5059 54.9479 35.4098 54.9464 35.2067 55.0148ZM48.3279 56.0116C48.3279 56.6967 48.5277 56.9459 49.0774 56.9459C49.6272 56.9459 49.8269 56.6967 49.8269 56.0116C49.8269 55.3265 49.6272 55.0773 49.0774 55.0773C48.5277 55.0773 48.3279 55.3265 48.3279 56.0116ZM44.5804 56.9459C44.5804 57.8164 45.8826 57.9961 46.2008 57.1694C46.4534 56.5128 46.1517 56.1985 45.2673 56.1985C44.8303 56.1985 44.5804 56.4702 44.5804 56.9459ZM93.6731 58.5582C92.9517 58.7862 91.5703 59.7602 90.6035 60.7226C86.5254 64.7817 86.7994 71.6966 91.1907 75.542C92.8805 77.0216 94.8026 77.6256 97.1815 77.4241C99.8411 77.1988 101.737 76.1972 103.254 74.2167C109.025 66.6788 102.374 55.8079 93.6731 58.5582ZM29.6839 58.7421C28.5083 58.858 28.466 58.9204 28.466 60.5405V62.2194L30.2461 62.1054L32.0261 61.9914L32.1389 60.4516C32.2641 58.747 31.9381 58.5201 29.6839 58.7421ZM135.645 58.5885C135.645 58.6943 134.549 62.8327 133.21 67.7843C131.87 72.736 130.774 76.8747 130.774 76.9813C130.774 77.0878 131.319 77.1225 131.986 77.0579L133.198 76.9409L135.072 70.1333C136.103 66.3892 137.047 63.446 137.171 63.5929C137.361 63.819 138.998 69.6721 140.511 75.5394C140.916 77.1072 140.943 77.1278 142.578 77.1278C144.214 77.1278 144.241 77.1068 144.646 75.5394C144.872 74.6656 145.21 73.4464 145.396 72.8298C145.583 72.2131 146.171 70.0267 146.703 67.9712C147.235 65.9156 147.767 63.9815 147.885 63.6732C148.004 63.3649 148.979 66.224 150.052 70.0267L152.003 76.9409L153.193 77.0579C153.848 77.1225 154.383 77.0837 154.383 76.9715C154.383 76.8598 153.898 74.9571 153.305 72.7434C152.712 70.5298 151.692 66.7005 151.038 64.2338C150.383 61.7672 149.758 59.4455 149.647 59.0744C149.493 58.5538 149.136 58.4256 148.084 58.5138L146.72 58.6278L145.111 64.4207C144.227 67.6068 143.326 70.8613 143.11 71.6529C142.894 72.4445 142.608 72.9838 142.475 72.8518C142.343 72.7195 141.384 69.465 140.345 65.6196L138.456 58.6278L137.051 58.5119C136.278 58.448 135.645 58.4824 135.645 58.5885ZM182.115 59.8424L182.115 61.0571H185.488H188.86V69.0924V77.1278H189.985H191.109V69.0924V61.0571H194.482H197.855V59.9504V58.8434L189.984 58.7358L182.114 58.6278L182.115 59.8424ZM58.2218 59.4403C55.9631 60.5641 55.1203 63.6796 56.4623 65.9455C57.5038 67.7036 59.2437 68.2971 64.008 68.5198C67.9601 68.7048 68.3105 68.7837 69.0087 69.6444C69.9463 70.8008 69.7102 72.8993 68.5346 73.8576C67.8529 74.4129 66.9198 74.5116 62.3396 74.5116H56.9472V75.8197V77.1278L61.7253 77.1188C67.748 77.1076 69.1605 76.7903 70.7194 75.0976C71.8163 73.9065 71.9374 73.5477 71.9374 71.4899C71.9374 69.4034 71.8298 69.0973 70.7018 67.9723C69.1361 66.4108 67.347 65.9205 63.2075 65.9179C60.2087 65.916 59.828 65.8327 58.9915 64.9981C57.8845 63.8945 57.8414 63.292 58.7869 62.1263C59.4731 61.2805 59.7369 61.2391 65.1577 61.1236L70.8131 61.0032V59.9089V58.8146L65.0981 58.8385C60.7308 58.8569 59.1092 58.9985 58.2218 59.4403ZM73.8696 65.8222C73.9843 72.058 74.0825 72.9725 74.7611 74.1248C76.002 76.2308 77.4137 76.8082 81.8792 77.0354L85.8033 77.235V75.8735V74.5116H82.5931C76.7368 74.5116 76.4535 74.0945 76.4427 65.4485L76.4344 58.8146H75.0876H73.7411L73.8696 65.8222ZM107.548 59.0949C107.553 59.2493 108.626 63.3275 109.934 68.1581L112.311 76.9409H113.732H115.153L117.061 69.9625C118.11 66.1242 119.08 62.8742 119.216 62.74C119.352 62.6054 119.546 62.8028 119.647 63.178C119.748 63.5532 120.638 66.8451 121.625 70.4939L123.419 77.1278H124.76H126.102L128.565 67.9712L131.029 58.8146H129.791C128.652 58.8146 128.521 58.9398 128.132 60.403C127.178 63.9943 125.106 71.3733 124.906 71.8954C124.707 72.4131 123.883 69.7857 121.773 61.898L120.948 58.8146H119.162C117.447 58.8146 117.366 58.8625 117.134 60.0293C116.698 62.2126 113.818 72.3017 113.671 72.1559C113.447 71.9328 110.162 59.9396 110.162 59.3457C110.162 58.988 109.734 58.8146 108.851 58.8146C108.129 58.8146 107.543 58.9406 107.548 59.0949ZM158.131 67.9712V77.1278H159.255H160.379V67.9712V58.8146H159.255H158.131V67.9712ZM166.449 59.4399C164.362 60.4658 163.492 63.3686 164.566 65.7205C165.432 67.6173 167.19 68.2739 172.059 68.5202C177.217 68.7815 177.817 69.1021 177.752 71.5617C177.684 74.1416 177.276 74.3079 170.673 74.4443L164.876 74.5643V75.8851V77.2062L170.795 77.0736C175.719 76.9633 176.888 76.8273 177.746 76.2667C179.387 75.1937 180.238 73.4666 180.24 71.204C180.241 69.4396 180.096 69.0595 179.006 67.9723C177.44 66.4108 175.651 65.9205 171.511 65.9179C168.512 65.916 168.132 65.8327 167.295 64.9981C166.188 63.8945 166.145 63.292 167.091 62.1263C167.777 61.2805 168.041 61.2391 173.461 61.1236L179.117 61.0032V59.9089V58.8146L173.402 58.8232C168.893 58.83 167.426 58.96 166.449 59.4399ZM40.0028 60.9636C39.9282 61.3232 39.9353 61.9963 40.0189 62.4586C40.1489 63.1799 40.4049 63.2995 41.8136 63.2995H43.4561V61.8045V60.3096H41.7971C40.5188 60.3096 40.1073 60.4594 40.0028 60.9636ZM100.044 61.7791C102.593 63.7379 103.662 67.5522 102.507 70.569C100.666 75.3749 95.5285 76.5735 92.1107 72.9942C86.4658 67.0817 93.6768 56.8876 100.044 61.7791ZM36.5753 62.4376C36.1533 62.8585 36.3186 63.2995 36.8979 63.2995C37.2071 63.2995 37.4601 63.1414 37.4601 62.9478C37.4601 62.4765 36.8747 62.139 36.5753 62.4376ZM46.3841 62.5752C46.311 62.7934 46.3147 63.6343 46.3919 64.4439L46.5328 65.9156H48.3673H50.2017V64.047V62.1783H48.359C47.3457 62.1783 46.4568 62.3569 46.3841 62.5752ZM32.963 66.6631V68.9055H34.2747C35.5552 68.9055 35.5863 68.941 35.5863 70.4005C35.5863 71.7459 35.4926 71.8954 34.6494 71.8954C33.8999 71.8954 33.7125 72.0823 33.7125 72.8298C33.7125 73.6187 33.8875 73.7641 34.8368 73.7641H35.961V71.3348V68.9055H37.0853H38.2096V66.6631V64.4207H35.5863H32.963V66.6631ZM40.0833 66.6631C40.0833 67.2114 40.3333 67.4106 41.0202 67.4106C41.7071 67.4106 41.9571 67.2114 41.9571 66.6631C41.9571 66.1148 41.7071 65.9156 41.0202 65.9156C40.3333 65.9156 40.0833 66.1148 40.0833 66.6631ZM43.8998 67.2865C43.9943 68.0837 44.2251 68.2926 45.0488 68.3266C45.9366 68.3636 46.0794 68.2253 46.0794 67.3295C46.0794 66.4179 45.9374 66.2894 44.9304 66.2894C43.9054 66.2894 43.7938 66.3974 43.8998 67.2865ZM31.0893 70.2136C31.0893 70.522 31.3422 70.7742 31.6514 70.7742C31.9606 70.7742 32.2135 70.522 32.2135 70.2136C32.2135 69.9053 31.9606 69.653 31.6514 69.653C31.3422 69.653 31.0893 69.9053 31.0893 70.2136ZM43.1751 70.297C42.1756 70.4207 41.9571 70.6113 41.9571 71.3584C41.9571 72.15 42.1287 72.2692 43.2687 72.2692C44.4762 72.2692 44.5804 72.1802 44.5804 71.148C44.5804 70.5313 44.5384 70.0537 44.4867 70.0865C44.435 70.1194 43.8447 70.2144 43.1751 70.297ZM38.2096 73.5773C38.2096 74.8782 38.2186 74.8853 39.896 74.8853C41.5734 74.8853 41.5823 74.8782 41.5823 73.5773C41.5823 72.2763 41.5734 72.2692 39.896 72.2692C38.2186 72.2692 38.2096 72.2763 38.2096 73.5773Z" fill="#1B2022"/>
<mask id="path-3-outside-1_112_979" maskUnits="userSpaceOnUse" x="236.854" y="49.3843" width="137" height="34" fill="black">
<rect fill="white" x="236.854" y="49.3843" width="137" height="34"/>
<path fill-rule="evenodd" clip-rule="evenodd" d="M247.418 51.8898C244.741 52.7113 242.471 53.4589 242.373 53.5511C242.009 53.8947 242.266 54.6311 242.749 54.6311C242.85 54.6311 245.098 53.9702 247.746 53.1624L252.561 51.6936L257.537 53.2138C260.313 54.062 262.595 54.7079 262.699 54.6748C263.172 54.5246 263.312 53.7444 262.904 53.5307C262.586 53.3638 252.669 50.3722 252.475 50.3843C252.37 50.3909 250.094 51.0683 247.418 51.8898ZM238.441 54.715C238.137 54.9608 237.966 56.054 237.876 58.332C237.624 64.671 239.619 70.8319 243.47 75.6053C244.837 77.2995 247.033 79.3023 248.92 80.5756C250.083 81.3601 252.317 82.6159 252.551 82.6159C253.026 82.6159 256.297 80.5983 257.912 79.3081C259.016 78.426 260.938 76.5099 261.764 75.4676C264.111 72.5055 265.92 68.6367 266.67 64.9733C267.15 62.6335 267.27 61.214 267.206 58.6362C267.143 56.0909 266.985 54.9188 266.672 54.6815C266.453 54.5158 266.14 54.491 265.932 54.6226C265.854 54.672 264.554 57.2745 263.042 60.4059L260.295 66.0994L252.745 66.0927C248.592 66.0891 245.164 66.0525 245.127 66.0114C245.091 65.9702 243.772 63.4145 242.197 60.3319C240.622 57.2493 239.25 54.6827 239.149 54.6285C238.88 54.4843 238.698 54.5065 238.441 54.715ZM245.094 68.8249C248.301 75.0847 250.907 80.2249 250.884 80.2474C250.812 80.3198 249.072 79.1272 248.026 78.2888C244.024 75.0795 241.229 70.7276 239.967 65.7412C239.4 63.498 239.235 62.2143 239.18 59.5994C239.153 58.3447 239.161 57.3462 239.197 57.3806C239.233 57.4151 241.886 62.565 245.094 68.8249ZM265.934 60.6691C265.588 66.0589 263.957 70.5134 260.869 74.5044C259.965 75.6731 257.978 77.6323 256.745 78.5709C255.668 79.3906 254.262 80.3243 254.262 80.2197C254.262 80.185 255.922 77.0484 257.952 73.2494C260.299 68.8571 262.412 64.7376 263.757 61.9354L265.871 57.5286L265.958 58.2346C266.011 58.663 266.002 59.6195 265.934 60.6691ZM276.619 60.7036C276.128 60.9301 275.819 61.2511 275.61 61.7522C275.476 62.0718 275.453 62.7811 275.455 66.5163C275.457 70.5661 275.472 70.9362 275.645 71.3104C275.871 71.8013 276.192 72.1102 276.693 72.3195C277.016 72.4543 277.802 72.4765 282.243 72.4765H287.418V71.8202V71.1637L282.288 71.1357L277.159 71.1077L276.965 70.8683C276.781 70.6413 276.771 70.4137 276.771 66.4942C276.771 62.5747 276.781 62.3471 276.965 62.1202L277.159 61.8808L282.288 61.8527L287.418 61.8247V61.1683V60.512L282.221 60.5142C277.386 60.5162 276.996 60.5294 276.619 60.7036ZM295.123 66.4942V72.4765H300.548H305.973V71.8174V71.1584H301.207H296.442V69.1812V67.204H300.295H304.148V66.4942V65.7845H300.295H296.442V63.8073V61.8301H301.207H305.973V61.171V60.512H300.548H295.123V66.4942ZM313.746 60.5796C313.709 60.6167 313.679 63.3087 313.679 66.5619V72.4765H314.388H315.098V70.2458V68.0151L317.608 68.0207L320.117 68.0263L321.972 70.2514L323.827 72.4765H324.684C325.156 72.4765 325.542 72.4562 325.542 72.4314C325.542 72.4066 324.721 71.4142 323.718 70.226L321.895 68.0658L323.152 68.0151C324.368 67.9661 324.42 67.9546 324.791 67.6544C325.606 66.9939 325.589 67.0621 325.623 64.4145C325.651 62.2082 325.639 62.0176 325.45 61.6462C325.195 61.1465 324.735 60.7537 324.246 60.6178C323.828 60.5017 313.86 60.4654 313.746 60.5796ZM332.842 61.171V61.8301H335.478H338.115V67.1533V72.4765H338.773H339.431L339.457 67.1786L339.483 61.8808L342.094 61.8537L344.705 61.8266V61.1693V60.512H338.774H332.842V61.171ZM352.006 66.4942V72.4765H352.665H353.324V66.4942V60.512H352.665H352.006V66.4942ZM361.638 66.4942V72.4765H362.297H362.956V69.8402V67.204L364.908 67.2099L366.86 67.2158L369.04 69.8395L371.22 72.4633L372.116 72.4699L373.013 72.4765L372.607 71.9949C369.376 68.1618 368.033 66.5311 368.054 66.4659C368.067 66.4225 369.162 65.0923 370.486 63.51C371.81 61.9276 372.893 60.6058 372.893 60.5725C372.893 60.5392 372.516 60.5149 372.056 60.5186L371.22 60.5252L369.04 63.1489L366.86 65.7726L364.908 65.7786L362.956 65.7845V63.1482V60.512H362.297H361.638V66.4942ZM324.167 62.1569C324.296 62.3414 324.325 62.7274 324.325 64.2907C324.325 66.1818 324.323 66.2015 324.076 66.4481L323.827 66.697H319.76C315.72 66.697 315.389 66.6721 315.176 66.3523C315.135 66.2909 315.101 65.3546 315.1 64.2716C315.098 62.58 315.122 62.2762 315.266 62.1169C315.424 61.9428 315.696 61.9315 319.722 61.9315H324.009L324.167 62.1569ZM259.488 67.5842C259.245 68.2192 252.596 80.4833 252.531 80.417C252.455 80.3402 247.776 71.2574 246.442 68.5982L245.844 67.4068H252.7C259.188 67.4068 259.552 67.4163 259.488 67.5842Z"/>
</mask>
<path fill-rule="evenodd" clip-rule="evenodd" d="M247.418 51.8898C244.741 52.7113 242.471 53.4589 242.373 53.5511C242.009 53.8947 242.266 54.6311 242.749 54.6311C242.85 54.6311 245.098 53.9702 247.746 53.1624L252.561 51.6936L257.537 53.2138C260.313 54.062 262.595 54.7079 262.699 54.6748C263.172 54.5246 263.312 53.7444 262.904 53.5307C262.586 53.3638 252.669 50.3722 252.475 50.3843C252.37 50.3909 250.094 51.0683 247.418 51.8898ZM238.441 54.715C238.137 54.9608 237.966 56.054 237.876 58.332C237.624 64.671 239.619 70.8319 243.47 75.6053C244.837 77.2995 247.033 79.3023 248.92 80.5756C250.083 81.3601 252.317 82.6159 252.551 82.6159C253.026 82.6159 256.297 80.5983 257.912 79.3081C259.016 78.426 260.938 76.5099 261.764 75.4676C264.111 72.5055 265.92 68.6367 266.67 64.9733C267.15 62.6335 267.27 61.214 267.206 58.6362C267.143 56.0909 266.985 54.9188 266.672 54.6815C266.453 54.5158 266.14 54.491 265.932 54.6226C265.854 54.672 264.554 57.2745 263.042 60.4059L260.295 66.0994L252.745 66.0927C248.592 66.0891 245.164 66.0525 245.127 66.0114C245.091 65.9702 243.772 63.4145 242.197 60.3319C240.622 57.2493 239.25 54.6827 239.149 54.6285C238.88 54.4843 238.698 54.5065 238.441 54.715ZM245.094 68.8249C248.301 75.0847 250.907 80.2249 250.884 80.2474C250.812 80.3198 249.072 79.1272 248.026 78.2888C244.024 75.0795 241.229 70.7276 239.967 65.7412C239.4 63.498 239.235 62.2143 239.18 59.5994C239.153 58.3447 239.161 57.3462 239.197 57.3806C239.233 57.4151 241.886 62.565 245.094 68.8249ZM265.934 60.6691C265.588 66.0589 263.957 70.5134 260.869 74.5044C259.965 75.6731 257.978 77.6323 256.745 78.5709C255.668 79.3906 254.262 80.3243 254.262 80.2197C254.262 80.185 255.922 77.0484 257.952 73.2494C260.299 68.8571 262.412 64.7376 263.757 61.9354L265.871 57.5286L265.958 58.2346C266.011 58.663 266.002 59.6195 265.934 60.6691ZM276.619 60.7036C276.128 60.9301 275.819 61.2511 275.61 61.7522C275.476 62.0718 275.453 62.7811 275.455 66.5163C275.457 70.5661 275.472 70.9362 275.645 71.3104C275.871 71.8013 276.192 72.1102 276.693 72.3195C277.016 72.4543 277.802 72.4765 282.243 72.4765H287.418V71.8202V71.1637L282.288 71.1357L277.159 71.1077L276.965 70.8683C276.781 70.6413 276.771 70.4137 276.771 66.4942C276.771 62.5747 276.781 62.3471 276.965 62.1202L277.159 61.8808L282.288 61.8527L287.418 61.8247V61.1683V60.512L282.221 60.5142C277.386 60.5162 276.996 60.5294 276.619 60.7036ZM295.123 66.4942V72.4765H300.548H305.973V71.8174V71.1584H301.207H296.442V69.1812V67.204H300.295H304.148V66.4942V65.7845H300.295H296.442V63.8073V61.8301H301.207H305.973V61.171V60.512H300.548H295.123V66.4942ZM313.746 60.5796C313.709 60.6167 313.679 63.3087 313.679 66.5619V72.4765H314.388H315.098V70.2458V68.0151L317.608 68.0207L320.117 68.0263L321.972 70.2514L323.827 72.4765H324.684C325.156 72.4765 325.542 72.4562 325.542 72.4314C325.542 72.4066 324.721 71.4142 323.718 70.226L321.895 68.0658L323.152 68.0151C324.368 67.9661 324.42 67.9546 324.791 67.6544C325.606 66.9939 325.589 67.0621 325.623 64.4145C325.651 62.2082 325.639 62.0176 325.45 61.6462C325.195 61.1465 324.735 60.7537 324.246 60.6178C323.828 60.5017 313.86 60.4654 313.746 60.5796ZM332.842 61.171V61.8301H335.478H338.115V67.1533V72.4765H338.773H339.431L339.457 67.1786L339.483 61.8808L342.094 61.8537L344.705 61.8266V61.1693V60.512H338.774H332.842V61.171ZM352.006 66.4942V72.4765H352.665H353.324V66.4942V60.512H352.665H352.006V66.4942ZM361.638 66.4942V72.4765H362.297H362.956V69.8402V67.204L364.908 67.2099L366.86 67.2158L369.04 69.8395L371.22 72.4633L372.116 72.4699L373.013 72.4765L372.607 71.9949C369.376 68.1618 368.033 66.5311 368.054 66.4659C368.067 66.4225 369.162 65.0923 370.486 63.51C371.81 61.9276 372.893 60.6058 372.893 60.5725C372.893 60.5392 372.516 60.5149 372.056 60.5186L371.22 60.5252L369.04 63.1489L366.86 65.7726L364.908 65.7786L362.956 65.7845V63.1482V60.512H362.297H361.638V66.4942ZM324.167 62.1569C324.296 62.3414 324.325 62.7274 324.325 64.2907C324.325 66.1818 324.323 66.2015 324.076 66.4481L323.827 66.697H319.76C315.72 66.697 315.389 66.6721 315.176 66.3523C315.135 66.2909 315.101 65.3546 315.1 64.2716C315.098 62.58 315.122 62.2762 315.266 62.1169C315.424 61.9428 315.696 61.9315 319.722 61.9315H324.009L324.167 62.1569ZM259.488 67.5842C259.245 68.2192 252.596 80.4833 252.531 80.417C252.455 80.3402 247.776 71.2574 246.442 68.5982L245.844 67.4068H252.7C259.188 67.4068 259.552 67.4163 259.488 67.5842Z" fill="#1B2022"/>
<path fill-rule="evenodd" clip-rule="evenodd" d="M247.418 51.8898C244.741 52.7113 242.471 53.4589 242.373 53.5511C242.009 53.8947 242.266 54.6311 242.749 54.6311C242.85 54.6311 245.098 53.9702 247.746 53.1624L252.561 51.6936L257.537 53.2138C260.313 54.062 262.595 54.7079 262.699 54.6748C263.172 54.5246 263.312 53.7444 262.904 53.5307C262.586 53.3638 252.669 50.3722 252.475 50.3843C252.37 50.3909 250.094 51.0683 247.418 51.8898ZM238.441 54.715C238.137 54.9608 237.966 56.054 237.876 58.332C237.624 64.671 239.619 70.8319 243.47 75.6053C244.837 77.2995 247.033 79.3023 248.92 80.5756C250.083 81.3601 252.317 82.6159 252.551 82.6159C253.026 82.6159 256.297 80.5983 257.912 79.3081C259.016 78.426 260.938 76.5099 261.764 75.4676C264.111 72.5055 265.92 68.6367 266.67 64.9733C267.15 62.6335 267.27 61.214 267.206 58.6362C267.143 56.0909 266.985 54.9188 266.672 54.6815C266.453 54.5158 266.14 54.491 265.932 54.6226C265.854 54.672 264.554 57.2745 263.042 60.4059L260.295 66.0994L252.745 66.0927C248.592 66.0891 245.164 66.0525 245.127 66.0114C245.091 65.9702 243.772 63.4145 242.197 60.3319C240.622 57.2493 239.25 54.6827 239.149 54.6285C238.88 54.4843 238.698 54.5065 238.441 54.715ZM245.094 68.8249C248.301 75.0847 250.907 80.2249 250.884 80.2474C250.812 80.3198 249.072 79.1272 248.026 78.2888C244.024 75.0795 241.229 70.7276 239.967 65.7412C239.4 63.498 239.235 62.2143 239.18 59.5994C239.153 58.3447 239.161 57.3462 239.197 57.3806C239.233 57.4151 241.886 62.565 245.094 68.8249ZM265.934 60.6691C265.588 66.0589 263.957 70.5134 260.869 74.5044C259.965 75.6731 257.978 77.6323 256.745 78.5709C255.668 79.3906 254.262 80.3243 254.262 80.2197C254.262 80.185 255.922 77.0484 257.952 73.2494C260.299 68.8571 262.412 64.7376 263.757 61.9354L265.871 57.5286L265.958 58.2346C266.011 58.663 266.002 59.6195 265.934 60.6691ZM276.619 60.7036C276.128 60.9301 275.819 61.2511 275.61 61.7522C275.476 62.0718 275.453 62.7811 275.455 66.5163C275.457 70.5661 275.472 70.9362 275.645 71.3104C275.871 71.8013 276.192 72.1102 276.693 72.3195C277.016 72.4543 277.802 72.4765 282.243 72.4765H287.418V71.8202V71.1637L282.288 71.1357L277.159 71.1077L276.965 70.8683C276.781 70.6413 276.771 70.4137 276.771 66.4942C276.771 62.5747 276.781 62.3471 276.965 62.1202L277.159 61.8808L282.288 61.8527L287.418 61.8247V61.1683V60.512L282.221 60.5142C277.386 60.5162 276.996 60.5294 276.619 60.7036ZM295.123 66.4942V72.4765H300.548H305.973V71.8174V71.1584H301.207H296.442V69.1812V67.204H300.295H304.148V66.4942V65.7845H300.295H296.442V63.8073V61.8301H301.207H305.973V61.171V60.512H300.548H295.123V66.4942ZM313.746 60.5796C313.709 60.6167 313.679 63.3087 313.679 66.5619V72.4765H314.388H315.098V70.2458V68.0151L317.608 68.0207L320.117 68.0263L321.972 70.2514L323.827 72.4765H324.684C325.156 72.4765 325.542 72.4562 325.542 72.4314C325.542 72.4066 324.721 71.4142 323.718 70.226L321.895 68.0658L323.152 68.0151C324.368 67.9661 324.42 67.9546 324.791 67.6544C325.606 66.9939 325.589 67.0621 325.623 64.4145C325.651 62.2082 325.639 62.0176 325.45 61.6462C325.195 61.1465 324.735 60.7537 324.246 60.6178C323.828 60.5017 313.86 60.4654 313.746 60.5796ZM332.842 61.171V61.8301H335.478H338.115V67.1533V72.4765H338.773H339.431L339.457 67.1786L339.483 61.8808L342.094 61.8537L344.705 61.8266V61.1693V60.512H338.774H332.842V61.171ZM352.006 66.4942V72.4765H352.665H353.324V66.4942V60.512H352.665H352.006V66.4942ZM361.638 66.4942V72.4765H362.297H362.956V69.8402V67.204L364.908 67.2099L366.86 67.2158L369.04 69.8395L371.22 72.4633L372.116 72.4699L373.013 72.4765L372.607 71.9949C369.376 68.1618 368.033 66.5311 368.054 66.4659C368.067 66.4225 369.162 65.0923 370.486 63.51C371.81 61.9276 372.893 60.6058 372.893 60.5725C372.893 60.5392 372.516 60.5149 372.056 60.5186L371.22 60.5252L369.04 63.1489L366.86 65.7726L364.908 65.7786L362.956 65.7845V63.1482V60.512H362.297H361.638V66.4942ZM324.167 62.1569C324.296 62.3414 324.325 62.7274 324.325 64.2907C324.325 66.1818 324.323 66.2015 324.076 66.4481L323.827 66.697H319.76C315.72 66.697 315.389 66.6721 315.176 66.3523C315.135 66.2909 315.101 65.3546 315.1 64.2716C315.098 62.58 315.122 62.2762 315.266 62.1169C315.424 61.9428 315.696 61.9315 319.722 61.9315H324.009L324.167 62.1569ZM259.488 67.5842C259.245 68.2192 252.596 80.4833 252.531 80.417C252.455 80.3402 247.776 71.2574 246.442 68.5982L245.844 67.4068H252.7C259.188 67.4068 259.552 67.4163 259.488 67.5842Z" stroke="#1B2022" stroke-width="0.6" mask="url(#path-3-outside-1_112_979)"/>
<path d="M449.101 67.5349L449.012 74.6888L444.193 74.6617L444.419 56.3772L454.66 56.433L454.63 58.882L449.208 58.8518L449.13 65.1477L454.551 65.1779L454.66 56.433L459.55 56.4601L459.412 67.5892L449.101 67.5349Z" fill="#1B2022"/>
<path d="M474.926 69.8695L465.962 69.8197L465.929 72.4904L475.446 72.5432L474.431 74.7645L461.251 74.6921L461.411 61.8455L470.375 61.8952L470.346 64.2402L466.033 64.2251L465.993 67.4688L470.305 67.4929L470.375 61.8967L475.026 61.9224L474.926 69.8695Z" fill="#1B2022"/>
<path d="M477.347 74.8142L477.507 61.9675L491.168 62.0429L490.296 64.3275L482.105 64.2823L482.002 72.5491L490.99 72.5989L489.998 74.8835L477.347 74.8142Z" fill="#1B2022"/>
<path d="M502.642 67.5425L507.778 74.9799L502.574 74.9513L497.671 68.0552L497.587 74.9241L492.936 74.8985L493.162 56.614L497.813 56.6396L497.691 66.4974L502.275 62.1016L508.034 62.1333L502.642 67.5425Z" fill="#1B2022"/>
<path d="M526.21 75.1124L509.801 75.022L509.831 72.6378L521.324 72.7012L521.425 64.5927L526.339 64.6198L526.21 75.1124ZM514.939 59.087L514.871 64.5565L521.425 64.5927L521.396 66.9361L509.952 66.8833L510.077 56.739L527.015 56.8325L526.071 59.1488L514.939 59.087Z" fill="#1B2022"/>
<path d="M533.496 64.5639L533.365 75.1214L528.714 75.0957L528.941 56.8113L533.591 56.8369L533.523 62.2748L537.884 62.2989L537.856 64.5805L533.496 64.5639ZM542.399 75.1696L537.726 75.144L537.886 62.2974L542.559 62.323L542.399 75.1696Z" fill="#1B2022"/>
<path d="M548.977 75.2058L544.327 75.1802L544.486 62.3336L549.137 62.3592L548.977 75.2058ZM544.554 56.8958L549.205 56.9214L549.157 60.8648L544.506 60.8392L544.554 56.8958Z" fill="#1B2022"/>
<path d="M564.579 70.3939L555.616 70.3442L555.583 73.0148L565.1 73.0676L564.085 75.2889L550.905 75.2165L551.065 62.3699L560.028 62.4196L560 64.7646L555.687 64.7495L555.646 67.9932L559.959 68.0173L560.028 62.4211L564.679 62.4468L564.579 70.3939Z" fill="#1B2022"/>
<path d="M571.795 75.3313L567.001 75.3057L567.228 57.0212L572.022 57.0469L571.795 75.3313Z" fill="#1B2022"/>
<path d="M587.73 57.1329L587.504 75.4173L573.722 75.3419L573.882 62.4953L583.013 62.5451L582.984 64.8267L578.503 64.8101L578.4 73.0769L582.882 73.101L583.013 62.5435L583.081 57.1057L587.73 57.1329Z" fill="#1B2022"/>
<path d="M430.256 67.1473C430.256 67.1473 431.447 68.5271 432.222 71.1209C432.54 72.1855 426.356 74.9135 426.356 74.9135C426.356 74.9135 429.191 72.466 426.591 71.2128C423.992 69.9597 421.193 71.0424 419.336 63.8885C419.077 62.8857 417.848 62.4891 417.266 62.4891C415.895 62.4891 411.278 64.3892 411.278 64.3892C411.278 64.3892 410.987 64.8687 410.714 65.1326C410.714 65.1326 410.46 65.3769 410.439 65.3965C410.165 65.6604 409.616 65.9424 409.343 65.9258C409.096 65.9107 409.068 65.9258 408.794 65.6619C408.62 65.496 408.519 65.1326 408.519 64.8687C408.519 64.2776 409.269 63.979 409.616 63.8116C410.165 63.5477 410.741 63.5477 410.987 63.8116C411.006 63.8327 411.261 64.0755 411.232 64.0755C411.232 64.0755 411.232 64.3394 412.056 63.8116C413.285 63.0214 416.014 61.8678 416.504 61.5662C416.637 61.4848 416.74 61.3656 416.795 61.2224C416.939 60.8574 417.279 60.0989 417.816 59.5817C418.365 59.0524 420.01 57.9953 422.197 59.1278C425.988 61.0897 426.356 60.8816 426.356 60.8816C426.356 60.8816 427.14 59.5817 429.334 57.2036C431.412 54.9506 433.723 53.5029 433.723 53.5029L434.546 55.881C434.546 55.881 435.301 55.311 437.975 53.5904C437.897 52.3252 436.532 51.3163 434.854 51.3163C434.854 51.3163 425.306 47.198 422.129 47.198C418.952 47.198 409.438 51.3163 409.438 51.3163C407.711 51.3163 406.312 52.384 406.312 53.7005C406.312 53.7005 406.155 67.9465 407.669 71.2415C409.822 75.9223 422.128 85.7198 422.128 85.7198C422.128 85.7198 434.146 76.0098 436.641 71.329C437.339 70.02 437.693 66.9648 437.867 63.7603C436.132 65.3694 433.689 66.6376 430.256 67.1473Z" fill="#1B2022"/>
</svg>
