<svg width="164" height="164" viewBox="0 0 164 164" fill="none" xmlns="http://www.w3.org/2000/svg">
<path d="M129.136 69.8076C148.365 69.8076 163.999 54.1885 163.999 34.9038C163.999 15.619 148.365 0 129.136 0C109.906 0 94.272 15.619 94.272 34.9038C94.272 54.1885 109.906 69.8076 129.136 69.8076Z" fill="#31C1BF"/>
<path d="M34.8637 164C54.1184 164 69.7274 148.373 69.7274 129.096C69.7274 109.819 54.1184 94.1925 34.8637 94.1925C15.609 94.1925 0 109.819 0 129.096C0 148.373 15.609 164 34.8637 164Z" fill="#31C1BF"/>
<path d="M129.136 94.1924C97.8685 94.1924 69.7274 69.0107 69.7274 34.9038C69.7274 15.619 54.0934 0 34.8637 0C15.6339 0 0 15.619 0 34.9038C0 54.1885 15.9466 69.8075 34.8637 69.8075C70.04 69.8075 94.2726 98.4956 94.2726 129.096C94.2726 148.54 109.907 164 129.136 164C148.366 164 164 148.381 164 129.096C164 109.811 148.679 94.1924 129.136 94.1924Z" fill="#31C1BF"/>
</svg>
