<svg width="52" height="52" viewBox="0 0 52 52" fill="none" xmlns="http://www.w3.org/2000/svg">
<path d="M22.127 4.59101C20.2842 5.94261 19.077 7.19731 18.3702 8.49354C17.6633 9.78944 17.5361 11.1462 17.7611 12.309C18.2112 14.6346 19.6803 16.2721 20.2561 17.8075C20.4484 18.2123 20.7742 18.381 21.2333 18.4982C21.8431 18.6206 22.1859 18.4351 22.693 18.1268C24.0028 16.2928 24.3807 14.5746 24.1437 13.1505C23.928 11.8566 23.3157 10.9406 22.8673 10.2781C23.1234 8.81638 23.8759 7.37707 24.2742 6.12875C24.44 5.60612 24.2156 5.0255 23.8105 4.66549C23.1399 4.20795 22.7898 4.26234 22.127 4.59101ZM34.2968 7.69567C33.8519 7.32557 33.5087 7.1805 32.9624 7.26048C32.4935 7.33042 32.1405 7.59659 31.8601 8.01495C31.2844 9.55042 29.8153 11.1879 29.3651 13.5135C29.1401 14.6763 29.2677 16.0331 29.9742 17.329C30.6811 18.6252 31.8883 19.8799 33.731 21.2315C34.2002 21.5705 34.8867 21.5718 35.3572 21.236C35.8277 20.8989 36.0475 20.2484 35.8775 19.695C35.4307 18.2829 34.8365 17.087 34.4706 15.7054C34.9006 14.5837 35.5738 13.6362 35.747 12.6732C35.7651 10.6581 35.1659 8.94399 34.2968 7.69567ZM25.0457 15.8479C24.6727 16.2044 24.4742 16.7569 24.6219 17.2565C25.7257 21.0013 25.1183 22.2845 24.2158 23.4221C23.6223 24.1209 22.9909 24.6892 22.4607 25.2354C22.0411 24.1481 21.5703 22.8438 21.1697 21.2458C21.0082 20.5687 20.2764 20.082 19.5898 20.1947C18.903 20.3074 18.3652 21.0023 18.4283 21.6955C18.6181 23.967 17.3675 25.847 15.7883 28.0065C14.209 30.166 12.2778 32.5518 12.2778 35.7391C12.2778 39.2343 13.9376 42.1482 16.4119 44.0808C18.8861 46.0136 22.1384 47.0404 25.5212 47.0404C30.2362 47.0404 33.8837 46.0615 36.4145 44.0808C38.9453 42.1001 40.1943 39.1052 40.1279 35.7101C40.058 32.1365 38.945 27.9823 36.1535 23.2335C35.4823 22.2721 34.7294 22.0412 33.7311 22.4645C33.2897 22.7925 33.1469 23.2468 33.0637 23.7412C33.0375 24.3976 33.1291 25.0336 33.1362 25.5692C32.9996 24.8522 32.8804 24.101 32.6431 23.0884C32.0071 20.3746 30.4972 16.8907 26.4059 15.5297C25.8671 15.3779 25.4748 15.5578 25.0457 15.8479ZM16.7744 15.9943C15.245 17.1923 14.2639 18.1045 13.6121 18.9685C12.9603 19.8324 12.6096 20.8158 12.7854 21.7105C13.0483 22.8519 13.9984 23.641 14.5116 24.5684C14.7535 25.0425 15.2126 25.3423 15.8026 25.3809C16.4068 25.3229 17.0114 24.9311 17.1807 24.2492C17.3695 22.9044 17.9618 21.796 18.5006 20.6368C19.1482 19.2965 19.4798 17.7455 18.8778 16.473C18.2471 15.6479 17.5596 15.5768 16.7744 15.9943ZM27.6386 31.5752C27.953 33.1278 27.8494 34.5727 27.6386 36.0872C27.4767 36.876 27.5492 37.7192 28.0301 38.1618C28.3947 38.4885 29.1048 38.5523 29.4371 38.4374C30.2022 38.1728 30.6112 37.7334 31.0328 37.2911C31.3848 36.922 31.695 36.5418 31.9903 36.1885C32.2549 37.9446 31.6898 39.663 30.6414 41.1068C29.2736 42.9898 27.084 44.2261 25.3614 44.2261C23.7883 44.2261 22.4444 43.3579 21.4161 42.0355C20.3877 40.7131 19.7915 38.9535 19.7915 37.7266C19.7915 37.0159 19.9391 36.4985 20.1541 36.0292C20.4365 36.8173 20.9488 37.2908 21.6627 37.6541C22.3797 37.8927 23.2494 37.4261 23.4469 36.6966C24.0744 34.3946 24.4799 34.3681 25.4775 33.7224C26.388 33.0042 27.113 32.3151 27.6386 31.5752Z" fill="#1B2022"/>
<path d="M22.127 4.59101C20.2842 5.94261 19.077 7.19731 18.3702 8.49354C17.6633 9.78944 17.5361 11.1462 17.7611 12.309C18.2112 14.6346 19.6803 16.2721 20.2561 17.8075C20.4484 18.2123 20.7741 18.381 21.2333 18.4982C21.843 18.6206 22.1859 18.4351 22.693 18.1268C24.0028 16.2928 24.3807 14.5746 24.1437 13.1505C23.928 11.8566 23.3157 10.9406 22.8672 10.2781C23.1234 8.81638 23.8759 7.37707 24.2742 6.12875C24.44 5.60613 24.2156 5.0255 23.8105 4.66549C23.1399 4.20795 22.7898 4.26234 22.127 4.59101ZM34.2968 7.69568C33.8519 7.32557 33.5086 7.1805 32.9624 7.26048C32.4935 7.33042 32.1405 7.59659 31.8601 8.01496C31.2844 9.55042 29.8152 11.1879 29.3651 13.5136C29.1401 14.6763 29.2677 16.0331 29.9742 17.329C30.6811 18.6252 31.8883 19.8799 33.731 21.2315C34.2002 21.5705 34.8867 21.5718 35.3572 21.236C35.8277 20.8989 36.0475 20.2484 35.8775 19.695C35.4307 18.2829 34.8364 17.087 34.4705 15.7054C34.9006 14.5837 35.5738 13.6362 35.747 12.6732C35.7651 10.6581 35.1659 8.94399 34.2968 7.69568ZM16.7744 15.9943C15.245 17.1923 14.2639 18.1045 13.6121 18.9685C12.9603 19.8324 12.6095 20.8158 12.7854 21.7105C13.0483 22.8519 13.9984 23.641 14.5116 24.5684C14.7535 25.0425 15.2126 25.3423 15.8026 25.3809C16.4068 25.3229 17.0114 24.9311 17.1807 24.2492C17.3695 22.9044 17.9618 21.796 18.5006 20.6368C19.1482 19.2965 19.4797 17.7455 18.8778 16.473C18.247 15.6479 17.5596 15.5768 16.7744 15.9943Z" fill="#1B2022"/>
</svg>
