<svg width="52" height="52" viewBox="0 0 52 52" fill="none" xmlns="http://www.w3.org/2000/svg">
    <path d="M47.2159 31.7435C46.4386 31.7435 45.794 32.3881 45.794 33.1654C45.794 38.7771 41.8886 43.4787 36.6371 44.711L37.149 43.8579C37.5471 43.1754 37.3386 42.3033 36.6561 41.9052C35.9925 41.5071 35.1015 41.7156 34.7034 42.3981L32.7127 45.7158C32.4473 46.1519 32.4473 46.7017 32.6938 47.1377C32.9402 47.5927 33.4142 47.8581 33.9261 47.8581C42.0213 47.8581 48.6188 41.2606 48.6188 33.1654C48.6377 32.3881 47.9931 31.7435 47.2159 31.7435Z" fill="#1B2022"/>
    <path d="M18.7782 3.30603C10.683 3.30603 4.08545 9.90353 4.08545 17.9987C4.08545 18.776 4.73003 19.4206 5.50732 19.4206C6.28462 19.4206 6.9292 18.776 6.9292 17.9987C6.9292 12.3871 10.8346 7.68541 16.0861 6.45311L15.5742 7.30624C15.1761 7.98874 15.3846 8.86082 16.0671 9.25895C16.7307 9.65707 17.6217 9.44853 18.0198 8.76603L20.0104 5.44832C20.2569 5.01228 20.2759 4.48145 20.0104 4.02645C19.764 3.59041 19.29 3.30603 18.7782 3.30603Z" fill="#1B2022"/>
    <path d="M44.3718 19.3258C44.3718 25.165 40.1252 29.9804 34.5704 30.8715C34.5704 30.8525 34.5704 30.8525 34.5704 30.8335C34.0206 23.7621 28.2952 17.9988 21.1289 17.43C22.0199 11.8752 26.8354 7.62854 32.6745 7.62854C39.1393 7.62854 44.3718 12.861 44.3718 19.3258Z" fill="#1B2022"/>
    <path d="M31.7267 31.0421C31.2907 25.2977 26.7027 20.7098 20.9584 20.2738C20.655 20.2548 20.3707 20.2358 20.0484 20.2358C13.5836 20.2358 8.35107 25.4683 8.35107 31.9521C8.35107 38.4169 13.5836 43.6494 20.0484 43.6494C26.5132 43.6494 31.7646 38.4169 31.7646 31.9521C31.7646 31.6298 31.7457 31.3454 31.7267 31.0421ZM22.2475 37.6396H20.9963V38.36C20.9963 39.1373 20.3517 39.7819 19.5744 39.7819C18.7971 39.7819 18.1525 39.1373 18.1525 38.36V37.6396H16.1619C15.3846 37.6396 14.74 36.995 14.74 36.2177V31.9521V27.6865C14.74 26.9092 15.3846 26.2646 16.1619 26.2646H18.1525V25.5442C18.1525 24.7669 18.7971 24.1223 19.5744 24.1223C20.3517 24.1223 20.9963 24.7669 20.9963 25.5442V26.2646H21.4892C23.385 26.2646 25.0534 27.9329 25.0534 29.8288C25.0534 30.3786 24.9207 30.8904 24.6932 31.3644C25.5652 32.009 26.115 32.9948 26.115 34.0944C26.115 36.0471 24.3898 37.6396 22.2475 37.6396Z" fill="#1B2022"/>
    <circle cx="20.3579" cy="32.2743" r="8.53125" fill="#1B2022"/>
    <path fill-rule="evenodd" clip-rule="evenodd" d="M22.9143 32.7976C20.7752 32.7976 19.0415 31.0645 19.0415 28.9282C19.0415 27.8097 18.1393 26.9028 17.014 26.9028C15.8988 26.9028 14.9863 27.8097 14.9863 28.9282C14.9863 30.0467 15.8886 30.9536 17.014 30.9536H17.0241C19.1531 30.9536 20.8766 32.6868 20.8867 34.823V34.8331C20.8867 35.9516 21.789 36.8585 22.9143 36.8585C24.0397 36.8585 24.942 35.9516 24.942 34.8331C24.9318 33.7045 24.0295 32.7976 22.9143 32.7976Z" fill="white"/>
    <path fill-rule="evenodd" clip-rule="evenodd" d="M17.0242 32.7976C15.909 32.7976 14.9966 33.7045 14.9966 34.823C14.9966 35.9415 15.8989 36.8484 17.0242 36.8484C18.1495 36.8484 19.0518 35.9415 19.0518 34.823C19.0417 33.7045 18.1394 32.7976 17.0242 32.7976Z" fill="white"/>
    <path fill-rule="evenodd" clip-rule="evenodd" d="M22.9143 26.9028C24.0342 26.9028 24.942 27.8096 24.942 28.9282C24.942 30.0468 24.0342 30.9536 22.9143 30.9536C21.7945 30.9536 20.8867 30.0468 20.8867 28.9282C20.8867 27.8096 21.7945 26.9028 22.9143 26.9028Z" fill="white"/>
</svg>
