<svg width="56" height="56" viewBox="0 0 56 56" fill="none" xmlns="http://www.w3.org/2000/svg">
<g clip-path="url(#clip0_718_2057)">
<path d="M21.636 40.0227L21.1184 38.0908C20.8438 37.0661 20.9876 35.9743 21.518 35.0555C22.0484 34.1368 22.9221 33.4664 23.9468 33.1918L27.8105 32.1565C28.8352 31.882 29.9271 32.0257 30.8458 32.5561C31.7645 33.0866 32.4349 33.9603 32.7095 34.985L33.2271 36.9168M29.568 19.3969C30.4561 19.387 31.3222 19.673 32.0299 20.2097C32.7375 20.7465 33.2464 21.5035 33.4763 22.3614C33.7061 23.2193 33.6439 24.1293 33.2995 24.948C32.955 25.7666 32.3479 26.4474 31.5738 26.8828M39.0227 35.3639L38.5051 33.4321C38.2717 32.5806 37.7631 31.8303 37.0587 31.2981C36.3543 30.7659 35.4937 30.4817 34.6108 30.4897M27.6718 23.9115C28.2436 26.0454 26.9773 28.2387 24.8434 28.8105C22.7095 29.3822 20.5162 28.1159 19.9444 25.9821C19.3727 23.8482 20.639 21.6548 22.7728 21.0831C24.9067 20.5113 27.1001 21.7776 27.6718 23.9115Z" stroke="#1B2022" stroke-width="2" stroke-linecap="round" stroke-linejoin="round"/>
</g>
<circle cx="28" cy="28" r="27.5" stroke="#E7ECEF"/>
<defs>
<clipPath id="clip0_718_2057">
<rect width="24" height="24" fill="white" transform="translate(13.3031 20.5146) rotate(-15)"/>
</clipPath>
</defs>
</svg>
