<svg width="56" height="56" viewBox="0 0 56 56" fill="none" xmlns="http://www.w3.org/2000/svg">
<circle cx="28" cy="28" r="27.5" fill="white" stroke="#E7ECEF"/>
<g clip-path="url(#clip0_718_2065)">
<path d="M22.9116 28.3281L24.9822 36.0555C25.0508 36.3117 25.0149 36.5847 24.8823 36.8144C24.7497 37.044 24.5313 37.2116 24.2751 37.2803L22.3432 37.7979C22.0871 37.8666 21.8141 37.8306 21.5844 37.698C21.3547 37.5654 21.1871 37.347 21.1185 37.0908L19.3068 30.3293C19.2381 30.0732 19.2741 29.8002 19.4067 29.5705C19.5393 29.3408 19.7577 29.1732 20.0139 29.1046L22.9116 28.3281ZM22.9116 28.3281C23.9364 28.0536 24.81 27.3832 25.3405 26.4644C25.8709 25.5457 26.0146 24.4539 25.7401 23.4292L25.4813 22.4632C25.344 21.9509 25.4158 21.405 25.6811 20.9456C25.9463 20.4862 26.3831 20.151 26.8955 20.0137C27.4078 19.8765 27.9537 19.9483 28.4131 20.2135C28.8725 20.4788 29.2077 20.9156 29.345 21.428L30.639 26.2576L33.5368 25.4811C34.0492 25.3438 34.5951 25.4157 35.0545 25.6809C35.5138 25.9461 35.849 26.383 35.9863 26.8953L36.3145 31.9838C36.3343 32.6136 36.2072 33.193 35.9521 33.6348C35.697 34.0766 35.3279 34.3568 34.9003 34.4333L28.1388 36.245C27.3703 36.4509 26.5514 36.3431 25.8623 35.9453C25.1733 35.5475 24.6705 34.8922 24.4646 34.1237" stroke="#1B2022" stroke-width="2" stroke-linecap="round" stroke-linejoin="round"/>
</g>
<defs>
<clipPath id="clip0_718_2065">
<rect width="24" height="24" fill="white" transform="translate(13.3031 19.5146) rotate(-15)"/>
</clipPath>
</defs>
</svg>
