<svg width="56" height="56" viewBox="0 0 56 56" fill="none" xmlns="http://www.w3.org/2000/svg">
<circle cx="28" cy="28" r="27.5" fill="white" stroke="#E7ECEF"/>
<g clip-path="url(#clip0_718_2041)">
<path d="M31.0771 24.777L34.8859 21.4002C35.0134 21.2872 35.1677 21.2086 35.3341 21.172C35.5005 21.1353 35.6735 21.1418 35.8367 21.1908C35.9999 21.2398 36.1479 21.3296 36.2666 21.4519C36.3853 21.5741 36.4708 21.7246 36.515 21.8892L38.2656 28.4227C38.3096 28.5873 38.3109 28.7605 38.2692 28.9257C38.2275 29.0909 38.1443 29.2427 38.0274 29.3667C37.9106 29.4908 37.764 29.5829 37.6016 29.6343C37.4391 29.6858 37.2662 29.6949 37.0993 29.6608L32.1124 28.6407L31.0771 24.777Z" stroke="#1B2022" stroke-width="2" stroke-linecap="round" stroke-linejoin="round"/>
<path d="M28.1099 21.4309L20.3825 23.5014C19.3156 23.7873 18.6824 24.884 18.9683 25.9509L21.0389 33.6783C21.3248 34.7452 22.4214 35.3784 23.4884 35.0925L31.2158 33.022C32.2827 32.7361 32.9159 31.6394 32.63 30.5725L30.5594 22.8451C30.2735 21.7781 29.1769 21.145 28.1099 21.4309Z" stroke="#1B2022" stroke-width="2" stroke-linecap="round" stroke-linejoin="round"/>
</g>
<defs>
<clipPath id="clip0_718_2041">
<rect width="24" height="24" fill="white" transform="translate(14 19) rotate(-15)"/>
</clipPath>
</defs>
</svg>
