<svg width="52" height="39" viewBox="0 0 52 39" fill="none" xmlns="http://www.w3.org/2000/svg">
<path fill-rule="evenodd" clip-rule="evenodd" d="M35.5181 34.5561C36.8472 36.2635 38.4422 38.244 38.4422 38.244C41.0797 38.3126 43.6935 37.7181 46.0565 36.5119C48.4194 35.3059 50.4598 33.5248 52 31.3236C51.8562 22.0937 49.6747 13.0178 45.6198 4.78048C42.0517 1.90073 37.7014 0.230297 33.1698 0L32.5495 0.728404C36.582 1.82483 40.3421 3.78774 43.5818 6.4879C39.4563 4.15107 34.9258 2.6663 30.2454 2.11713C27.274 1.80451 24.2768 1.858 21.3177 2.27639C21.0647 2.28421 20.8125 2.31478 20.5645 2.3674C17.0872 2.76669 13.693 3.72695 10.5069 5.21294C8.86762 5.96426 7.8929 6.53341 7.8929 6.53341C11.2972 3.69308 15.2679 1.65689 19.5234 0.569142L19.0802 0C14.5486 0.230297 10.1985 1.90073 6.63019 4.78048C2.57532 13.0178 0.393833 22.0937 0.25 31.3236C1.7779 33.5269 3.80965 35.3106 6.16607 36.5173C8.52249 37.724 11.1316 38.3169 13.7635 38.244C13.7635 38.244 14.2822 37.5885 14.9726 36.7111C15.5096 36.0287 16.1505 35.2121 16.7321 34.4651C13.6171 33.6579 10.8745 31.7575 8.97832 29.0927C10.5612 30.1756 12.2549 31.0765 14.0294 31.779C16.1378 32.634 18.3178 33.2893 20.5424 33.7367C24.3314 34.4853 28.2232 34.5007 32.0177 33.7822C34.2254 33.3855 36.3811 32.7285 38.4422 31.8245C40.2339 31.1296 41.9432 30.2286 43.5375 29.1383C41.5704 31.8601 38.7297 33.7793 35.5181 34.5561ZM14.6148 18.6004C15.454 17.6642 16.6052 17.0866 17.8397 16.9822C18.4608 17.0048 19.0713 17.154 19.6356 17.4209C20.2001 17.688 20.7074 18.0677 21.1277 18.5378C21.5482 19.0082 21.8736 19.5594 22.085 20.16C22.2963 20.7604 22.3894 21.398 22.359 22.0359C22.3857 22.6728 22.29 23.3088 22.0772 23.9076C21.8646 24.5064 21.5389 25.0563 21.1193 25.5256C20.6994 25.995 20.1937 26.3747 19.6311 26.6432C19.0682 26.9115 18.4596 27.0632 17.8397 27.0896C16.6052 26.9852 15.454 26.4075 14.6148 25.4712C13.7755 24.5349 13.3097 23.3088 13.3097 22.0359C13.3097 20.763 13.7755 19.5367 14.6148 18.6004ZM31.1646 17.6226C32.0292 17.1194 33.0215 16.8962 34.0116 16.9822C34.6314 17.0084 35.2402 17.1602 35.8029 17.4286C36.3657 17.6969 36.8714 18.0765 37.291 18.546C37.7109 19.0154 38.0364 19.5651 38.2492 20.164C38.4618 20.7628 38.5576 21.399 38.5309 22.0359C38.5308 23.0569 38.2306 24.0542 37.6696 24.897C37.1088 25.7399 36.3135 26.3891 35.3876 26.7597C34.4617 27.1304 33.4485 27.2052 32.4805 26.9744C31.5126 26.7434 30.635 26.2177 29.9627 25.4658C29.2903 24.714 28.8546 23.7711 28.7125 22.7606C28.5702 21.75 28.7282 20.7189 29.1658 19.8022C29.6032 18.8854 30.2999 18.1257 31.1646 17.6226Z" fill="white"/>
</svg>
