<svg width="18" height="13" viewBox="0 0 18 13" fill="none" xmlns="http://www.w3.org/2000/svg">
<path fill-rule="evenodd" clip-rule="evenodd" d="M12.506 11.5187C12.9491 12.0879 13.4807 12.748 13.4807 12.748C14.3599 12.7709 15.2312 12.5727 16.0189 12.1706C16.8065 11.7686 17.4866 11.1749 18 10.4412C17.9521 7.36457 17.2249 4.33928 15.8733 1.59349C14.6839 0.633576 13.2338 0.0767655 11.7233 0L11.5165 0.242801C12.8607 0.608277 14.114 1.26258 15.1939 2.16263C13.8188 1.38369 12.3086 0.888767 10.7485 0.70571C9.75799 0.601504 8.75894 0.619335 7.77256 0.758798C7.68822 0.761403 7.60416 0.771592 7.52151 0.789133C6.3624 0.922228 5.23101 1.24232 4.16897 1.73765C3.62254 1.98809 3.29763 2.1778 3.29763 2.1778C4.43241 1.23103 5.75597 0.552295 7.17447 0.189714L7.02675 0C5.5162 0.0767655 4.06615 0.633576 2.87673 1.59349C1.52511 4.33928 0.797944 7.36457 0.75 10.4412C1.2593 11.1756 1.93655 11.7702 2.72202 12.1724C3.5075 12.5747 4.3772 12.7723 5.2545 12.748C5.2545 12.748 5.42741 12.5295 5.65755 12.237C5.83654 12.0096 6.05017 11.7374 6.24403 11.4884C5.20571 11.2193 4.29151 10.5858 3.65944 9.69758C4.18705 10.0585 4.75162 10.3588 5.34312 10.593C6.04595 10.878 6.7726 11.0964 7.51413 11.2456C8.77713 11.4951 10.0744 11.5002 11.3392 11.2607C12.0751 11.1285 12.7937 10.9095 13.4807 10.6082C14.078 10.3765 14.6477 10.0762 15.1792 9.71275C14.5235 10.62 13.5766 11.2598 12.506 11.5187ZM5.53828 6.20012C5.818 5.88808 6.20172 5.69553 6.61322 5.66073C6.82027 5.66826 7.02376 5.71799 7.21188 5.80697C7.40005 5.89601 7.56912 6.02256 7.70923 6.17928C7.8494 6.33605 7.95786 6.5198 8.02834 6.71999C8.09876 6.92013 8.1298 7.13265 8.11966 7.34529C8.12856 7.55758 8.09668 7.76959 8.02574 7.9692C7.95487 8.16881 7.84631 8.3521 7.70642 8.50853C7.56647 8.66501 7.39791 8.79156 7.21036 8.88107C7.02275 8.97051 6.81987 9.02105 6.61322 9.02985C6.20172 8.99506 5.818 8.80251 5.53828 8.49041C5.2585 8.17831 5.10323 7.76959 5.10323 7.34529C5.10323 6.921 5.2585 6.51222 5.53828 6.20012ZM11.0548 5.87418C11.3431 5.70647 11.6738 5.63208 12.0039 5.66073C12.2105 5.66948 12.4134 5.72007 12.601 5.80952C12.7886 5.89896 12.9571 6.02552 13.097 6.182C13.237 6.33848 13.3455 6.52171 13.4164 6.72133C13.4873 6.92094 13.5192 7.133 13.5103 7.34529C13.5103 7.68564 13.4102 8.01806 13.2232 8.29901C13.0363 8.57997 12.7712 8.79637 12.4625 8.91991C12.1539 9.04345 11.8162 9.06841 11.4935 8.99147C11.1709 8.91447 10.8783 8.73923 10.6542 8.48861C10.4301 8.238 10.2849 7.9237 10.2375 7.58688C10.1901 7.25 10.2427 6.90629 10.3886 6.60074C10.5344 6.29512 10.7666 6.0419 11.0548 5.87418Z" fill="#707E85"/>
</svg>
