<svg width="421" height="391" viewBox="0 0 421 391" fill="none" xmlns="http://www.w3.org/2000/svg">
<g clip-path="url(#clip0_1116_2046)">
<path d="M198.806 390.094H5.706C4.19263 390.092 2.7417 389.491 1.67159 388.42C0.601475 387.35 -0.000410618 385.899 -0.0019989 384.386V5.707C-0.000145977 4.19381 0.601859 2.74313 1.67194 1.67324C2.74203 0.603339 4.19281 0.0015878 5.706 0H198.806C200.319 0.00185241 201.77 0.603719 202.839 1.67359C203.909 2.74346 204.511 4.19398 204.513 5.707V384.386C204.511 385.899 203.91 387.35 202.84 388.42C201.77 389.49 200.319 390.092 198.806 390.094ZM5.706 0.247002C4.25903 0.248325 2.87169 0.823651 1.84843 1.84672C0.825169 2.86979 0.24959 4.25703 0.248001 5.704V384.386C0.248795 385.834 0.823994 387.222 1.84731 388.246C2.87062 389.269 4.25842 389.845 5.706 389.847H198.806C200.253 389.845 201.64 389.27 202.663 388.247C203.686 387.223 204.262 385.836 204.263 384.389V5.707C204.262 4.25968 203.687 2.87182 202.664 1.84813C201.641 0.824443 200.253 0.248591 198.806 0.247002H5.706Z" fill="#E7ECEF"/>
<path d="M415.106 390.094H222.006C220.493 390.092 219.042 389.49 217.972 388.42C216.902 387.35 216.301 385.899 216.299 384.386V5.707C216.301 4.19398 216.903 2.74346 217.973 1.67359C219.042 0.603719 220.493 0.00185241 222.006 0H415.106C416.619 0.0015878 418.07 0.603339 419.14 1.67324C420.21 2.74313 420.812 4.19381 420.814 5.707V384.386C420.812 385.899 420.211 387.35 419.14 388.42C418.07 389.491 416.619 390.092 415.106 390.094ZM222.006 0.247002C220.559 0.24859 219.172 0.824031 218.149 1.84707C217.126 2.87011 216.551 4.2572 216.549 5.704V384.386C216.55 385.833 217.125 387.222 218.148 388.246C219.171 389.269 220.559 389.845 222.006 389.847H415.106C416.553 389.845 417.94 389.27 418.964 388.247C419.987 387.223 420.562 385.836 420.564 384.389V5.707C420.563 4.25951 419.988 2.8715 418.965 1.84778C417.941 0.824063 416.554 0.248326 415.106 0.247002H222.006Z" fill="#E7ECEF"/>
<path d="M73.46 113.294L75.077 116.57L78.693 117.095L76.077 119.645L76.695 123.245L73.461 121.545L70.227 123.245L70.845 119.645L68.229 117.095L71.845 116.57L73.46 113.294Z" fill="#E7ECEF"/>
<path d="M397.106 267.53L398.723 270.806L402.339 271.331L399.723 273.881L400.341 277.481L397.107 275.781L393.873 277.481L394.491 273.881L391.875 271.331L395.491 270.806L397.106 267.53Z" fill="#F8FAFA"/>
<path d="M333.006 362.613L334.623 365.889L338.239 366.414L335.623 368.964L336.241 372.564L333.007 370.864L329.773 372.564L330.391 368.964L327.775 366.414L331.391 365.889L333.006 362.613Z" fill="#F8FAFA"/>
<path d="M186.351 55.201L186.951 56.417L188.293 56.612C188.369 56.6224 188.441 56.6541 188.5 56.7034C188.559 56.7528 188.603 56.8177 188.626 56.8909C188.65 56.9641 188.652 57.0424 188.633 57.1169C188.614 57.1914 188.575 57.259 188.519 57.312L187.548 58.258L187.777 59.595C187.79 59.6701 187.782 59.7474 187.753 59.818C187.725 59.8887 187.677 59.9499 187.615 59.9948C187.554 60.0397 187.481 60.0664 187.405 60.0719C187.329 60.0774 187.252 60.0615 187.185 60.026L185.985 59.394L184.785 60.026C184.717 60.0614 184.641 60.0772 184.565 60.0716C184.489 60.0661 184.416 60.0394 184.355 59.9946C184.293 59.9497 184.245 59.8886 184.216 59.818C184.188 59.7474 184.179 59.6701 184.192 59.595L184.422 58.258L183.45 57.312C183.395 57.2588 183.355 57.1911 183.337 57.1166C183.318 57.0422 183.321 56.964 183.344 56.8909C183.368 56.8179 183.412 56.753 183.471 56.7037C183.529 56.6544 183.601 56.6226 183.677 56.612L185.019 56.417L185.619 55.201C185.653 55.133 185.705 55.0757 185.77 55.0357C185.834 54.9957 185.909 54.9745 185.985 54.9745C186.061 54.9745 186.136 54.9957 186.2 55.0357C186.265 55.0757 186.317 55.133 186.351 55.201Z" fill="#E7ECEF"/>
<path d="M21.183 347.054L21.783 348.271L23.125 348.471C23.2012 348.481 23.2729 348.513 23.3318 348.562C23.3908 348.612 23.4346 348.677 23.4582 348.75C23.4818 348.823 23.4843 348.901 23.4653 348.976C23.4464 349.05 23.4067 349.118 23.351 349.171L22.38 350.118L22.606 351.447C22.6188 351.522 22.6104 351.599 22.5818 351.67C22.5531 351.74 22.5052 351.801 22.4436 351.846C22.382 351.891 22.3092 351.917 22.2332 351.923C22.1573 351.928 22.0814 351.912 22.014 351.877L20.814 351.246L19.614 351.877C19.5466 351.912 19.4707 351.928 19.3948 351.923C19.3188 351.917 19.246 351.891 19.1844 351.846C19.1228 351.801 19.0749 351.74 19.0462 351.67C19.0175 351.599 19.0092 351.522 19.022 351.447L19.251 350.11L18.28 349.163C18.2243 349.11 18.1846 349.042 18.1657 348.968C18.1467 348.893 18.1492 348.815 18.1728 348.742C18.1964 348.669 18.2402 348.604 18.2992 348.554C18.3581 348.505 18.4298 348.473 18.506 348.463L19.848 348.263L20.448 347.046C20.4824 346.978 20.5353 346.92 20.6007 346.88C20.6661 346.84 20.7414 346.82 20.818 346.82C20.8946 346.821 20.9694 346.844 21.034 346.885C21.0985 346.926 21.1501 346.985 21.183 347.054Z" fill="#F8FAFA"/>
<path d="M48.161 42.347L48.761 43.563L50.103 43.758C50.1792 43.7684 50.2508 43.8001 50.3098 43.8494C50.3687 43.8987 50.4126 43.9637 50.4362 44.0369C50.4598 44.1101 50.4623 44.1884 50.4433 44.2629C50.4243 44.3374 50.3847 44.405 50.329 44.458L49.358 45.404L49.588 46.741C49.6008 46.8161 49.5923 46.8934 49.5636 46.964C49.5348 47.0346 49.4869 47.0957 49.4253 47.1405C49.3636 47.1854 49.2906 47.2121 49.2146 47.2176C49.1386 47.2232 49.0625 47.2074 48.995 47.172L47.795 46.541L46.595 47.172C46.5275 47.2075 46.4515 47.2234 46.3754 47.2179C46.2994 47.2124 46.2264 47.1857 46.1648 47.1408C46.1032 47.0959 46.0553 47.0347 46.0267 46.964C45.9981 46.8934 45.9899 46.8161 46.003 46.741L46.232 45.404L45.261 44.458C45.2053 44.405 45.1656 44.3374 45.1467 44.2629C45.1277 44.1884 45.1302 44.1101 45.1538 44.0369C45.1774 43.9637 45.2212 43.8987 45.2802 43.8494C45.3391 43.8001 45.4108 43.7684 45.487 43.758L46.829 43.563L47.429 42.347C47.4629 42.279 47.5151 42.2217 47.5798 42.1817C47.6444 42.1417 47.719 42.1205 47.795 42.1205C47.871 42.1205 47.9455 42.1417 48.0102 42.1817C48.0748 42.2217 48.1271 42.279 48.161 42.347Z" fill="#E7ECEF"/>
<path d="M46.537 283.366C46.537 283.628 46.4592 283.885 46.3134 284.103C46.1677 284.321 45.9605 284.491 45.718 284.592C45.4756 284.692 45.2089 284.719 44.9515 284.668C44.6941 284.616 44.4576 284.49 44.272 284.305C44.0864 284.119 43.9599 283.883 43.9086 283.625C43.8573 283.368 43.8834 283.101 43.9837 282.859C44.084 282.616 44.2539 282.409 44.472 282.263C44.6901 282.117 44.9466 282.039 45.209 282.039C45.561 282.039 45.8987 282.179 46.1477 282.428C46.3967 282.676 46.5367 283.014 46.537 283.366Z" fill="#E7ECEF"/>
<path d="M236.077 116.941C236.077 117.203 235.999 117.46 235.853 117.678C235.708 117.896 235.5 118.067 235.258 118.167C235.015 118.267 234.749 118.294 234.491 118.243C234.234 118.191 233.997 118.065 233.812 117.879C233.626 117.694 233.5 117.457 233.449 117.2C233.397 116.942 233.424 116.676 233.524 116.433C233.624 116.191 233.795 115.983 234.013 115.838C234.231 115.692 234.488 115.614 234.75 115.614C235.102 115.614 235.439 115.754 235.688 116.003C235.937 116.252 236.077 116.589 236.077 116.941Z" fill="#E7ECEF"/>
<path d="M167.113 43.447C167.113 43.7095 167.035 43.966 166.889 44.1842C166.744 44.4025 166.536 44.5726 166.294 44.673C166.051 44.7734 165.785 44.7997 165.527 44.7485C165.27 44.6973 165.033 44.5709 164.848 44.3853C164.662 44.1997 164.536 43.9633 164.484 43.7059C164.433 43.4485 164.46 43.1817 164.56 42.9392C164.66 42.6967 164.831 42.4894 165.049 42.3436C165.267 42.1978 165.524 42.12 165.786 42.12C166.138 42.1203 166.475 42.2602 166.724 42.509C166.973 42.7578 167.113 43.0951 167.113 43.447Z" fill="#F8FAFA"/>
<path d="M169.237 367.576C173.186 366.643 175.632 362.686 174.7 358.736C173.768 354.787 169.81 352.341 165.86 353.273C161.911 354.205 159.465 358.163 160.397 362.113C161.329 366.062 165.287 368.508 169.237 367.576Z" fill="#E7ECEF"/>
<path d="M165.006 356.137C163.5 356.134 162.033 356.61 160.816 357.497C160.196 358.923 160.045 360.508 160.383 362.025C160.722 363.543 161.534 364.913 162.701 365.939C163.869 366.966 165.332 367.595 166.88 367.737C168.429 367.878 169.982 367.525 171.316 366.727C171.306 366.717 171.306 366.717 171.316 366.717C171.905 365.624 172.201 364.398 172.174 363.157C172.148 361.915 171.799 360.702 171.163 359.636C170.528 358.57 169.626 357.687 168.547 357.074C167.467 356.46 166.247 356.138 165.006 356.137Z" fill="#F8FAFA"/>
<path d="M108.086 232.692H47.231V205.217L108.086 132.88H137.201V206.78H152.292V232.697H137.201V255.169H108.086V232.692ZM108.086 206.775V168.937L75.931 206.775H108.086Z" fill="#31C1BF"/>
<path d="M162.706 194.555C162.706 171.701 166.82 155.708 175.049 146.577C183.278 137.446 195.811 132.879 212.649 132.877C220.741 132.877 227.384 133.875 232.579 135.87C237.303 137.575 241.628 140.226 245.291 143.662C248.377 146.606 250.991 150.009 253.041 153.75C255.07 157.658 256.599 161.805 257.594 166.094C259.86 175.271 260.989 184.691 260.956 194.143C260.956 215.958 257.265 231.925 249.884 242.043C242.503 252.161 229.79 257.218 211.747 257.215C201.632 257.215 193.458 255.602 187.225 252.376C180.937 249.102 175.641 244.202 171.888 238.188C168.989 233.759 166.733 227.703 165.122 220.022C163.441 211.639 162.632 203.105 162.706 194.555ZM195.84 194.637C195.84 209.946 197.193 220.403 199.899 226.008C202.605 231.613 206.528 234.415 211.668 234.414C213.301 234.433 214.921 234.127 216.434 233.514C217.947 232.902 219.324 231.995 220.484 230.846C222.972 228.468 224.805 224.709 225.984 219.57C227.163 214.431 227.75 206.42 227.747 195.539C227.747 179.574 226.394 168.844 223.688 163.349C220.982 157.854 216.922 155.107 211.508 155.106C205.985 155.106 201.993 157.908 199.534 163.513C197.075 169.118 195.844 179.492 195.842 194.637H195.84Z" fill="#31C1BF"/>
<path d="M332.15 232.692H271.295V205.217L332.15 132.88H361.265V206.78H376.355V232.697H361.265V255.169H332.15V232.692ZM332.15 206.775V168.937L299.994 206.775H332.15Z" fill="#31C1BF"/>
<g opacity="0.3">
<path d="M161.358 90.665C161.358 91.0341 161.249 91.395 161.044 91.702C160.839 92.009 160.548 92.2483 160.207 92.3897C159.866 92.5311 159.491 92.5682 159.129 92.4963C158.767 92.4244 158.434 92.2468 158.173 91.9859C157.912 91.7249 157.734 91.3925 157.662 91.0305C157.59 90.6685 157.627 90.2932 157.768 89.9522C157.909 89.6112 158.148 89.3197 158.455 89.1146C158.762 88.9095 159.123 88.8 159.492 88.8C159.987 88.8 160.461 88.9965 160.811 89.3462C161.161 89.6959 161.358 90.1703 161.358 90.665Z" fill="#31C1BF"/>
<path d="M33.372 162.499C34.1027 162.499 34.695 161.907 34.695 161.176C34.695 160.445 34.1027 159.853 33.372 159.853C32.6413 159.853 32.049 160.445 32.049 161.176C32.049 161.907 32.6413 162.499 33.372 162.499Z" fill="#31C1BF"/>
<path d="M251.459 355.273C252.504 355.273 253.352 354.425 253.352 353.38C253.352 352.335 252.504 351.487 251.459 351.487C250.414 351.487 249.566 352.335 249.566 353.38C249.566 354.425 250.414 355.273 251.459 355.273Z" fill="#31C1BF"/>
<path d="M296.904 278.37C297.635 278.37 298.227 277.778 298.227 277.047C298.227 276.316 297.635 275.724 296.904 275.724C296.173 275.724 295.581 276.316 295.581 277.047C295.581 277.778 296.173 278.37 296.904 278.37Z" fill="#31C1BF"/>
<path d="M384.579 40.666C384.58 40.9279 384.503 41.1841 384.358 41.4021C384.213 41.6202 384.007 41.7904 383.765 41.8912C383.523 41.9919 383.257 42.0187 383 41.9681C382.743 41.9175 382.507 41.7918 382.322 41.607C382.136 41.4221 382.01 41.1864 381.959 40.9296C381.907 40.6729 381.933 40.4067 382.033 40.1647C382.133 39.9227 382.303 39.7158 382.521 39.5703C382.738 39.4247 382.994 39.347 383.256 39.347C383.606 39.347 383.942 39.4859 384.19 39.7331C384.438 39.9804 384.578 40.3159 384.579 40.666Z" fill="#31C1BF"/>
<path d="M133.16 14.01C133.16 14.2717 133.082 14.5275 132.937 14.745C132.792 14.9626 132.585 15.1322 132.343 15.2323C132.102 15.3324 131.836 15.3586 131.579 15.3076C131.322 15.2565 131.087 15.1305 130.901 14.9455C130.716 14.7605 130.59 14.5248 130.539 14.2681C130.488 14.0115 130.515 13.7455 130.615 13.5037C130.715 13.262 130.884 13.0554 131.102 12.91C131.32 12.7646 131.575 12.687 131.837 12.687C132.188 12.687 132.524 12.8264 132.772 13.0745C133.021 13.3226 133.16 13.6591 133.16 14.01Z" fill="#31C1BF"/>
<path d="M238.101 83.313C238.832 83.313 239.424 82.7207 239.424 81.99C239.424 81.2593 238.832 80.667 238.101 80.667C237.37 80.667 236.778 81.2593 236.778 81.99C236.778 82.7207 237.37 83.313 238.101 83.313Z" fill="#31C1BF"/>
</g>
<path d="M101.639 83.318C113.74 83.318 123.549 73.5085 123.549 61.408C123.549 49.3074 113.74 39.498 101.639 39.498C89.5384 39.498 79.729 49.3074 79.729 61.408C79.729 73.5085 89.5384 83.318 101.639 83.318Z" fill="#31C1BF"/>
<path opacity="0.7" d="M101.639 83.318C113.74 83.318 123.549 73.5085 123.549 61.408C123.549 49.3074 113.74 39.498 101.639 39.498C89.5384 39.498 79.729 49.3074 79.729 61.408C79.729 73.5085 89.5384 83.318 101.639 83.318Z" fill="white"/>
<path opacity="0.2" d="M94.088 44.877C91.1178 44.8749 88.1782 45.4772 85.448 46.647C82.0801 50.3513 80.0817 55.0969 79.7851 60.0946C79.4886 65.0923 80.9118 70.0409 83.8181 74.1175C86.7244 78.1941 90.9386 81.1529 95.7599 82.502C100.581 83.8511 105.719 83.5091 110.319 81.5329V81.523C113.171 78.3795 115.048 74.4759 115.724 70.2859C116.4 66.096 115.844 61.7999 114.126 57.9194C112.407 54.0389 109.599 50.7409 106.042 48.4256C102.485 46.1104 98.3321 44.8776 94.088 44.877Z" fill="#31C1BF"/>
<path opacity="0.2" d="M91.906 50.67C91.906 51.0655 91.7887 51.4522 91.5689 51.7811C91.3492 52.11 91.0368 52.3664 90.6714 52.5177C90.3059 52.6691 89.9038 52.7087 89.5158 52.6316C89.1279 52.5544 88.7715 52.3639 88.4918 52.0842C88.2121 51.8045 88.0216 51.4481 87.9444 51.0602C87.8673 50.6722 87.9069 50.2701 88.0583 49.9046C88.2096 49.5392 88.466 49.2268 88.7949 49.007C89.1238 48.7873 89.5104 48.67 89.906 48.67C90.4364 48.67 90.9451 48.8807 91.3202 49.2558C91.6953 49.6308 91.906 50.1395 91.906 50.67Z" fill="#31C1BF"/>
<path opacity="0.2" d="M115.47 48.667C115.47 49.0626 115.353 49.4492 115.133 49.7781C114.913 50.107 114.601 50.3634 114.235 50.5147C113.87 50.6661 113.468 50.7057 113.08 50.6286C112.692 50.5514 112.335 50.3609 112.056 50.0812C111.776 49.8015 111.586 49.4451 111.508 49.0572C111.431 48.6692 111.471 48.2671 111.622 47.9016C111.774 47.5362 112.03 47.2238 112.359 47.0041C112.688 46.7843 113.074 46.667 113.47 46.667C114 46.667 114.509 46.8777 114.884 47.2528C115.259 47.6278 115.47 48.1366 115.47 48.667Z" fill="#31C1BF"/>
<path opacity="0.2" d="M111.464 62.947C111.464 63.5951 111.271 64.2285 110.911 64.7672C110.551 65.306 110.039 65.7258 109.441 65.9737C108.842 66.2217 108.183 66.2865 107.547 66.16C106.912 66.0335 106.328 65.7214 105.87 65.2632C105.412 64.805 105.099 64.2211 104.973 63.5856C104.847 62.95 104.911 62.2912 105.159 61.6924C105.407 61.0937 105.827 60.5819 106.366 60.2217C106.905 59.8615 107.538 59.6692 108.186 59.669C109.055 59.669 109.889 60.0144 110.504 60.6291C111.119 61.2439 111.464 62.0776 111.464 62.947Z" fill="#31C1BF"/>
<path opacity="0.2" d="M101.048 72.293C101.048 73.1595 100.791 74.0065 100.31 74.7269C99.8283 75.4474 99.1441 76.0089 98.3435 76.3405C97.543 76.6721 96.6621 76.7588 95.8123 76.5898C94.9625 76.4208 94.1819 76.0035 93.5692 75.3908C92.9565 74.7781 92.5392 73.9975 92.3702 73.1477C92.2011 72.2979 92.2879 71.417 92.6195 70.6165C92.9511 69.8159 93.5126 69.1317 94.233 68.6503C94.9535 68.1689 95.8005 67.912 96.667 67.912C97.2424 67.9119 97.8121 68.0251 98.3437 68.2452C98.8753 68.4653 99.3583 68.788 99.7651 69.1949C100.172 69.6017 100.495 70.0847 100.715 70.6163C100.935 71.1479 101.048 71.7176 101.048 72.293Z" fill="#31C1BF"/>
<path d="M361.316 325.713C363.755 315.379 357.356 305.024 347.021 302.584C336.687 300.144 326.332 306.544 323.892 316.878C321.453 327.212 327.852 337.568 338.187 340.007C348.521 342.447 358.876 336.047 361.316 325.713Z" fill="#31C1BF"/>
<path opacity="0.3" d="M361.316 325.713C363.755 315.379 357.356 305.024 347.021 302.584C336.687 300.144 326.332 306.544 323.892 316.878C321.453 327.212 327.852 337.568 338.187 340.007C348.521 342.447 358.876 336.047 361.316 325.713Z" fill="white"/>
<path opacity="0.4" d="M354.739 306.386C350.476 305.104 345.901 305.34 341.794 307.055C337.686 308.77 334.301 311.857 332.215 315.789C330.129 319.721 329.472 324.255 330.356 328.618C331.24 332.98 333.61 336.901 337.062 339.711C341.325 340.993 345.9 340.756 350.007 339.042C354.115 337.327 357.5 334.24 359.586 330.308C361.672 326.376 362.329 321.842 361.445 317.479C360.561 313.117 358.191 309.196 354.739 306.386Z" fill="#31C1BF"/>
<path d="M324.236 326.995C303.703 336.657 319.021 344.104 347.948 333.707C374.732 324.081 384.915 311.938 361 315.701C362.234 320.81 328.688 333.881 324.236 326.995Z" fill="#31C1BF"/>
<path opacity="0.2" d="M354.506 132.877C327.616 151.047 292.806 175.007 283.196 232.687H281.146C290.496 175.707 324.036 151.117 350.936 132.877H354.506Z" fill="#1B2022"/>
<path d="M215.425 313.314C198.455 313.314 181.616 305.652 173.439 293.127C168.386 285.388 162.519 269.177 179.994 247.549L181.55 248.807C169.188 264.107 166.902 279.457 175.113 292.033C185.108 307.342 208.713 315.039 228.844 309.562C249.471 303.948 261.996 286.005 263.205 260.333C267.339 172.527 313.989 145.479 348.051 125.733C369.213 113.462 384.503 104.597 381.142 85.895C380.676 83.295 379.642 81.5069 377.979 80.4129C373.626 77.5449 365.126 79.528 355.285 81.821C335.979 86.321 309.539 92.479 293.785 65.688L295.509 64.674C310.515 90.197 335.086 84.4739 354.828 79.8739C365.118 77.4739 374.005 75.4069 379.076 78.743C381.22 80.156 382.539 82.379 383.108 85.543C386.717 105.625 370.095 115.263 349.051 127.465C315.39 146.978 269.286 173.71 265.206 260.427C263.954 287.027 250.893 305.635 229.373 311.491C224.825 312.713 220.135 313.326 215.425 313.314Z" fill="#31C1BF"/>
<path opacity="0.2" d="M215.425 313.314C198.455 313.314 181.616 305.652 173.439 293.127C168.386 285.388 162.519 269.177 179.994 247.549L181.55 248.807C169.188 264.107 166.902 279.457 175.113 292.033C185.108 307.342 208.713 315.039 228.844 309.562C249.471 303.948 261.996 286.005 263.205 260.333C267.339 172.527 313.989 145.479 348.051 125.733C369.213 113.462 384.503 104.597 381.142 85.895C380.676 83.295 379.642 81.5069 377.979 80.4129C373.626 77.5449 365.126 79.528 355.285 81.821C335.979 86.321 309.539 92.479 293.785 65.688L295.509 64.674C310.515 90.197 335.086 84.4739 354.828 79.8739C365.118 77.4739 374.005 75.4069 379.076 78.743C381.22 80.156 382.539 82.379 383.108 85.543C386.717 105.625 370.095 115.263 349.051 127.465C315.39 146.978 269.286 173.71 265.206 260.427C263.954 287.027 250.893 305.635 229.373 311.491C224.825 312.713 220.135 313.326 215.425 313.314Z" fill="white"/>
<path d="M273.164 41.996C277.772 42.0252 282.351 42.7445 286.746 44.13C286.746 44.13 297.71 62.9 299.046 67.197C298.585 71.437 291.431 78.388 291.431 78.388L273.164 41.996Z" fill="#31C1BF"/>
<path opacity="0.3" d="M273.164 41.996C277.772 42.0252 282.351 42.7445 286.746 44.13C286.746 44.13 297.71 62.9 299.046 67.197C298.585 71.437 291.431 78.388 291.431 78.388L273.164 41.996Z" fill="white"/>
<path d="M305.745 133.179C301.511 127.997 297.648 122.522 294.186 116.795C293.346 115.347 292.55 113.875 291.797 112.379C291.369 111.53 290.954 110.675 290.553 109.812C290.028 108.978 289.624 108.075 289.353 107.128C288.153 94.456 292.49 85.128 288.326 74.956L271.854 81.394C271.854 81.394 273.254 99.515 276.454 110.357C278.438 117.083 282.928 122.906 287.254 128.294C288.608 129.98 289.913 131.704 291.264 133.394C292.543 134.994 293.976 136.459 295.258 138.048C297.205 140.461 297.858 142.765 296.373 145.609C296.294 145.762 296.211 145.909 296.126 146.062C295.706 146.804 297.673 147.643 298.907 146.083C300.949 143.502 300.628 143.661 302.369 141.46C303.427 140.124 304.64 138.681 305.688 137.427C306.184 136.833 306.461 136.087 306.471 135.313C306.481 134.539 306.225 133.786 305.745 133.179Z" fill="#31C1BF"/>
<path opacity="0.7" d="M305.745 133.179C301.511 127.997 297.648 122.522 294.186 116.795C293.346 115.347 292.55 113.875 291.797 112.379C291.369 111.53 290.954 110.675 290.553 109.812C290.028 108.978 289.624 108.075 289.353 107.128C288.153 94.456 292.49 85.128 288.326 74.956L271.854 81.394C271.854 81.394 273.254 99.515 276.454 110.357C278.438 117.083 282.928 122.906 287.254 128.294C288.608 129.98 289.913 131.704 291.264 133.394C292.543 134.994 293.976 136.459 295.258 138.048C297.205 140.461 297.858 142.765 296.373 145.609C296.294 145.762 296.211 145.909 296.126 146.062C295.706 146.804 297.673 147.643 298.907 146.083C300.949 143.502 300.628 143.661 302.369 141.46C303.427 140.124 304.64 138.681 305.688 137.427C306.184 136.833 306.461 136.087 306.471 135.313C306.481 134.539 306.225 133.786 305.745 133.179Z" fill="white"/>
<path opacity="0.3" d="M301.718 127.965C299.103 130.771 296.199 133.292 293.054 135.488C293.483 135.967 293.91 136.456 294.337 136.945C297.483 134.823 300.34 132.302 302.837 129.445C302.464 128.956 302.091 128.46 301.718 127.965Z" fill="#31C1BF"/>
<path opacity="0.3" d="M305.741 133.182C305.703 133.13 305.663 133.088 305.625 133.037C304.852 133.917 304.406 135.036 304.36 136.206C304.288 137.009 304.418 137.817 304.738 138.557C305.07 138.171 305.381 137.789 305.687 137.426C306.183 136.833 306.459 136.087 306.469 135.314C306.479 134.54 306.222 133.788 305.741 133.182Z" fill="#31C1BF"/>
<path d="M269.248 53.998C267.456 56.6714 265.311 59.0911 262.873 61.192C261.517 62.3471 260.035 63.3464 258.456 64.171C257.623 64.5956 256.759 64.9583 255.873 65.256L255.198 65.473L254.98 65.541C254.823 65.589 254.663 65.632 254.504 65.67C254.216 65.7354 253.925 65.7812 253.631 65.807C252.785 65.8728 251.935 65.7937 251.116 65.573C250.085 65.2837 249.098 64.859 248.179 64.31C247.435 63.8791 246.716 63.4071 246.025 62.896C244.773 61.9516 243.578 60.9334 242.447 59.847C240.264 57.7751 238.26 55.522 236.457 53.112C236.107 52.642 235.932 52.0641 235.963 51.4787C235.994 50.8932 236.229 50.3371 236.627 49.9066C237.025 49.4762 237.561 49.1986 238.142 49.1219C238.723 49.0453 239.313 49.1744 239.809 49.487L239.885 49.536C242.245 51.036 244.626 52.614 246.949 54.028C248.123 54.72 249.269 55.416 250.395 55.958C250.911 56.2253 251.44 56.4643 251.982 56.674C252.323 56.8249 252.687 56.9152 253.059 56.941C253.112 56.941 253.05 56.867 252.681 56.88C252.566 56.8861 252.451 56.9012 252.338 56.925C252.264 56.9392 252.191 56.9579 252.12 56.981C252.051 57.004 252.149 56.962 252.155 56.956L252.486 56.786C252.93 56.5483 253.361 56.2852 253.775 55.998C254.668 55.3648 255.504 54.6555 256.275 53.878C258.018 52.045 259.655 50.1128 261.175 48.091L261.198 48.063C261.995 47.0247 263.168 46.3405 264.465 46.1576C265.761 45.9747 267.078 46.3076 268.131 47.0848C269.185 47.862 269.892 49.0215 270.1 50.3142C270.308 51.6068 270.001 52.9295 269.244 53.998H269.248Z" fill="#31C1BF"/>
<path opacity="0.7" d="M269.248 53.998C267.456 56.6714 265.311 59.0911 262.873 61.192C261.517 62.3471 260.035 63.3464 258.456 64.171C257.623 64.5956 256.759 64.9583 255.873 65.256L255.198 65.473L254.98 65.541C254.823 65.589 254.663 65.632 254.504 65.67C254.216 65.7354 253.925 65.7812 253.631 65.807C252.785 65.8728 251.935 65.7937 251.116 65.573C250.085 65.2837 249.098 64.859 248.179 64.31C247.435 63.8791 246.716 63.4071 246.025 62.896C244.773 61.9516 243.578 60.9334 242.447 59.847C240.264 57.7751 238.26 55.522 236.457 53.112C236.107 52.642 235.932 52.0641 235.963 51.4787C235.994 50.8932 236.229 50.3371 236.627 49.9066C237.025 49.4762 237.561 49.1986 238.142 49.1219C238.723 49.0453 239.313 49.1744 239.809 49.487L239.885 49.536C242.245 51.036 244.626 52.614 246.949 54.028C248.123 54.72 249.269 55.416 250.395 55.958C250.911 56.2253 251.44 56.4643 251.982 56.674C252.323 56.8249 252.687 56.9152 253.059 56.941C253.112 56.941 253.05 56.867 252.681 56.88C252.566 56.8861 252.451 56.9012 252.338 56.925C252.264 56.9392 252.191 56.9579 252.12 56.981C252.051 57.004 252.149 56.962 252.155 56.956L252.486 56.786C252.93 56.5483 253.361 56.2852 253.775 55.998C254.668 55.3648 255.504 54.6555 256.275 53.878C258.018 52.045 259.655 50.1128 261.175 48.091L261.198 48.063C261.995 47.0247 263.168 46.3405 264.465 46.1576C265.761 45.9747 267.078 46.3076 268.131 47.0848C269.185 47.862 269.892 49.0215 270.1 50.3142C270.308 51.6068 270.001 52.9295 269.244 53.998H269.248Z" fill="white"/>
<path d="M232.691 47.463L233.863 49.429C233.863 49.429 234.758 52.045 236.549 52.529L241.406 50.956L241.163 50.548H241.17C240.548 49.602 240.615 47.776 240.834 46.257C241.053 44.738 240.264 44.684 239.682 45.062C239.267 45.5364 238.976 46.106 238.835 46.72C238.599 46.3884 238.337 46.0761 238.051 45.786L236.568 44.309C236.26 44.0019 235.846 43.824 235.411 43.8117C234.976 43.7994 234.553 43.9537 234.228 44.243L233.028 45.311C232.73 45.5743 232.533 45.9334 232.472 46.3263C232.41 46.7192 232.488 47.1212 232.691 47.463Z" fill="#31C1BF"/>
<path opacity="0.7" d="M232.691 47.463L233.863 49.429C233.863 49.429 234.758 52.045 236.549 52.529L241.406 50.956L241.163 50.548H241.17C240.548 49.602 240.615 47.776 240.834 46.257C241.053 44.738 240.264 44.684 239.682 45.062C239.267 45.5364 238.976 46.106 238.835 46.72C238.599 46.3884 238.337 46.0761 238.051 45.786L236.568 44.309C236.26 44.0019 235.846 43.824 235.411 43.8117C234.976 43.7994 234.553 43.9537 234.228 44.243L233.028 45.311C232.73 45.5743 232.533 45.9334 232.472 46.3263C232.41 46.7192 232.488 47.1212 232.691 47.463Z" fill="white"/>
<path d="M278.08 40.271C272.685 41.6942 267.518 43.8717 262.731 46.739C261.986 47.206 261.401 47.8898 261.056 48.6987C260.711 49.5075 260.621 50.4027 260.799 51.264C262.723 60.703 267.113 73.349 271.853 81.393L293.964 72.246C294.116 68.346 288.748 55.726 283.28 43.528C282.297 41.335 280.416 39.705 278.08 40.271Z" fill="#31C1BF"/>
<path opacity="0.8" d="M278.08 40.271C272.685 41.6942 267.518 43.8717 262.731 46.739C261.986 47.206 261.401 47.8898 261.056 48.6987C260.711 49.5075 260.621 50.4027 260.799 51.264C262.723 60.703 267.113 73.349 271.853 81.393L293.964 72.246C294.116 68.346 288.748 55.726 283.28 43.528C282.297 41.335 280.416 39.705 278.08 40.271Z" fill="white"/>
<path opacity="0.3" d="M286.706 51.261L282.319 49.79C283.3 52.356 286.852 55.61 289.348 57.522C288.521 55.516 287.629 53.419 286.706 51.261Z" fill="#31C1BF"/>
<path d="M276.623 30.367C274.798 26.887 270.849 25.134 266.107 25.53C262.107 25.864 258.563 29.946 258.984 32.151C259.405 34.356 262.768 35.292 263.378 36.058L260.605 38.068C260.277 38.3048 260.001 38.6055 259.792 38.9518C259.584 39.2982 259.447 39.6832 259.391 40.0836C259.335 40.484 259.361 40.8916 259.466 41.282C259.572 41.6723 259.755 42.0373 260.005 42.355C261.171 43.837 262.705 45.385 263.605 46.478C271.269 46.278 276.937 43.355 278.98 40.542C278.248 36.963 278.438 33.829 276.623 30.367Z" fill="#31C1BF"/>
<path opacity="0.8" d="M276.623 30.367C274.798 26.887 270.849 25.134 266.107 25.53C262.107 25.864 258.563 29.946 258.984 32.151C259.405 34.356 262.768 35.292 263.378 36.058L260.605 38.068C260.277 38.3048 260.001 38.6055 259.792 38.9518C259.584 39.2982 259.447 39.6832 259.391 40.0836C259.335 40.484 259.361 40.8916 259.466 41.282C259.572 41.6723 259.755 42.0373 260.005 42.355C261.171 43.837 262.705 45.385 263.605 46.478C271.269 46.278 276.937 43.355 278.98 40.542C278.248 36.963 278.438 33.829 276.623 30.367Z" fill="white"/>
<path d="M272.867 32.523C273.412 33.9181 273.53 35.4434 273.208 36.906C272.886 38.3686 272.137 39.7028 271.057 40.7399C269.976 41.7771 268.612 42.4705 267.138 42.7327C265.663 42.9948 264.144 42.8138 262.772 42.2126C261.401 41.6114 260.238 40.617 259.431 39.3551C258.625 38.0932 258.211 36.6204 258.241 35.1231C258.271 33.6257 258.745 32.171 259.602 30.9428C260.459 29.7146 261.661 28.7681 263.056 28.223C263.983 27.8609 264.971 27.6849 265.966 27.7051C266.96 27.7253 267.941 27.9412 268.852 28.3405C269.763 28.7398 270.587 29.3147 271.276 30.0323C271.965 30.75 272.505 31.5963 272.867 32.523Z" fill="#1B2022"/>
<path d="M337.794 122.647C337.683 119.359 337.541 119.688 337.445 116.883C337.388 115.183 337.38 113.294 337.369 111.66C337.364 110.887 337.092 110.139 336.601 109.543C336.109 108.946 335.427 108.537 334.669 108.384C333.343 108.115 332.015 107.859 330.692 107.577C328.966 107.209 327.26 106.813 325.565 106.321C324.25 105.939 322.95 105.516 321.665 105.053C320.286 104.553 318.924 104.012 317.576 103.434C316.001 102.758 314.444 102.034 312.898 101.296C311.173 100.468 309.461 99.612 307.755 98.745C301.173 87.845 301.032 80.671 293.969 72.245L278.809 79.103C278.809 79.103 289.948 98.868 297.534 107.247C301.9 112.071 308.752 114.247 314.861 115.822C319.269 116.96 323.739 117.831 328.215 118.653C329.954 118.972 331.846 119.096 333.343 120.135C334.452 120.987 335.212 122.215 335.48 123.587C335.551 123.864 335.611 124.144 335.665 124.425C335.819 125.264 337.862 124.632 337.794 122.647Z" fill="#31C1BF"/>
<path opacity="0.8" d="M337.794 122.647C337.683 119.359 337.541 119.688 337.445 116.883C337.388 115.183 337.38 113.294 337.369 111.66C337.364 110.887 337.092 110.139 336.601 109.543C336.109 108.946 335.427 108.537 334.669 108.384C333.343 108.115 332.015 107.859 330.692 107.577C328.966 107.209 327.26 106.813 325.565 106.321C324.25 105.939 322.95 105.516 321.665 105.053C320.286 104.553 318.924 104.012 317.576 103.434C316.001 102.758 314.444 102.034 312.898 101.296C311.173 100.468 309.461 99.612 307.755 98.745C301.173 87.845 301.032 80.671 293.969 72.245L278.809 79.103C278.809 79.103 289.948 98.868 297.534 107.247C301.9 112.071 308.752 114.247 314.861 115.822C319.269 116.96 323.739 117.831 328.215 118.653C329.954 118.972 331.846 119.096 333.343 120.135C334.452 120.987 335.212 122.215 335.48 123.587C335.551 123.864 335.611 124.144 335.665 124.425C335.819 125.264 337.862 124.632 337.794 122.647Z" fill="white"/>
<path opacity="0.3" d="M330.106 107.447C329.506 107.316 328.906 107.183 328.3 107.04C328.347 110.493 326.727 116.457 326.133 118.264L328.033 118.625C329.281 115.024 329.98 111.256 330.106 107.447Z" fill="#31C1BF"/>
<path opacity="0.3" d="M337.367 111.657C337.362 110.883 337.091 110.135 336.6 109.537C336.108 108.939 335.425 108.529 334.667 108.376C334.353 108.312 334.029 108.245 333.713 108.19C333.871 109.327 334.452 110.363 335.34 111.09C335.92 111.623 336.615 112.014 337.372 112.233C337.369 112.031 337.368 111.847 337.367 111.657Z" fill="#31C1BF"/>
<path d="M271.452 32.587C271.852 34.103 270.159 35.697 268.801 34.387C267.542 33.0355 266.165 31.7995 264.685 30.694C263.293 29.824 265.149 28.307 267.335 28.894C268.269 29.1292 269.133 29.5883 269.85 30.2317C270.567 30.8752 271.117 31.6835 271.452 32.587Z" fill="white"/>
<path d="M271.567 80.907C270.862 81.166 272.15 82.363 272.15 82.363C272.15 82.363 286.12 77.576 294.65 72.647C294.672 72.3487 294.621 72.0496 294.503 71.7748C294.385 71.5001 294.203 71.2576 293.972 71.068C286.694 74.7658 279.214 78.0507 271.567 80.907Z" fill="#31C1BF"/>
<path opacity="0.5" d="M271.567 80.907C270.862 81.166 272.15 82.363 272.15 82.363C272.15 82.363 286.12 77.576 294.65 72.647C294.672 72.3487 294.621 72.0496 294.503 71.7748C294.385 71.5001 294.203 71.2576 293.972 71.068C286.694 74.7658 279.214 78.0507 271.567 80.907Z" fill="white"/>
<path d="M281.866 39.61C284.624 41.002 287.221 42.478 289.813 44.11C291.104 44.923 292.389 45.758 293.655 46.659C294.931 47.542 296.19 48.473 297.455 49.521L297.929 49.909L298.52 50.442C298.886 50.7716 299.232 51.1225 299.556 51.493C299.88 51.844 300.148 52.183 300.41 52.519C300.672 52.855 300.942 53.195 301.176 53.527C302.11 54.8188 302.973 56.1605 303.762 57.546C305.299 60.2213 306.625 63.0128 307.727 65.895C307.932 66.4395 307.942 67.0381 307.756 67.5893C307.57 68.1404 307.198 68.6101 306.705 68.9185C306.211 69.2269 305.627 69.355 305.049 69.2811C304.472 69.2072 303.939 68.9358 303.539 68.513L303.49 68.46C301.48 66.332 299.553 64.087 297.614 62.002C295.714 59.923 293.702 57.788 292.077 56.861C289.807 55.445 287.277 54.038 284.768 52.654L277.205 48.454L277.187 48.444C276.036 47.812 275.18 46.7526 274.803 45.4947C274.427 44.2368 274.56 42.8813 275.175 41.721C275.79 40.5606 276.836 39.6886 278.088 39.2933C279.34 38.8979 280.698 39.0109 281.867 39.608L281.866 39.61Z" fill="#31C1BF"/>
<path opacity="0.8" d="M281.866 39.61C284.624 41.002 287.221 42.478 289.813 44.11C291.104 44.923 292.389 45.758 293.655 46.659C294.931 47.542 296.19 48.473 297.455 49.521L297.929 49.909L298.52 50.442C298.886 50.7716 299.232 51.1225 299.556 51.493C299.88 51.844 300.148 52.183 300.41 52.519C300.672 52.855 300.942 53.195 301.176 53.527C302.11 54.8188 302.973 56.1605 303.762 57.546C305.299 60.2213 306.625 63.0128 307.727 65.895C307.932 66.4395 307.942 67.0381 307.756 67.5893C307.57 68.1404 307.198 68.6101 306.705 68.9185C306.211 69.2269 305.627 69.355 305.049 69.2811C304.472 69.2072 303.939 68.9358 303.539 68.513L303.49 68.46C301.48 66.332 299.553 64.087 297.614 62.002C295.714 59.923 293.702 57.788 292.077 56.861C289.807 55.445 287.277 54.038 284.768 52.654L277.205 48.454L277.187 48.444C276.036 47.812 275.18 46.7526 274.803 45.4947C274.427 44.2368 274.56 42.8813 275.175 41.721C275.79 40.5606 276.836 39.6886 278.088 39.2933C279.34 38.8979 280.698 39.0109 281.867 39.608L281.866 39.61Z" fill="white"/>
<path d="M310.14 70.7849L309.291 68.6599C309.291 68.6599 308.816 65.9349 307.123 65.1769L302.083 65.9699L302.259 66.4099H302.252C302.718 67.4419 302.365 69.2359 301.912 70.7009C301.459 72.1659 302.228 72.3449 302.862 72.0619C303.228 71.8999 303.572 71.2529 303.962 70.5619C304.143 70.9264 304.353 71.2758 304.59 71.6069L305.823 73.2989C306.079 73.65 306.46 73.8901 306.887 73.9704C307.315 74.0506 307.757 73.965 308.123 73.7309L309.477 72.8639C309.813 72.6492 310.063 72.3238 310.184 71.9441C310.305 71.5645 310.289 71.1544 310.14 70.7849Z" fill="#31C1BF"/>
<path opacity="0.8" d="M310.14 70.7849L309.291 68.6599C309.291 68.6599 308.816 65.9349 307.123 65.1769L302.083 65.9699L302.259 66.4099H302.252C302.718 67.4419 302.365 69.2359 301.912 70.7009C301.459 72.1659 302.228 72.3449 302.862 72.0619C303.228 71.8999 303.572 71.2529 303.962 70.5619C304.143 70.9264 304.353 71.2758 304.59 71.6069L305.823 73.2989C306.079 73.65 306.46 73.8901 306.887 73.9704C307.315 74.0506 307.757 73.965 308.123 73.7309L309.477 72.8639C309.813 72.6492 310.063 72.3238 310.184 71.9441C310.305 71.5645 310.289 71.1544 310.14 70.7849Z" fill="white"/>
<path opacity="0.3" d="M277.642 51.104L276.424 51.204L268.938 69.288C269.347 69.3183 269.758 69.2845 270.157 69.188C270.157 69.188 279.917 65.55 282.871 64.217C280.882 60.098 277.642 51.104 277.642 51.104Z" fill="#31C1BF"/>
<path d="M263.974 55.847C264.874 60.5699 266.552 65.1109 268.938 69.285C272.594 68.025 278.699 65.648 281.652 64.314C279.683 60.0365 277.938 55.6596 276.424 51.201C273.275 51.413 266.412 53.998 263.974 55.847Z" fill="white"/>
<path opacity="0.3" d="M271.406 59.76C271.26 60.2486 270.972 60.6828 270.578 61.0077C270.185 61.3326 269.705 61.5337 269.197 61.5854C268.69 61.6372 268.178 61.5373 267.728 61.2985C267.277 61.0596 266.907 60.6925 266.665 60.2435C266.423 59.7946 266.32 59.2839 266.368 58.7762C266.416 58.2684 266.614 57.7863 266.936 57.3909C267.258 56.9954 267.69 56.7044 268.178 56.5546C268.665 56.4047 269.186 56.4028 269.675 56.549C270 56.6462 270.302 56.8063 270.564 57.0202C270.827 57.2342 271.045 57.4978 271.206 57.7959C271.366 58.0941 271.467 58.421 271.501 58.7581C271.536 59.0951 271.503 59.4355 271.406 59.76Z" fill="#31C1BF"/>
<path opacity="0.6" d="M273.319 56.315C273.271 56.4751 273.177 56.6174 273.048 56.7238C272.919 56.8303 272.762 56.8962 272.595 56.9131C272.429 56.9301 272.261 56.8973 272.114 56.8191C271.966 56.7408 271.845 56.6205 271.766 56.4734C271.686 56.3263 271.653 56.1589 271.668 55.9926C271.684 55.8262 271.749 55.6683 271.854 55.5387C271.96 55.4091 272.102 55.3138 272.261 55.2647C272.421 55.2157 272.592 55.2151 272.752 55.263C272.858 55.2947 272.957 55.3471 273.044 55.4172C273.13 55.4873 273.201 55.5737 273.254 55.6714C273.306 55.7691 273.339 55.8762 273.35 55.9867C273.362 56.0971 273.351 56.2087 273.319 56.315Z" fill="#31C1BF"/>
<path opacity="0.6" d="M275.551 55.447C275.503 55.6074 275.409 55.75 275.28 55.8568C275.151 55.9635 274.993 56.0296 274.827 56.0467C274.66 56.0638 274.492 56.0311 274.344 55.9527C274.196 55.8744 274.075 55.7539 273.996 55.6065C273.916 55.4592 273.882 55.2915 273.898 55.1249C273.914 54.9582 273.979 54.8 274.085 54.6703C274.191 54.5406 274.333 54.4452 274.493 54.3962C274.653 54.3472 274.824 54.3468 274.984 54.395C275.09 54.4268 275.189 54.4793 275.275 54.5494C275.361 54.6195 275.433 54.7059 275.485 54.8036C275.538 54.9012 275.571 55.0083 275.582 55.1187C275.593 55.2291 275.583 55.3407 275.551 55.447Z" fill="#31C1BF"/>
<path opacity="0.5" d="M278.697 63.234L269.451 66.889L268.892 65.07L278.139 61.415L278.697 63.234Z" fill="#31C1BF"/>
<path opacity="0.2" d="M227.663 202.217C227.641 208.04 227.079 213.848 225.983 219.567C224.803 224.707 222.97 228.467 220.483 230.847C219.325 231.997 217.949 232.905 216.437 233.517C214.924 234.13 213.305 234.436 211.673 234.417C206.533 234.417 202.61 231.614 199.903 226.007C199.427 225 199.023 223.961 198.693 222.897C192.976 227.816 187.653 233.176 182.773 238.927L177.463 245.187C180.321 248.083 183.618 250.51 187.233 252.377C193.463 255.597 201.636 257.21 211.753 257.217C213.533 257.217 215.253 257.167 216.923 257.067C223.047 248.001 228.113 238.265 232.023 228.047L246.873 189.327L227.663 202.217Z" fill="#1B2022"/>
<path d="M93.794 255.005L111.294 272.505L160.304 226.337C143.441 219.928 110.565 238.235 93.794 255.005Z" fill="#1B2022"/>
<path d="M154.828 316.039L137.328 298.539L183.495 249.529C189.906 266.392 171.599 299.268 154.828 316.039Z" fill="#1B2022"/>
<path d="M221.806 205.747L240.896 168.937L204.087 188.028C192.261 194.162 181.343 201.905 171.643 211.037L108.896 270.107L139.726 300.937L198.797 238.19C207.928 228.49 215.672 217.572 221.806 205.747Z" fill="#31C1BF"/>
<path opacity="0.6" d="M221.806 205.747L240.896 168.937L204.087 188.028C192.261 194.162 181.343 201.905 171.643 211.037L108.896 270.107L139.726 300.937L198.797 238.19C207.928 228.49 215.672 217.572 221.806 205.747Z" fill="white"/>
<path d="M182.603 240.129C189.727 240.129 195.502 234.354 195.502 227.23C195.502 220.106 189.727 214.331 182.603 214.331C175.479 214.331 169.704 220.106 169.704 227.23C169.704 234.354 175.479 240.129 182.603 240.129Z" fill="white"/>
<path d="M182.603 235.515C187.179 235.515 190.888 231.806 190.888 227.23C190.888 222.654 187.179 218.945 182.603 218.945C178.027 218.945 174.318 222.654 174.318 227.23C174.318 231.806 178.027 235.515 182.603 235.515Z" fill="#31C1BF"/>
<path opacity="0.3" d="M150.152 289.863L119.971 259.682L144.682 236.419L173.415 265.147L150.152 289.863Z" fill="#31C1BF"/>
<path d="M100.626 282.663C78.021 284.502 70.532 298.969 67.979 318.202C66.679 328.011 66.099 337.935 57.863 343.677C57.3646 344.012 56.9889 344.5 56.7924 345.068C56.5959 345.635 56.5895 346.251 56.774 346.823C56.9586 347.394 57.3241 347.89 57.8153 348.235C58.3065 348.581 58.8968 348.757 59.497 348.737C89.836 347.79 103.987 332.937 105.764 326.712C105.3 329.956 104.464 333.135 103.272 336.187C103.047 336.729 103 337.329 103.139 337.899C103.277 338.47 103.594 338.981 104.044 339.359C104.493 339.737 105.051 339.962 105.636 340.002C106.222 340.041 106.805 339.893 107.301 339.578C115.819 334.242 126.501 324.423 127.21 308.5C120.913 299.647 100.626 282.663 100.626 282.663Z" fill="#31C1BF"/>
<path opacity="0.2" d="M100.626 282.663C78.021 284.502 70.532 298.969 67.979 318.202C66.679 328.011 66.099 337.935 57.863 343.677C57.3646 344.012 56.9889 344.5 56.7924 345.068C56.5959 345.635 56.5895 346.251 56.774 346.823C56.9586 347.394 57.3241 347.89 57.8153 348.235C58.3065 348.581 58.8968 348.757 59.497 348.737C89.836 347.79 103.987 332.937 105.764 326.712C105.3 329.956 104.464 333.135 103.272 336.187C103.047 336.729 103 337.329 103.139 337.899C103.277 338.47 103.594 338.981 104.044 339.359C104.493 339.737 105.051 339.962 105.636 340.002C106.222 340.041 106.805 339.893 107.301 339.578C115.819 334.242 126.501 324.423 127.21 308.5C120.913 299.647 100.626 282.663 100.626 282.663Z" fill="white"/>
<path d="M130.682 315.347L94.482 279.147L113.764 274.975L134.849 296.06L130.682 315.347Z" fill="#31C1BF"/>
</g>
<defs>
<clipPath id="clip0_1116_2046">
<rect width="420.812" height="390.094" fill="white"/>
</clipPath>
</defs>
</svg>
