<svg width="143" height="40" viewBox="0 0 143 40" fill="none" xmlns="http://www.w3.org/2000/svg">
    <path d="M38.7475 22.752V24H33.2995V15.6H34.6315V22.752H38.7475ZM45.1325 20.772V21.3H40.6685C40.6685 21.852 40.8285 22.288 41.1485 22.608C41.4685 22.92 41.9045 23.076 42.4565 23.076C43.2165 23.076 43.7165 22.784 43.9565 22.2H45.0725C44.9205 22.784 44.6005 23.252 44.1125 23.604C43.6325 23.956 43.0485 24.132 42.3605 24.132C41.4885 24.132 40.7885 23.848 40.2605 23.28C39.7405 22.704 39.4805 21.94 39.4805 20.988C39.4805 20.02 39.7485 19.24 40.2845 18.648C40.8285 18.056 41.5365 17.76 42.4085 17.76C43.2325 17.76 43.8925 18.036 44.3885 18.588C44.8845 19.132 45.1325 19.86 45.1325 20.772ZM43.5125 19.236C43.2405 18.956 42.8645 18.816 42.3845 18.816C41.9045 18.816 41.5085 18.956 41.1965 19.236C40.8925 19.516 40.7205 19.896 40.6805 20.376H43.9205C43.9205 19.896 43.7845 19.516 43.5125 19.236ZM51.257 19.74V24H50.045V23.076C49.597 23.78 48.929 24.132 48.041 24.132C47.425 24.132 46.937 23.968 46.577 23.64C46.225 23.304 46.049 22.856 46.049 22.296C46.049 21.68 46.233 21.248 46.601 21C46.985 20.736 47.437 20.564 47.957 20.484L49.265 20.28C49.505 20.248 49.693 20.18 49.829 20.076C49.965 19.964 50.033 19.788 50.033 19.548C50.033 19.036 49.657 18.78 48.905 18.78C48.049 18.78 47.553 19.124 47.417 19.812H46.217C46.289 19.18 46.569 18.68 47.057 18.312C47.545 17.944 48.181 17.76 48.965 17.76C49.701 17.76 50.265 17.928 50.657 18.264C51.057 18.592 51.257 19.084 51.257 19.74ZM49.997 21.408V20.964C49.773 21.036 49.489 21.1 49.145 21.156L48.449 21.264C48.145 21.312 47.877 21.4 47.645 21.528C47.413 21.664 47.297 21.9 47.297 22.236C47.297 22.5 47.385 22.704 47.561 22.848C47.745 22.992 48.001 23.064 48.329 23.064C48.817 23.064 49.217 22.912 49.529 22.608C49.841 22.304 49.997 21.904 49.997 21.408ZM56.2559 17.82V19.044H56.0159C54.8159 19.044 54.2159 19.68 54.2159 20.952V24H52.9439V17.88H54.2039V18.852C54.5159 18.164 55.0839 17.82 55.9079 17.82H56.2559ZM62.5894 20.04V24H61.3294V20.172C61.3294 19.78 61.2214 19.468 61.0054 19.236C60.7894 19.004 60.4934 18.888 60.1174 18.888C59.6454 18.888 59.2694 19.052 58.9894 19.38C58.7174 19.708 58.5814 20.156 58.5814 20.724V24H57.3094V17.88H58.5814V18.792C58.7894 18.432 59.0414 18.172 59.3374 18.012C59.6334 17.844 60.0054 17.76 60.4534 17.76C61.1414 17.76 61.6694 17.956 62.0374 18.348C62.4054 18.732 62.5894 19.296 62.5894 20.04ZM75.9716 15.6V24H74.7236V17.328L72.2636 24H71.0156L68.5676 17.328V24H67.3556V15.6H69.1676L71.6636 22.428L74.1596 15.6H75.9716ZM83.4272 20.952C83.4272 21.92 83.1592 22.692 82.6232 23.268C82.0872 23.844 81.3552 24.132 80.4272 24.132C79.4992 24.132 78.7672 23.844 78.2312 23.268C77.6952 22.692 77.4272 21.92 77.4272 20.952C77.4272 19.992 77.6992 19.22 78.2432 18.636C78.7872 18.052 79.5152 17.76 80.4272 17.76C81.3392 17.76 82.0672 18.052 82.6112 18.636C83.1552 19.22 83.4272 19.992 83.4272 20.952ZM79.1432 19.464C78.8472 19.824 78.6992 20.32 78.6992 20.952C78.6992 21.584 78.8512 22.08 79.1552 22.44C79.4672 22.8 79.8992 22.98 80.4512 22.98C80.9952 22.98 81.4152 22.8 81.7112 22.44C82.0072 22.08 82.1552 21.584 82.1552 20.952C82.1552 20.32 81.9992 19.824 81.6872 19.464C81.3832 19.096 80.9592 18.912 80.4152 18.912C79.8712 18.912 79.4472 19.096 79.1432 19.464ZM88.0676 17.82V19.044H87.8276C86.6276 19.044 86.0276 19.68 86.0276 20.952V24H84.7556V17.88H86.0156V18.852C86.3276 18.164 86.8956 17.82 87.7196 17.82H88.0676ZM94.2359 20.772V21.3H89.7719C89.7719 21.852 89.9319 22.288 90.2519 22.608C90.5719 22.92 91.0079 23.076 91.5599 23.076C92.3199 23.076 92.8199 22.784 93.0599 22.2H94.1759C94.0239 22.784 93.7039 23.252 93.2159 23.604C92.7359 23.956 92.1519 24.132 91.4639 24.132C90.5919 24.132 89.8919 23.848 89.3639 23.28C88.8439 22.704 88.5839 21.94 88.5839 20.988C88.5839 20.02 88.8519 19.24 89.3879 18.648C89.9319 18.056 90.6399 17.76 91.5119 17.76C92.3359 17.76 92.9959 18.036 93.4919 18.588C93.9879 19.132 94.2359 19.86 94.2359 20.772ZM92.6159 19.236C92.3439 18.956 91.9679 18.816 91.4879 18.816C91.0079 18.816 90.6119 18.956 90.2999 19.236C89.9959 19.516 89.8239 19.896 89.7839 20.376H93.0239C93.0239 19.896 92.8879 19.516 92.6159 19.236Z"
          fill="white"/>
    <path d="M101 16L105 20L101 24" stroke="white" stroke-linecap="round" stroke-linejoin="round"/>
    <rect x="1" y="1" width="141" height="38" rx="19" stroke="#31C1BF" stroke-width="2"/>
</svg>
