<svg width="52" height="52" viewBox="0 0 52 52" fill="none" xmlns="http://www.w3.org/2000/svg">
    <path d="M20.2335 46.2712C23.8843 47.1762 27.5732 47.1724 31.2241 46.239C35.6798 45.0979 38.5624 42.3013 39.7697 37.8398C40.6819 34.4645 40.7101 31.0471 40.0789 27.6287C39.4541 24.2644 37.9411 21.4279 34.9749 19.5246C34.7097 19.3533 34.6754 19.1289 34.6704 18.8468C34.6463 16.9111 34.6015 14.9765 34.5798 13.0412C34.5378 8.81252 31.0727 5.20595 26.9015 5.06102C22.3575 4.90527 18.6803 8.16124 18.3401 12.5726C18.2011 14.3628 18.2615 16.1498 18.2325 17.9385C18.2237 18.4325 18.0741 18.6968 17.6039 18.9224C15.0044 20.167 13.1889 22.1563 12.0969 24.8263C11.1436 27.1535 10.9092 29.5953 10.8335 32.1466C10.893 33.5714 10.969 35.0676 11.2574 36.5454C12.255 41.6292 15.1366 45.0044 20.2335 46.2712ZM23.3472 13.171C23.4033 11.3576 24.7406 10.0371 26.4707 10.0259C28.1943 10.0144 29.565 11.3326 29.6624 13.1226C29.6967 13.7717 29.668 14.4261 29.668 15.0782H29.6348C29.6348 15.7552 29.6169 16.4316 29.6413 17.1074C29.6565 17.5196 29.4808 17.5988 29.1174 17.5404C27.3451 17.2553 25.5646 17.15 23.7758 17.3896C23.3901 17.4418 23.3346 17.2606 23.3382 16.9414C23.3472 15.6845 23.3094 14.4256 23.3472 13.171ZM22.894 26.9385C24.1759 25.3619 26.4736 25.0932 28.0945 26.3322C29.7143 27.5668 30.0596 29.8666 28.8681 31.506C28.7974 31.6034 28.739 31.7283 28.6401 31.7829C27.6868 32.3156 27.7842 33.1211 27.9778 34.0149C28.243 35.2149 28.4113 36.4369 28.6516 37.6434C28.7501 38.1356 28.6668 38.3556 28.1063 38.3227C27.3841 38.2817 26.6572 38.3134 25.9312 38.3134C25.1829 38.3125 24.4326 38.2902 23.6843 38.3207C23.2273 38.3392 23.0909 38.1937 23.1575 37.737C23.3769 36.2319 23.5373 34.7171 23.7878 33.2185C23.8729 32.7043 23.7075 32.4578 23.3387 32.1449C21.7764 30.8161 21.6005 28.5322 22.894 26.9385Z" fill="#1B2022"/>
</svg>
