<svg width="32" height="32" viewBox="0 0 32 32" fill="none" xmlns="http://www.w3.org/2000/svg">
<path d="M10.3329 9C14.3828 9 17.6656 12.1211 17.6656 15.9709C17.6656 19.8207 14.3825 22.9415 10.3329 22.9415C6.28329 22.9415 3 19.8207 3 15.9709C3 12.1211 6.28304 9 10.3329 9ZM22.043 9.40834C24.068 9.40834 25.7095 12.3462 25.7095 15.9709H25.7097C25.7097 19.5946 24.0682 22.5334 22.0433 22.5334C20.0183 22.5334 18.3768 19.5946 18.3768 15.9709C18.3768 12.3471 20.0181 9.40834 22.043 9.40834ZM27.7105 10.0919C28.4225 10.0919 29 12.724 29 15.9709C29 19.2169 28.4228 21.8499 27.7105 21.8499C26.9982 21.8499 26.4213 19.2176 26.4213 15.9709C26.4213 12.7242 26.9985 10.0919 27.7105 10.0919Z" fill="black"/>
</svg>
