<svg width="20" height="12" viewBox="0 0 20 12" fill="none" xmlns="http://www.w3.org/2000/svg">
<path d="M5.74968 0.75C8.78708 0.75 11.2492 3.09082 11.2492 5.97817C11.2492 8.86551 8.78689 11.2062 5.74968 11.2062C2.71247 11.2062 0.25 8.86551 0.25 5.97817C0.25 3.09082 2.71228 0.75 5.74968 0.75ZM14.5323 1.05625C16.051 1.05625 17.2821 3.25965 17.2821 5.97817H17.2823C17.2823 8.69598 16.0512 10.9001 14.5325 10.9001C13.0138 10.9001 11.7826 8.69598 11.7826 5.97817C11.7826 3.26035 13.0136 1.05625 14.5323 1.05625ZM18.7829 1.56891C19.3169 1.56891 19.75 3.54297 19.75 5.97817C19.75 8.41266 19.3171 10.3874 18.7829 10.3874C18.2487 10.3874 17.8159 8.41319 17.8159 5.97817C17.8159 3.54314 18.2489 1.56891 18.7829 1.56891Z" fill="#707E85"/>
</svg>
