<svg width="52" height="44" viewBox="0 0 52 44" fill="none" xmlns="http://www.w3.org/2000/svg">
<path d="M51.4289 1.47159C51.4289 1.14773 51.1078 0.823864 50.7867 0.5C50.1445 0.5 49.5022 0.5 48.86 0.5C48.86 0.5 3.90484 16.6932 1.33597 18.6364C0.372644 19.2841 0.372644 19.608 0.0515359 19.608C-0.269573 20.9034 1.01486 21.5511 1.01486 21.5511L12.5748 25.4375C12.8959 25.4375 12.8959 25.4375 13.217 25.4375C15.7859 23.8182 39.869 8.59659 41.1534 7.94886C41.4745 7.94886 41.4745 7.94886 41.4745 7.94886C40.8323 9.89205 20.2814 28.3523 20.2814 28.6761C20.2814 28.6761 19.9603 29 20.2814 29L19.318 40.3352C19.318 40.3352 18.9969 43.8977 22.5291 40.3352C25.098 37.7443 27.3458 35.8011 28.6302 34.8295C32.4835 37.7443 36.979 40.6591 38.9057 42.2784C39.5479 42.9261 40.5112 43.25 41.1534 43.25C42.1167 43.25 43.0801 42.2784 43.4012 41.3068C43.4012 41.3068 51.75 7.94886 51.75 3.41477C51.75 3.09091 51.75 2.76705 51.75 2.44318C51.4289 2.11932 51.4289 1.79545 51.4289 1.47159Z" fill="white"/>
</svg>
