<svg width="32" height="32" viewBox="0 0 32 32" fill="none" xmlns="http://www.w3.org/2000/svg">
<path d="M28 8.19231C27.1375 8.63077 26.275 8.77692 25.2688 8.92308C26.275 8.33846 26.9937 7.46154 27.2812 6.29231C26.4188 6.87692 25.4125 7.16923 24.2625 7.46154C23.4 6.58462 22.1063 6 20.8125 6C18.3687 6 16.2125 8.19231 16.2125 10.8231C16.2125 11.2615 16.2125 11.5538 16.3562 11.8462C12.475 11.7 8.88125 9.8 6.58125 6.87692C6.15 7.60769 6.00625 8.33846 6.00625 9.36154C6.00625 10.9692 6.86875 12.4308 8.1625 13.3077C7.44375 13.3077 6.725 13.0154 6.00625 12.7231C6.00625 15.0615 7.5875 16.9615 9.74375 17.4C9.3125 17.5462 8.88125 17.5462 8.45 17.5462C8.1625 17.5462 7.875 17.5462 7.5875 17.4C8.1625 19.3 9.8875 20.7615 12.0438 20.7615C10.4625 22.0769 8.45 22.8077 6.15 22.8077C5.71875 22.8077 5.43125 22.8077 5 22.8077C7.15625 24.1231 9.6 25 12.1875 25C20.8125 25 25.5562 17.6923 25.5562 11.4077C25.5562 11.2615 25.5562 10.9692 25.5562 10.8231C26.5625 10.0923 27.425 9.21538 28 8.19231Z" fill="#1B2022"/>
</svg>
