<svg width="52" height="44" viewBox="0 0 52 44" fill="none" xmlns="http://www.w3.org/2000/svg">
<path d="M52 5.43269C50.0594 6.41923 48.1188 6.74808 45.8547 7.07692C48.1188 5.76154 49.7359 3.78846 50.3828 1.15769C48.4422 2.47308 46.1781 3.13077 43.5906 3.78846C41.65 1.81538 38.7391 0.5 35.8281 0.5C30.3297 0.5 25.4781 5.43269 25.4781 11.3519C25.4781 12.3385 25.4781 12.9962 25.8016 13.6538C17.0687 13.325 8.98281 9.05 3.80781 2.47308C2.8375 4.11731 2.51406 5.76154 2.51406 8.06346C2.51406 11.6808 4.45469 14.9692 7.36563 16.9423C5.74844 16.9423 4.13125 16.2846 2.51406 15.6269C2.51406 20.8885 6.07188 25.1635 10.9234 26.15C9.95313 26.4788 8.98281 26.4788 8.0125 26.4788C7.36563 26.4788 6.71875 26.4788 6.07187 26.15C7.36562 30.425 11.2469 33.7135 16.0984 33.7135C12.5406 36.6731 8.0125 38.3173 2.8375 38.3173C1.86719 38.3173 1.22031 38.3173 0.25 38.3173C5.10156 41.2769 10.6 43.25 16.4219 43.25C35.8281 43.25 46.5016 26.8077 46.5016 12.6673C46.5016 12.3385 46.5016 11.6808 46.5016 11.3519C48.7656 9.70769 50.7063 7.73462 52 5.43269Z" fill="white"/>
</svg>
