<svg width="18" height="15" viewBox="0 0 18 15" fill="none" xmlns="http://www.w3.org/2000/svg">
<path d="M18 2.14423C17.3531 2.47308 16.7063 2.58269 15.9516 2.69231C16.7063 2.25385 17.2453 1.59615 17.4609 0.719231C16.8141 1.15769 16.0594 1.37692 15.1969 1.59615C14.55 0.938462 13.5797 0.5 12.6094 0.5C10.7766 0.5 9.15938 2.14423 9.15938 4.11731C9.15938 4.44615 9.15938 4.66538 9.26719 4.88462C6.35625 4.775 3.66094 3.35 1.93594 1.15769C1.6125 1.70577 1.50469 2.25385 1.50469 3.02115C1.50469 4.22692 2.15156 5.32308 3.12188 5.98077C2.58281 5.98077 2.04375 5.76154 1.50469 5.54231C1.50469 7.29615 2.69063 8.72115 4.30781 9.05C3.98438 9.15962 3.66094 9.15962 3.3375 9.15962C3.12188 9.15962 2.90625 9.15962 2.69062 9.05C3.12187 10.475 4.41563 11.5712 6.03281 11.5712C4.84688 12.5577 3.3375 13.1058 1.6125 13.1058C1.28906 13.1058 1.07344 13.1058 0.75 13.1058C2.36719 14.0923 4.2 14.75 6.14062 14.75C12.6094 14.75 16.1672 9.26923 16.1672 4.55577C16.1672 4.44615 16.1672 4.22692 16.1672 4.11731C16.9219 3.56923 17.5688 2.91154 18 2.14423Z" fill="#707E85"/>
</svg>
