<svg width="118" height="26" viewBox="0 0 118 26" fill="none" xmlns="http://www.w3.org/2000/svg">
<rect width="118" height="26" rx="13" fill="#FFFACF"/>
<circle cx="12" cy="13" r="4" fill="#FFB400"/>
<path d="M35.712 8.6L33.432 17H32.04L30.06 10.304L28.056 17H26.676L24.396 8.6H25.812L27.42 15.188L29.388 8.6H30.768L32.736 15.2L34.344 8.6H35.712ZM41.613 13.772V14.3H37.149C37.149 14.852 37.309 15.288 37.629 15.608C37.949 15.92 38.385 16.076 38.937 16.076C39.697 16.076 40.197 15.784 40.437 15.2H41.553C41.401 15.784 41.081 16.252 40.593 16.604C40.113 16.956 39.529 17.132 38.841 17.132C37.969 17.132 37.269 16.848 36.741 16.28C36.221 15.704 35.961 14.94 35.961 13.988C35.961 13.02 36.229 12.24 36.765 11.648C37.309 11.056 38.017 10.76 38.889 10.76C39.713 10.76 40.373 11.036 40.869 11.588C41.365 12.132 41.613 12.86 41.613 13.772ZM39.993 12.236C39.721 11.956 39.345 11.816 38.865 11.816C38.385 11.816 37.989 11.956 37.677 12.236C37.373 12.516 37.201 12.896 37.161 13.376H40.401C40.401 12.896 40.265 12.516 39.993 12.236ZM50.4624 12.74V17H49.2504V16.076C48.8024 16.78 48.1344 17.132 47.2464 17.132C46.6304 17.132 46.1424 16.968 45.7824 16.64C45.4304 16.304 45.2544 15.856 45.2544 15.296C45.2544 14.68 45.4384 14.248 45.8064 14C46.1904 13.736 46.6424 13.564 47.1624 13.484L48.4704 13.28C48.7104 13.248 48.8984 13.18 49.0344 13.076C49.1704 12.964 49.2384 12.788 49.2384 12.548C49.2384 12.036 48.8624 11.78 48.1104 11.78C47.2544 11.78 46.7584 12.124 46.6224 12.812H45.4224C45.4944 12.18 45.7744 11.68 46.2624 11.312C46.7504 10.944 47.3864 10.76 48.1704 10.76C48.9064 10.76 49.4704 10.928 49.8624 11.264C50.2624 11.592 50.4624 12.084 50.4624 12.74ZM49.2024 14.408V13.964C48.9784 14.036 48.6944 14.1 48.3504 14.156L47.6544 14.264C47.3504 14.312 47.0824 14.4 46.8504 14.528C46.6184 14.664 46.5024 14.9 46.5024 15.236C46.5024 15.5 46.5904 15.704 46.7664 15.848C46.9504 15.992 47.2064 16.064 47.5344 16.064C48.0224 16.064 48.4224 15.912 48.7344 15.608C49.0464 15.304 49.2024 14.904 49.2024 14.408ZM55.4613 10.82V12.044H55.2213C54.0213 12.044 53.4213 12.68 53.4213 13.952V17H52.1493V10.88H53.4093V11.852C53.7213 11.164 54.2893 10.82 55.1133 10.82H55.4613ZM61.6296 13.772V14.3H57.1656C57.1656 14.852 57.3256 15.288 57.6456 15.608C57.9656 15.92 58.4016 16.076 58.9536 16.076C59.7136 16.076 60.2136 15.784 60.4536 15.2H61.5696C61.4176 15.784 61.0976 16.252 60.6096 16.604C60.1296 16.956 59.5456 17.132 58.8576 17.132C57.9856 17.132 57.2856 16.848 56.7576 16.28C56.2376 15.704 55.9776 14.94 55.9776 13.988C55.9776 13.02 56.2456 12.24 56.7816 11.648C57.3256 11.056 58.0336 10.76 58.9056 10.76C59.7296 10.76 60.3896 11.036 60.8856 11.588C61.3816 12.132 61.6296 12.86 61.6296 13.772ZM60.0096 12.236C59.7376 11.956 59.3616 11.816 58.8816 11.816C58.4016 11.816 58.0056 11.956 57.6936 12.236C57.3896 12.516 57.2176 12.896 57.1776 13.376H60.4176C60.4176 12.896 60.2816 12.516 60.0096 12.236ZM70.971 13.04V17H69.711V13.172C69.711 12.78 69.603 12.468 69.387 12.236C69.171 12.004 68.875 11.888 68.499 11.888C68.027 11.888 67.651 12.052 67.371 12.38C67.099 12.708 66.963 13.156 66.963 13.724V17H65.691V8.468H66.963V11.84C67.171 11.456 67.419 11.18 67.707 11.012C68.003 10.844 68.379 10.76 68.835 10.76C69.523 10.76 70.051 10.956 70.419 11.348C70.787 11.732 70.971 12.296 70.971 13.04ZM72.574 9.812V8.348H73.93V9.812H72.574ZM72.61 17V10.88H73.882V17H72.61ZM78.9058 10.82V12.044H78.6658C77.4658 12.044 76.8658 12.68 76.8658 13.952V17H75.5938V10.88H76.8538V11.852C77.1658 11.164 77.7338 10.82 78.5578 10.82H78.9058ZM79.8753 9.812V8.348H81.2313V9.812H79.8753ZM79.9113 17V10.88H81.1833V17H79.9113ZM88.1751 13.04V17H86.9151V13.172C86.9151 12.78 86.8071 12.468 86.5911 12.236C86.3751 12.004 86.0791 11.888 85.7031 11.888C85.2311 11.888 84.8551 12.052 84.5751 12.38C84.3031 12.708 84.1671 13.156 84.1671 13.724V17H82.8951V10.88H84.1671V11.792C84.3751 11.432 84.6271 11.172 84.9231 11.012C85.2191 10.844 85.5911 10.76 86.0391 10.76C86.7271 10.76 87.2551 10.956 87.6231 11.348C87.9911 11.732 88.1751 12.296 88.1751 13.04ZM94.1101 10.88H95.3101V16.628C95.3101 17.508 95.0541 18.196 94.5421 18.692C94.0381 19.188 93.3261 19.436 92.4061 19.436C91.5901 19.436 90.9221 19.24 90.4021 18.848C89.8901 18.464 89.5901 17.932 89.5021 17.252H90.7501C90.8141 17.62 90.9901 17.904 91.2781 18.104C91.5661 18.312 91.9421 18.416 92.4061 18.416C92.9581 18.416 93.3781 18.276 93.6661 17.996C93.9621 17.724 94.1101 17.324 94.1101 16.796V15.692C93.9421 16.028 93.6821 16.288 93.3301 16.472C92.9781 16.648 92.5741 16.736 92.1181 16.736C91.2941 16.736 90.6421 16.468 90.1621 15.932C89.6821 15.396 89.4421 14.668 89.4421 13.748C89.4421 12.844 89.6821 12.12 90.1621 11.576C90.6421 11.032 91.2941 10.76 92.1181 10.76C92.5821 10.76 92.9901 10.852 93.3421 11.036C93.6941 11.212 93.9501 11.468 94.1101 11.804V10.88ZM94.0501 13.736C94.0501 13.152 93.9021 12.692 93.6061 12.356C93.3101 12.012 92.9061 11.84 92.3941 11.84C91.8821 11.84 91.4741 12.012 91.1701 12.356C90.8661 12.7 90.7141 13.16 90.7141 13.736C90.7141 14.32 90.8621 14.788 91.1581 15.14C91.4621 15.484 91.8741 15.656 92.3941 15.656C92.9061 15.656 93.3101 15.484 93.6061 15.14C93.9021 14.796 94.0501 14.328 94.0501 13.736ZM101.5 8.6V11.936L101.224 14.516H100.396L100.132 11.936V8.6H101.5ZM100.084 17V15.5H101.536V17H100.084ZM104.94 8.6V11.936L104.664 14.516H103.836L103.572 11.936V8.6H104.94ZM103.524 17V15.5H104.976V17H103.524ZM108.38 8.6V11.936L108.104 14.516H107.276L107.012 11.936V8.6H108.38ZM106.964 17V15.5H108.416V17H106.964Z" fill="#1B2022"/>
</svg>
