<svg width="328" height="228" viewBox="0 0 328 228" fill="none" xmlns="http://www.w3.org/2000/svg">
    <path fill-rule="evenodd" clip-rule="evenodd" d="M85.9188 18.8663C84.0301 20.8718 77.7084 23.1284 72.2793 23.7354L70.0728 23.982L70.2834 27.9665C70.5371 32.7765 71.5834 36.9063 73.5681 40.9351C76.0793 46.0329 81.0186 51.4723 85.5572 54.1385L86.8857 54.9189L89.4288 53.2173C90.8274 52.2818 92.9987 50.4774 94.2541 49.2082L96.5367 46.9004L95.1018 46.7808C93.9652 46.6862 93.5038 46.8477 92.8829 47.5574C91.9111 48.6681 87.3736 52.3196 86.9648 52.3196C86.7999 52.3196 86.665 45.1696 86.665 36.4309V20.5425L88.2063 21.5131C89.0544 22.0468 90.4878 22.7995 91.3917 23.1864L93.0358 23.889V22.81C93.0358 21.9246 92.8173 21.6585 91.8178 21.3278C91.1478 21.1058 89.7304 20.2663 88.6673 19.4621L86.735 18L85.9188 18.8663ZM94.5348 21.2231C94.5348 22.1186 94.6828 22.2658 95.5654 22.2509C96.4059 22.2371 96.6177 22.0442 96.7144 21.2059C96.8212 20.2824 96.7166 20.1781 95.6838 20.1781C94.6757 20.1781 94.5348 20.306 94.5348 21.2231ZM99.7813 23.4981C99.7813 24.3244 99.9815 24.614 100.639 24.7392C101.972 24.9934 102.405 24.6921 102.405 23.5108C102.405 22.514 102.292 22.4206 101.093 22.4206C99.8971 22.4206 99.7813 22.5159 99.7813 23.4981ZM91.162 25.9711C91.162 27.2481 91.1976 27.2792 92.661 27.2792C94.1244 27.2792 94.16 27.2481 94.16 25.9711C94.16 24.694 94.1244 24.663 92.661 24.663C91.1976 24.663 91.162 24.694 91.162 25.9711ZM95.2794 24.9743C95.0759 25.0431 94.9095 26.0099 94.9095 27.1233V29.1478H97.3454H99.7813V27.127V25.1059L97.7153 24.9781C96.5787 24.9074 95.4825 24.9059 95.2794 24.9743ZM108.401 25.9711C108.401 26.6561 108.6 26.9054 109.15 26.9054C109.7 26.9054 109.9 26.6561 109.9 25.9711C109.9 25.286 109.7 25.0367 109.15 25.0367C108.6 25.0367 108.401 25.286 108.401 25.9711ZM104.653 26.9054C104.653 27.7758 105.955 27.9556 106.274 27.1289C106.526 26.4723 106.224 26.1579 105.34 26.1579C104.903 26.1579 104.653 26.4296 104.653 26.9054ZM153.746 28.5177C153.024 28.7457 151.643 29.7197 150.676 30.682C146.598 34.7412 146.872 41.6561 151.263 45.5015C152.953 46.9811 154.875 47.5851 157.254 47.3836C159.914 47.1582 161.81 46.1566 163.326 44.1762C169.098 36.6383 162.446 25.7674 153.746 28.5177ZM89.7567 28.7016C88.5811 28.8175 88.5387 28.8799 88.5387 30.5V32.1788L90.3188 32.0649L92.0989 31.9509L92.2117 30.4111C92.3369 28.7065 92.0108 28.4796 89.7567 28.7016ZM195.718 28.548C195.718 28.6538 194.622 32.7922 193.282 37.7438C191.943 42.6954 190.846 46.8342 190.846 46.9407C190.846 47.0472 191.392 47.082 192.058 47.0173L193.271 46.9004L195.145 40.0927C196.175 36.3486 197.12 33.4055 197.244 33.5523C197.434 33.7784 199.071 39.6315 200.584 45.4988C200.988 47.0667 201.015 47.0872 202.651 47.0872C204.287 47.0872 204.314 47.0663 204.719 45.4988C204.945 44.6251 205.282 43.4059 205.469 42.7893C205.656 42.1726 206.244 39.9862 206.776 37.9307C207.307 35.8751 207.84 33.941 207.958 33.6327C208.077 33.3244 209.052 36.1834 210.125 39.9862L212.076 46.9004L213.266 47.0173C213.92 47.082 214.456 47.0431 214.456 46.931C214.456 46.8193 213.971 44.9166 213.378 42.7029C212.785 40.4893 211.765 36.66 211.11 34.1933C210.456 31.7266 209.83 29.405 209.72 29.0338C209.566 28.5132 209.209 28.385 208.157 28.4732L206.793 28.5872L205.184 34.3802C204.299 37.5663 203.398 40.8208 203.183 41.6124C202.966 42.4039 202.681 42.9432 202.548 42.8113C202.416 42.679 201.457 39.4245 200.418 35.5791L198.529 28.5872L197.124 28.4714C196.351 28.4075 195.718 28.4418 195.718 28.548ZM242.187 29.8019L242.188 31.0165H245.56H248.933V39.0519V47.0872H250.057H251.182V39.0519V31.0165H254.555H257.927V29.9099V28.8029L250.057 28.6952L242.187 28.5872L242.187 29.8019ZM118.295 29.3997C116.036 30.5236 115.193 33.639 116.535 35.905C117.577 37.6631 119.316 38.2566 124.081 38.4793C128.033 38.6643 128.383 38.7432 129.081 39.6039C130.019 40.7602 129.783 42.8588 128.607 43.817C127.926 44.3724 126.993 44.4711 122.412 44.4711H117.02V45.7792V47.0872L121.798 47.0783C127.821 47.0671 129.233 46.7497 130.792 45.0571C131.889 43.866 132.01 43.5072 132.01 41.4494C132.01 39.3628 131.903 39.0567 130.775 37.9318C129.209 36.3703 127.42 35.88 123.28 35.8774C120.281 35.8755 119.901 35.7921 119.064 34.9576C117.957 33.8539 117.914 33.2515 118.86 32.0858C119.546 31.24 119.81 31.1985 125.23 31.0831L130.886 30.9627V29.8684V28.7741L125.171 28.798C120.804 28.8163 119.182 28.958 118.295 29.3997ZM133.942 35.7817C134.057 42.0175 134.155 42.932 134.834 44.0843C136.075 46.1903 137.486 46.7677 141.952 46.9949L145.876 47.1945V45.833V44.4711H142.666C136.81 44.4711 136.526 44.054 136.515 35.4079L136.507 28.7741H135.16H133.814L133.942 35.7817ZM167.621 29.0544C167.626 29.2088 168.699 33.287 170.006 38.1175L172.383 46.9004H173.805H175.226L177.133 39.9219C178.183 36.0837 179.153 32.8336 179.289 32.6995C179.424 32.5649 179.618 32.7623 179.72 33.1375C179.821 33.5127 180.711 36.8046 181.698 40.4534L183.492 47.0872H184.833H186.174L188.638 37.9307L191.102 28.7741H189.864C188.725 28.7741 188.593 28.8993 188.205 30.3625C187.251 33.9537 185.179 41.3328 184.979 41.8549C184.78 42.3725 183.956 39.7452 181.846 31.8574L181.021 28.7741H179.235C177.519 28.7741 177.439 28.8219 177.207 29.9887C176.771 32.1721 173.89 42.2612 173.744 42.1154C173.52 41.8923 170.235 29.899 170.235 29.3052C170.235 28.9475 169.807 28.7741 168.923 28.7741C168.202 28.7741 167.616 28.9001 167.621 29.0544ZM218.203 37.9307V47.0872H219.328H220.452V37.9307V28.7741H219.328H218.203V37.9307ZM226.522 29.3994C224.435 30.4253 223.564 33.3281 224.639 35.68C225.505 37.5767 227.263 38.2334 232.132 38.4797C237.29 38.7409 237.89 39.0616 237.825 41.5212C237.757 44.1011 237.348 44.2674 230.745 44.4038L224.949 44.5238V45.8446V47.1657L230.868 47.033C235.791 46.9228 236.961 46.7867 237.819 46.2261C239.46 45.1531 240.311 43.4261 240.312 41.1635C240.314 39.3991 240.168 39.019 239.078 37.9318C237.513 36.3703 235.724 35.88 231.584 35.8774C228.585 35.8755 228.204 35.7921 227.368 34.9576C226.261 33.8539 226.218 33.2515 227.163 32.0858C227.85 31.24 228.113 31.1985 233.534 31.0831L239.19 30.9627V29.8684V28.7741L233.475 28.7827C228.966 28.7894 227.498 28.9195 226.522 29.3994ZM100.076 30.9231C100.001 31.2826 100.008 31.9557 100.092 32.418C100.222 33.1394 100.478 33.2589 101.886 33.2589H103.529V31.764V30.269H101.87C100.592 30.269 100.18 30.4189 100.076 30.9231ZM160.117 31.7386C162.666 33.6973 163.735 37.5117 162.58 40.5285C160.739 45.3344 155.601 46.533 152.183 42.9537C146.539 37.0412 153.75 26.8471 160.117 31.7386ZM96.648 32.3971C96.226 32.8179 96.3913 33.2589 96.9707 33.2589C97.2799 33.2589 97.5328 33.1009 97.5328 32.9073C97.5328 32.436 96.9475 32.0985 96.648 32.3971ZM106.457 32.5346C106.384 32.7529 106.387 33.5938 106.465 34.4033L106.606 35.8751H108.44H110.274V34.0064V32.1377H108.432C107.418 32.1377 106.53 32.3164 106.457 32.5346ZM93.0358 36.6226V38.865H94.3474C95.6279 38.865 95.659 38.9005 95.659 40.36C95.659 41.7054 95.5654 41.8549 94.7222 41.8549C93.9727 41.8549 93.7853 42.0418 93.7853 42.7893C93.7853 43.5782 93.9603 43.7236 94.9095 43.7236H96.0338V41.2943V38.865H97.1581H98.2823V36.6226V34.3802H95.659H93.0358V36.6226ZM100.156 36.6226C100.156 37.1709 100.406 37.3701 101.093 37.3701C101.78 37.3701 102.03 37.1709 102.03 36.6226C102.03 36.0743 101.78 35.8751 101.093 35.8751C100.406 35.8751 100.156 36.0743 100.156 36.6226ZM103.973 37.246C104.067 38.0432 104.298 38.2521 105.122 38.2861C106.009 38.3231 106.152 38.1848 106.152 37.289C106.152 36.3774 106.01 36.2488 105.003 36.2488C103.978 36.2488 103.867 36.3569 103.973 37.246ZM91.162 40.1731C91.162 40.4814 91.415 40.7337 91.7241 40.7337C92.0333 40.7337 92.2863 40.4814 92.2863 40.1731C92.2863 39.8648 92.0333 39.6125 91.7241 39.6125C91.415 39.6125 91.162 39.8648 91.162 40.1731ZM103.248 40.2564C102.248 40.3801 102.03 40.5707 102.03 41.3178C102.03 42.1094 102.201 42.2286 103.341 42.2286C104.549 42.2286 104.653 42.1397 104.653 41.1074C104.653 40.4908 104.611 40.0131 104.559 40.046C104.508 40.0789 103.917 40.1738 103.248 40.2564ZM98.2823 43.5367C98.2823 44.8377 98.2913 44.8448 99.9687 44.8448C101.646 44.8448 101.655 44.8377 101.655 43.5367C101.655 42.2357 101.646 42.2286 99.9687 42.2286C98.2913 42.2286 98.2823 42.2357 98.2823 43.5367Z" fill="#1B2022"/>
    <mask id="path-3-outside-1_181_2472" maskUnits="userSpaceOnUse" x="95.4209" y="103.919" width="137" height="34" fill="black">
        <rect fill="white" x="95.4209" y="103.919" width="137" height="34"/>
        <path fill-rule="evenodd" clip-rule="evenodd" d="M105.984 106.424C103.307 107.246 101.037 107.994 100.94 108.086C100.576 108.429 100.832 109.166 101.316 109.166C101.416 109.166 103.665 108.505 106.313 107.697L111.127 106.228L116.103 107.748C118.88 108.597 121.162 109.243 121.266 109.209C121.739 109.059 121.879 108.279 121.471 108.065C121.152 107.898 111.236 104.907 111.041 104.919C110.936 104.926 108.661 105.603 105.984 106.424ZM97.0071 109.25C96.7033 109.496 96.5326 110.589 96.4421 112.867C96.1904 119.206 98.1858 125.367 102.037 130.14C103.403 131.834 105.6 133.837 107.486 135.11C108.649 135.895 110.884 137.151 111.117 137.151C111.593 137.151 114.863 135.133 116.478 133.843C117.583 132.961 119.505 131.045 120.33 130.002C122.677 127.04 124.486 123.171 125.237 119.508C125.716 117.168 125.836 115.749 125.773 113.171C125.71 110.626 125.551 109.453 125.238 109.216C125.019 109.05 124.707 109.026 124.499 109.157C124.421 109.207 123.12 111.809 121.609 114.941L118.861 120.634L111.311 120.627C107.158 120.624 103.731 120.587 103.694 120.546C103.657 120.505 102.338 117.949 100.763 114.867C99.1884 111.784 97.8168 109.217 97.7153 109.163C97.446 109.019 97.2645 109.041 97.0071 109.25ZM103.66 123.36C106.867 129.619 109.473 134.76 109.451 134.782C109.378 134.854 107.638 133.662 106.592 132.823C102.59 129.614 99.7949 125.262 98.5335 120.276C97.966 118.033 97.8014 116.749 97.7462 114.134C97.7196 112.879 97.7273 111.881 97.7633 111.915C97.7992 111.95 100.453 117.1 103.66 123.36ZM124.501 115.204C124.154 120.594 122.524 125.048 119.436 129.039C118.532 130.208 116.545 132.167 115.311 133.106C114.234 133.925 112.828 134.859 112.828 134.754C112.828 134.72 114.489 131.583 116.519 127.784C118.865 123.392 120.979 119.272 122.323 116.47L124.438 112.063L124.525 112.769C124.577 113.198 124.568 114.154 124.501 115.204ZM135.185 115.238C134.695 115.465 134.386 115.786 134.176 116.287C134.043 116.606 134.02 117.316 134.022 121.051C134.024 125.101 134.038 125.471 134.211 125.845C134.438 126.336 134.759 126.645 135.26 126.854C135.582 126.989 136.369 127.011 140.81 127.011H145.984V126.355V125.698L140.854 125.67L135.725 125.642L135.531 125.403C135.348 125.176 135.338 124.948 135.338 121.029C135.338 117.109 135.348 116.882 135.531 116.655L135.725 116.415L140.854 116.387L145.984 116.359V115.703V115.047L140.787 115.049C135.952 115.051 135.563 115.064 135.185 115.238ZM153.69 121.029V127.011H159.114H164.539V126.352V125.693H159.774H155.008V123.716V121.739H158.861H162.714V121.029V120.319H158.861H155.008V118.342V116.365H159.774H164.539V115.706V115.047H159.114H153.69V121.029ZM172.313 115.114C172.275 115.151 172.245 117.843 172.245 121.097V127.011H172.955H173.665V124.78V122.55L176.174 122.555L178.684 122.561L180.538 124.786L182.393 127.011H183.251C183.722 127.011 184.108 126.991 184.108 126.966C184.108 126.941 183.288 125.949 182.285 124.761L180.461 122.601L181.718 122.55C182.935 122.501 182.987 122.489 183.357 122.189C184.173 121.529 184.155 121.597 184.189 118.949C184.218 116.743 184.206 116.552 184.016 116.181C183.761 115.681 183.302 115.288 182.812 115.152C182.394 115.036 172.427 115 172.313 115.114ZM191.409 115.706V116.365H194.045H196.681V121.688V127.011H197.339H197.997L198.024 121.713L198.05 116.415L200.661 116.388L203.272 116.361V115.704V115.047H197.34H191.409V115.706ZM210.572 121.029V127.011H211.231H211.89V121.029V115.047H211.231H210.572V121.029ZM220.204 121.029V127.011H220.864H221.523V124.375V121.739L223.474 121.745L225.426 121.751L227.606 124.374L229.786 126.998L230.683 127.005L231.579 127.011L231.174 126.53C227.943 122.696 226.6 121.066 226.62 121.001C226.634 120.957 227.728 119.627 229.052 118.045C230.376 116.462 231.459 115.14 231.459 115.107C231.459 115.074 231.083 115.05 230.623 115.053L229.786 115.06L227.606 117.684L225.426 120.307L223.474 120.313L221.523 120.319V117.683V115.047H220.864H220.204V121.029ZM182.734 116.692C182.863 116.876 182.891 117.262 182.891 118.825C182.891 120.716 182.889 120.736 182.642 120.983L182.394 121.232H178.327C174.287 121.232 173.956 121.207 173.742 120.887C173.701 120.826 173.667 119.889 173.666 118.806C173.665 117.115 173.688 116.811 173.832 116.652C173.99 116.478 174.263 116.466 178.288 116.466H182.576L182.734 116.692ZM118.054 122.119C117.811 122.754 111.162 135.018 111.097 134.952C111.022 134.875 106.343 125.792 105.008 123.133L104.411 121.941H111.266C117.754 121.941 118.119 121.951 118.054 122.119Z"/>
    </mask>
    <path fill-rule="evenodd" clip-rule="evenodd" d="M105.984 106.424C103.307 107.246 101.037 107.994 100.94 108.086C100.576 108.429 100.832 109.166 101.316 109.166C101.416 109.166 103.665 108.505 106.313 107.697L111.127 106.228L116.103 107.748C118.88 108.597 121.162 109.243 121.266 109.209C121.739 109.059 121.879 108.279 121.471 108.065C121.152 107.898 111.236 104.907 111.041 104.919C110.936 104.926 108.661 105.603 105.984 106.424ZM97.0071 109.25C96.7033 109.496 96.5326 110.589 96.4421 112.867C96.1904 119.206 98.1858 125.367 102.037 130.14C103.403 131.834 105.6 133.837 107.486 135.11C108.649 135.895 110.884 137.151 111.117 137.151C111.593 137.151 114.863 135.133 116.478 133.843C117.583 132.961 119.505 131.045 120.33 130.002C122.677 127.04 124.486 123.171 125.237 119.508C125.716 117.168 125.836 115.749 125.773 113.171C125.71 110.626 125.551 109.453 125.238 109.216C125.019 109.05 124.707 109.026 124.499 109.157C124.421 109.207 123.12 111.809 121.609 114.941L118.861 120.634L111.311 120.627C107.158 120.624 103.731 120.587 103.694 120.546C103.657 120.505 102.338 117.949 100.763 114.867C99.1884 111.784 97.8168 109.217 97.7153 109.163C97.446 109.019 97.2645 109.041 97.0071 109.25ZM103.66 123.36C106.867 129.619 109.473 134.76 109.451 134.782C109.378 134.854 107.638 133.662 106.592 132.823C102.59 129.614 99.7949 125.262 98.5335 120.276C97.966 118.033 97.8014 116.749 97.7462 114.134C97.7196 112.879 97.7273 111.881 97.7633 111.915C97.7992 111.95 100.453 117.1 103.66 123.36ZM124.501 115.204C124.154 120.594 122.524 125.048 119.436 129.039C118.532 130.208 116.545 132.167 115.311 133.106C114.234 133.925 112.828 134.859 112.828 134.754C112.828 134.72 114.489 131.583 116.519 127.784C118.865 123.392 120.979 119.272 122.323 116.47L124.438 112.063L124.525 112.769C124.577 113.198 124.568 114.154 124.501 115.204ZM135.185 115.238C134.695 115.465 134.386 115.786 134.176 116.287C134.043 116.606 134.02 117.316 134.022 121.051C134.024 125.101 134.038 125.471 134.211 125.845C134.438 126.336 134.759 126.645 135.26 126.854C135.582 126.989 136.369 127.011 140.81 127.011H145.984V126.355V125.698L140.854 125.67L135.725 125.642L135.531 125.403C135.348 125.176 135.338 124.948 135.338 121.029C135.338 117.109 135.348 116.882 135.531 116.655L135.725 116.415L140.854 116.387L145.984 116.359V115.703V115.047L140.787 115.049C135.952 115.051 135.563 115.064 135.185 115.238ZM153.69 121.029V127.011H159.114H164.539V126.352V125.693H159.774H155.008V123.716V121.739H158.861H162.714V121.029V120.319H158.861H155.008V118.342V116.365H159.774H164.539V115.706V115.047H159.114H153.69V121.029ZM172.313 115.114C172.275 115.151 172.245 117.843 172.245 121.097V127.011H172.955H173.665V124.78V122.55L176.174 122.555L178.684 122.561L180.538 124.786L182.393 127.011H183.251C183.722 127.011 184.108 126.991 184.108 126.966C184.108 126.941 183.288 125.949 182.285 124.761L180.461 122.601L181.718 122.55C182.935 122.501 182.987 122.489 183.357 122.189C184.173 121.529 184.155 121.597 184.189 118.949C184.218 116.743 184.206 116.552 184.016 116.181C183.761 115.681 183.302 115.288 182.812 115.152C182.394 115.036 172.427 115 172.313 115.114ZM191.409 115.706V116.365H194.045H196.681V121.688V127.011H197.339H197.997L198.024 121.713L198.05 116.415L200.661 116.388L203.272 116.361V115.704V115.047H197.34H191.409V115.706ZM210.572 121.029V127.011H211.231H211.89V121.029V115.047H211.231H210.572V121.029ZM220.204 121.029V127.011H220.864H221.523V124.375V121.739L223.474 121.745L225.426 121.751L227.606 124.374L229.786 126.998L230.683 127.005L231.579 127.011L231.174 126.53C227.943 122.696 226.6 121.066 226.62 121.001C226.634 120.957 227.728 119.627 229.052 118.045C230.376 116.462 231.459 115.14 231.459 115.107C231.459 115.074 231.083 115.05 230.623 115.053L229.786 115.06L227.606 117.684L225.426 120.307L223.474 120.313L221.523 120.319V117.683V115.047H220.864H220.204V121.029ZM182.734 116.692C182.863 116.876 182.891 117.262 182.891 118.825C182.891 120.716 182.889 120.736 182.642 120.983L182.394 121.232H178.327C174.287 121.232 173.956 121.207 173.742 120.887C173.701 120.826 173.667 119.889 173.666 118.806C173.665 117.115 173.688 116.811 173.832 116.652C173.99 116.478 174.263 116.466 178.288 116.466H182.576L182.734 116.692ZM118.054 122.119C117.811 122.754 111.162 135.018 111.097 134.952C111.022 134.875 106.343 125.792 105.008 123.133L104.411 121.941H111.266C117.754 121.941 118.119 121.951 118.054 122.119Z" fill="#1B2022"/>
    <path fill-rule="evenodd" clip-rule="evenodd" d="M105.984 106.424C103.307 107.246 101.037 107.994 100.94 108.086C100.576 108.429 100.832 109.166 101.316 109.166C101.416 109.166 103.665 108.505 106.313 107.697L111.127 106.228L116.103 107.748C118.88 108.597 121.162 109.243 121.266 109.209C121.739 109.059 121.879 108.279 121.471 108.065C121.152 107.898 111.236 104.907 111.041 104.919C110.936 104.926 108.661 105.603 105.984 106.424ZM97.0071 109.25C96.7033 109.496 96.5326 110.589 96.4421 112.867C96.1904 119.206 98.1858 125.367 102.037 130.14C103.403 131.834 105.6 133.837 107.486 135.11C108.649 135.895 110.884 137.151 111.117 137.151C111.593 137.151 114.863 135.133 116.478 133.843C117.583 132.961 119.505 131.045 120.33 130.002C122.677 127.04 124.486 123.171 125.237 119.508C125.716 117.168 125.836 115.749 125.773 113.171C125.71 110.626 125.551 109.453 125.238 109.216C125.019 109.05 124.707 109.026 124.499 109.157C124.421 109.207 123.12 111.809 121.609 114.941L118.861 120.634L111.311 120.627C107.158 120.624 103.731 120.587 103.694 120.546C103.657 120.505 102.338 117.949 100.763 114.867C99.1884 111.784 97.8168 109.217 97.7153 109.163C97.446 109.019 97.2645 109.041 97.0071 109.25ZM103.66 123.36C106.867 129.619 109.473 134.76 109.451 134.782C109.378 134.854 107.638 133.662 106.592 132.823C102.59 129.614 99.7949 125.262 98.5335 120.276C97.966 118.033 97.8014 116.749 97.7462 114.134C97.7196 112.879 97.7273 111.881 97.7633 111.915C97.7992 111.95 100.453 117.1 103.66 123.36ZM124.501 115.204C124.154 120.594 122.524 125.048 119.436 129.039C118.532 130.208 116.545 132.167 115.311 133.106C114.234 133.925 112.828 134.859 112.828 134.754C112.828 134.72 114.489 131.583 116.519 127.784C118.865 123.392 120.979 119.272 122.323 116.47L124.438 112.063L124.525 112.769C124.577 113.198 124.568 114.154 124.501 115.204ZM135.185 115.238C134.695 115.465 134.386 115.786 134.176 116.287C134.043 116.606 134.02 117.316 134.022 121.051C134.024 125.101 134.038 125.471 134.211 125.845C134.438 126.336 134.759 126.645 135.26 126.854C135.582 126.989 136.369 127.011 140.81 127.011H145.984V126.355V125.698L140.854 125.67L135.725 125.642L135.531 125.403C135.348 125.176 135.338 124.948 135.338 121.029C135.338 117.109 135.348 116.882 135.531 116.655L135.725 116.415L140.854 116.387L145.984 116.359V115.703V115.047L140.787 115.049C135.952 115.051 135.563 115.064 135.185 115.238ZM153.69 121.029V127.011H159.114H164.539V126.352V125.693H159.774H155.008V123.716V121.739H158.861H162.714V121.029V120.319H158.861H155.008V118.342V116.365H159.774H164.539V115.706V115.047H159.114H153.69V121.029ZM172.313 115.114C172.275 115.151 172.245 117.843 172.245 121.097V127.011H172.955H173.665V124.78V122.55L176.174 122.555L178.684 122.561L180.538 124.786L182.393 127.011H183.251C183.722 127.011 184.108 126.991 184.108 126.966C184.108 126.941 183.288 125.949 182.285 124.761L180.461 122.601L181.718 122.55C182.935 122.501 182.987 122.489 183.357 122.189C184.173 121.529 184.155 121.597 184.189 118.949C184.218 116.743 184.206 116.552 184.016 116.181C183.761 115.681 183.302 115.288 182.812 115.152C182.394 115.036 172.427 115 172.313 115.114ZM191.409 115.706V116.365H194.045H196.681V121.688V127.011H197.339H197.997L198.024 121.713L198.05 116.415L200.661 116.388L203.272 116.361V115.704V115.047H197.34H191.409V115.706ZM210.572 121.029V127.011H211.231H211.89V121.029V115.047H211.231H210.572V121.029ZM220.204 121.029V127.011H220.864H221.523V124.375V121.739L223.474 121.745L225.426 121.751L227.606 124.374L229.786 126.998L230.683 127.005L231.579 127.011L231.174 126.53C227.943 122.696 226.6 121.066 226.62 121.001C226.634 120.957 227.728 119.627 229.052 118.045C230.376 116.462 231.459 115.14 231.459 115.107C231.459 115.074 231.083 115.05 230.623 115.053L229.786 115.06L227.606 117.684L225.426 120.307L223.474 120.313L221.523 120.319V117.683V115.047H220.864H220.204V121.029ZM182.734 116.692C182.863 116.876 182.891 117.262 182.891 118.825C182.891 120.716 182.889 120.736 182.642 120.983L182.394 121.232H178.327C174.287 121.232 173.956 121.207 173.742 120.887C173.701 120.826 173.667 119.889 173.666 118.806C173.665 117.115 173.688 116.811 173.832 116.652C173.99 116.478 174.263 116.466 178.288 116.466H182.576L182.734 116.692ZM118.054 122.119C117.811 122.754 111.162 135.018 111.097 134.952C111.022 134.875 106.343 125.792 105.008 123.133L104.411 121.941H111.266C117.754 121.941 118.119 121.951 118.054 122.119Z" stroke="#1B2022" stroke-width="0.6" mask="url(#path-3-outside-1_181_2472)"/>
    <path d="M116.088 199.146L115.999 206.3L111.18 206.273L111.406 187.989L121.647 188.045L121.617 190.494L116.195 190.463L116.117 196.759L121.538 196.789L121.647 188.045L126.537 188.072L126.398 199.201L116.088 199.146Z" fill="#1B2022"/>
    <path d="M141.913 201.481L132.949 201.431L132.916 204.102L142.433 204.155L141.418 206.376L128.238 206.304L128.398 193.457L137.362 193.507L137.333 195.852L133.02 195.837L132.979 199.08L137.292 199.104L137.362 193.508L142.012 193.534L141.913 201.481Z" fill="#1B2022"/>
    <path d="M144.334 206.426L144.494 193.579L158.155 193.655L157.283 195.939L149.092 195.894L148.989 204.161L157.977 204.21L156.985 206.495L144.334 206.426Z" fill="#1B2022"/>
    <path d="M169.628 199.154L174.765 206.591L169.56 206.563L164.658 199.667L164.574 206.536L159.923 206.51L160.149 188.226L164.8 188.251L164.678 198.109L169.262 193.713L175.021 193.745L169.628 199.154Z" fill="#1B2022"/>
    <path d="M193.197 206.724L176.788 206.634L176.818 204.249L188.311 204.313L188.412 196.204L193.326 196.231L193.197 206.724ZM181.926 190.699L181.858 196.168L188.412 196.204L188.383 198.548L176.939 198.495L177.064 188.351L194.002 188.444L193.058 190.76L181.926 190.699Z" fill="#1B2022"/>
    <path d="M200.483 196.175L200.352 206.733L195.701 206.707L195.927 188.423L200.578 188.448L200.51 193.886L204.871 193.91L204.843 196.192L200.483 196.175ZM209.386 206.781L204.713 206.756L204.873 193.909L209.546 193.935L209.386 206.781Z" fill="#1B2022"/>
    <path d="M215.964 206.817L211.313 206.792L211.473 193.945L216.124 193.971L215.964 206.817ZM211.541 188.507L216.192 188.533L216.144 192.476L211.493 192.451L211.541 188.507Z" fill="#1B2022"/>
    <path d="M231.566 202.005L222.603 201.956L222.569 204.626L232.086 204.679L231.071 206.9L217.892 206.828L218.051 193.981L227.015 194.031L226.986 196.376L222.673 196.361L222.633 199.605L226.946 199.629L227.015 194.033L231.666 194.058L231.566 202.005Z" fill="#1B2022"/>
    <path d="M238.782 206.943L233.988 206.917L234.214 188.633L239.008 188.658L238.782 206.943Z" fill="#1B2022"/>
    <path d="M254.717 188.744L254.491 207.029L240.709 206.953L240.869 194.107L250 194.157L249.971 196.438L245.489 196.422L245.387 204.688L249.869 204.713L250 194.155L250.068 188.717L254.717 188.744Z" fill="#1B2022"/>
    <path d="M97.2425 198.759C97.2425 198.759 98.4339 200.139 99.209 202.732C99.5272 203.797 93.3429 206.525 93.3429 206.525C93.3429 206.525 96.1779 204.078 93.5781 202.824C90.9783 201.571 88.1795 202.654 86.3231 195.5C86.0638 194.497 84.8347 194.101 84.2527 194.101C82.8819 194.101 78.2644 196.001 78.2644 196.001C78.2644 196.001 77.9734 196.48 77.7004 196.744C77.7004 196.744 77.4471 196.988 77.426 197.008C77.1515 197.272 76.6026 197.554 76.3296 197.537C76.0823 197.522 76.0552 197.537 75.7807 197.273C75.6073 197.108 75.5063 196.744 75.5063 196.48C75.5063 195.889 76.2557 195.591 76.6026 195.423C77.1515 195.159 77.7276 195.159 77.9734 195.423C77.993 195.444 78.2478 195.687 78.2192 195.687C78.2192 195.687 78.2192 195.951 79.0425 195.423C80.2715 194.633 83.001 193.479 83.4911 193.178C83.6238 193.096 83.7264 192.977 83.7822 192.834C83.9254 192.469 84.2662 191.71 84.8031 191.193C85.352 190.664 86.9972 189.607 89.1838 190.739C92.9749 192.701 93.3429 192.493 93.3429 192.493C93.3429 192.493 94.127 191.193 96.3211 188.815C98.3992 186.562 100.709 185.115 100.709 185.115L101.533 187.493C101.533 187.493 102.288 186.923 104.962 185.202C104.884 183.937 103.519 182.928 101.84 182.928C101.84 182.928 92.2933 178.81 89.1159 178.81C85.9386 178.81 76.4246 182.928 76.4246 182.928C74.698 182.928 73.2986 183.996 73.2986 185.312C73.2986 185.312 73.1417 199.558 74.6558 202.853C76.8092 207.534 89.1144 217.331 89.1144 217.331C89.1144 217.331 101.133 207.621 103.627 202.941C104.326 201.632 104.68 198.576 104.853 195.372C103.119 196.981 100.676 198.249 97.2425 198.759Z" fill="#1B2022"/>
</svg>
