<svg width="18" height="15" viewBox="0 0 18 15" fill="none" xmlns="http://www.w3.org/2000/svg">
<path d="M17.143 0.823864C17.143 0.715909 17.0359 0.607955 16.9289 0.5C16.7148 0.5 16.5007 0.5 16.2867 0.5C16.2867 0.5 1.30161 5.89773 0.445323 6.54545C0.124215 6.76136 0.124215 6.86932 0.0171786 6.86932C-0.0898575 7.30114 0.338287 7.51705 0.338287 7.51705L4.19159 8.8125C4.29862 8.8125 4.29862 8.8125 4.40566 8.8125C5.26195 8.27273 13.2897 3.19886 13.7178 2.98295C13.8248 2.98295 13.8248 2.98295 13.8248 2.98295C13.6108 3.63068 6.76046 9.78409 6.76046 9.89205C6.76046 9.89205 6.65342 10 6.76046 10L6.43935 13.7784C6.43935 13.7784 6.33231 14.9659 7.50971 13.7784C8.366 12.9148 9.11525 12.267 9.5434 11.9432C10.8278 12.9148 12.3263 13.8864 12.9686 14.4261C13.1826 14.642 13.5037 14.75 13.7178 14.75C14.0389 14.75 14.36 14.4261 14.4671 14.1023C14.4671 14.1023 17.25 2.98295 17.25 1.47159C17.25 1.36364 17.25 1.25568 17.25 1.14773C17.143 1.03977 17.143 0.931818 17.143 0.823864Z" fill="#707E85"/>
</svg>
