<svg width="456" height="250" viewBox="0 0 456 250" fill="none" xmlns="http://www.w3.org/2000/svg">
<g filter="url(#filter0_d_112_1209)">
<path d="M16 26C16 14.9543 24.9543 6 36 6H420C431.046 6 440 14.9543 440 26V224H16V26Z" fill="white"/>
<path d="M16.5 26C16.5 15.2304 25.2304 6.5 36 6.5H420C430.77 6.5 439.5 15.2304 439.5 26V223.5H16.5V26Z" stroke="#E7ECEF"/>
</g>
<path d="M57.5366 101.676L64.6145 89.7434L71.6923 101.676L64.6145 105.933L57.5366 101.676Z" fill="#707E85"/>
<path d="M64.6144 107.273L71.4655 102.883L64.6144 112.937L57.6016 102.883L64.6144 107.273Z" fill="#707E85"/>
<path d="M94.0163 107.84H85.4044V95.3074H93.6761V97.1515H87.3917V100.571H93.1927V102.433H87.3917V105.978H94.0163V107.84ZM105.261 95.3074V97.1515H101.018V107.84H99.0308V97.1515H94.8412V95.3074H105.261ZM117.153 95.3074V107.84H115.165V102.451H108.881V107.84H106.894V95.3074H108.881V100.607H115.165V95.3074H117.153ZM125.671 93.9824L120.461 109.38H118.689L123.899 93.9824H125.671Z" fill="#404B51"/>
<path d="M138.28 97.5861H139.496V104.222C139.496 105.482 139.135 106.444 138.412 107.108C137.689 107.772 136.732 108.104 135.541 108.104C134.35 108.104 133.388 107.767 132.655 107.093C131.923 106.419 131.556 105.462 131.556 104.222V97.5861H132.816V104.12C132.816 105.038 133.065 105.736 133.563 106.214C134.071 106.693 134.75 106.932 135.6 106.932C136.42 106.932 137.069 106.707 137.548 106.258C138.036 105.809 138.28 105.155 138.28 104.295V97.5861ZM145.135 108.104C144.041 108.104 143.103 107.787 142.322 107.152C141.541 106.517 141.136 105.628 141.106 104.486H142.454C142.464 105.287 142.732 105.897 143.26 106.317C143.797 106.737 144.441 106.947 145.193 106.947C145.857 106.947 146.395 106.79 146.805 106.478C147.225 106.165 147.435 105.75 147.435 105.233C147.435 104.793 147.293 104.447 147.01 104.193C146.707 103.929 146.404 103.748 146.102 103.651C145.721 103.534 145.252 103.407 144.695 103.27C144.031 103.114 143.475 102.938 143.025 102.743C141.951 102.264 141.414 101.458 141.414 100.325C141.414 99.3586 141.741 98.6213 142.395 98.1134C143.06 97.5958 143.909 97.337 144.944 97.337C145.97 97.337 146.824 97.5958 147.508 98.1134C148.182 98.6213 148.543 99.3488 148.592 100.296H147.303C147.283 99.7102 147.068 99.2609 146.658 98.9484C146.248 98.6359 145.691 98.4797 144.988 98.4797C144.275 98.4797 143.709 98.6359 143.289 98.9484C142.869 99.2512 142.659 99.6906 142.659 100.267C142.659 100.667 142.771 100.994 142.996 101.248C143.211 101.473 143.475 101.649 143.787 101.776C144.1 101.903 144.554 102.034 145.149 102.171C145.96 102.367 146.58 102.542 147.01 102.699C147.469 102.865 147.874 103.138 148.226 103.519C148.577 103.9 148.753 104.422 148.753 105.086C148.753 106.014 148.401 106.751 147.698 107.298C147.005 107.835 146.15 108.104 145.135 108.104ZM158.785 102.567C158.795 103.494 158.609 104.354 158.229 105.145C157.848 105.936 157.257 106.585 156.456 107.093C155.665 107.601 154.742 107.85 153.687 107.84H150.509V97.5861H153.775C155.348 97.5861 156.573 98.0597 157.452 99.007C158.341 99.9543 158.785 101.141 158.785 102.567ZM157.467 102.64C157.467 101.517 157.135 100.584 156.471 99.842C155.816 99.09 154.893 98.714 153.702 98.714H151.768V106.712H153.673C154.864 106.712 155.792 106.317 156.456 105.526C157.13 104.735 157.467 103.773 157.467 102.64ZM166.091 105.672C166.091 106.424 165.803 107 165.227 107.401C164.651 107.801 163.942 108.001 163.103 108.001C162.233 108.001 161.496 107.792 160.891 107.372C160.285 106.942 159.948 106.327 159.88 105.526H161.14C161.208 105.985 161.423 106.331 161.784 106.566C162.155 106.8 162.624 106.917 163.19 106.917C163.679 106.917 164.069 106.825 164.362 106.639C164.655 106.444 164.802 106.175 164.802 105.833C164.802 105.521 164.685 105.291 164.45 105.145C164.226 104.989 163.869 104.876 163.381 104.808C162.59 104.681 162.023 104.574 161.682 104.486C161.271 104.378 160.9 104.173 160.568 103.87C160.236 103.568 160.07 103.118 160.07 102.523C160.07 101.829 160.329 101.287 160.847 100.897C161.374 100.496 162.058 100.296 162.898 100.296C163.728 100.296 164.431 100.496 165.007 100.897C165.583 101.297 165.876 101.878 165.886 102.64H164.641C164.631 102.24 164.465 101.932 164.143 101.717C163.82 101.492 163.405 101.38 162.898 101.38C162.429 101.38 162.048 101.473 161.755 101.658C161.472 101.844 161.33 102.113 161.33 102.464C161.33 102.826 161.477 103.084 161.77 103.241C162.063 103.397 162.561 103.529 163.264 103.636C163.908 103.724 164.392 103.817 164.714 103.914C165.114 104.022 165.442 104.222 165.695 104.515C165.959 104.808 166.091 105.194 166.091 105.672Z" fill="#707E85"/>
<path d="M59.6215 62.059C59.6215 62.059 59.2573 62.7283 59.1861 62.8728C59.146 62.9461 59.125 63.0283 59.125 63.1119C59.125 63.1954 59.146 63.2776 59.1861 63.3509C59.2756 63.4832 59.4139 63.4038 59.5808 63.2248C59.7476 63.0457 59.9165 62.9013 59.8086 62.7589C59.7008 62.6164 59.6052 62.6388 59.6052 62.4944C59.6052 62.3499 59.6215 62.059 59.6215 62.059Z" fill="#707E85"/>
<path d="M62.8036 56.6285C62.6714 56.3315 62.3601 56.2827 62.3336 56.2216C62.3676 56.0808 62.4174 55.9443 62.4822 55.8147C62.5344 55.6461 62.5671 55.472 62.5798 55.2959C62.5798 55.2959 61.001 57.6621 60.9379 57.7516C60.8749 57.8412 60.763 57.9266 60.6449 57.831C60.5269 57.7354 60.5208 57.4241 60.5208 57.4241C60.4412 57.7058 60.4225 58.0013 60.4659 58.2908C60.4938 58.3829 60.556 58.4608 60.6397 58.5085C60.7233 58.5562 60.822 58.57 60.9155 58.5471C61.1719 58.4902 61.8799 58.0568 62.3865 57.7333C62.5741 57.6268 62.7185 57.4581 62.7947 57.2563C62.8709 57.0545 62.874 56.8324 62.8036 56.6285ZM61.2024 58.0792C61.2024 58.0792 61.705 57.3345 61.8311 57.1087L62.177 56.4983C62.177 56.4983 62.5045 56.7954 62.4761 57.0009C62.3926 57.6173 61.2024 58.0792 61.2024 58.0792Z" fill="#707E85"/>
<path d="M72.8403 54.2013C71.1373 52.1932 69.6704 51.7965 69.6704 51.7965C69.9303 51.7772 70.1911 51.7711 70.4517 51.7781C70.7876 51.7989 71.1219 51.8403 71.4527 51.9023C71.4527 51.9023 69.3225 50.0488 66.4456 49.9165C63.4792 49.7802 62.3418 50.8626 62.3418 50.8626C62.4316 50.66 62.5335 50.4629 62.647 50.2726C62.7797 50.0795 62.9224 49.8934 63.0743 49.7151C63.0743 49.7151 61.819 49.711 60.9522 50.2726C60.5743 50.5095 60.2481 50.8203 59.9933 51.1863C59.7384 51.5524 59.5601 51.9661 59.469 52.4028C59.3841 52.2311 59.3271 52.0471 59.3002 51.8575C59.2189 51.4895 59.0817 51.1361 58.8932 50.8097C58.8932 50.8097 58.3419 51.5523 58.1974 52.1627C57.994 53.003 58.3052 54.0528 58.3052 54.0528L54.1974 52.5635C54.174 52.5564 54.1489 52.5577 54.1263 52.5671C54.1036 52.5764 54.085 52.5934 54.0735 52.615C54.062 52.6366 54.0583 52.6615 54.0631 52.6855C54.0679 52.7095 54.0809 52.7311 54.0998 52.7466L58.7549 56.1728C58.6979 56.4406 58.6658 56.713 58.6593 56.9867C58.6694 57.1331 59.0051 57.7211 58.9889 57.9755C58.9645 58.3152 58.6552 60.8625 58.6287 61.1758C58.6104 61.3976 57.9655 62.4861 57.8922 62.7018C57.8202 62.9031 57.8202 63.1231 57.8922 63.3244C57.9985 63.7419 58.1535 64.1455 58.3541 64.5268C58.4134 64.6357 58.4938 64.7316 58.5905 64.8092C58.6873 64.8867 58.7985 64.9443 58.9177 64.9785C59.2376 65.0709 59.564 65.1389 59.8943 65.1819C60.1513 65.2088 60.4106 65.1608 60.6409 65.0436C60.7714 64.9186 60.941 64.8424 61.1211 64.8279C61.2717 64.8279 61.6358 64.8279 61.7315 64.8279C61.9533 64.8078 62.1649 64.7252 62.3418 64.5899C62.5779 64.3701 63.5626 63.4993 63.6867 63.3386C63.8323 63.1323 63.9195 62.8905 63.939 62.6387C63.9634 62.4475 63.9776 62.0161 63.9776 61.8493C64.0027 61.6511 64.0823 61.4637 64.2076 61.3081C64.3032 61.1881 65.351 59.8473 65.351 59.8473C65.7883 60.2535 66.1731 60.7128 66.4964 61.2145C67.0885 62.1118 67.3815 63.4037 67.0478 64.9235C66.6775 66.6021 65.2045 67.9408 62.9298 68.3233C62.2246 68.4307 61.5061 68.4163 60.8057 68.2806C62.0254 68.7483 63.3307 68.9508 64.6348 68.8747C65.4038 68.8244 66.155 68.621 66.8444 68.2765C66.7845 68.4272 66.6969 68.5652 66.586 68.6834C66.4303 68.8485 66.2623 69.0016 66.0834 69.1412C66.0834 69.1412 67.1984 69.0802 68.6389 68.2562C69.5004 67.7567 70.217 67.0414 70.7182 66.1809C70.7621 66.3816 70.7662 66.589 70.7304 66.7913C70.6938 67.0659 70.5697 67.5359 70.5697 67.5359C70.5697 67.5359 72.6449 66.1117 73.4771 63.9591C73.9214 62.7866 74.1202 61.5352 74.061 60.2827C74.1805 60.348 74.2884 60.4325 74.3804 60.5329C74.5074 60.6679 74.625 60.8113 74.7324 60.9622C74.7324 60.9622 75.1943 56.9663 72.8403 54.2013ZM58.9848 55.5441C58.7813 55.4221 55.9574 53.6866 55.9574 53.6866C55.9574 53.6866 59.054 54.8788 59.2717 54.9521C59.5362 55.0477 59.6399 55.2491 59.5443 55.4465C59.4487 55.6438 59.2147 55.6825 58.9848 55.5441ZM62.8546 63.2938C62.6796 63.4851 61.878 64.1728 61.878 64.1728L61.0947 64.1606C61.1307 64.0358 61.2013 63.9237 61.2981 63.8371C61.4894 63.6336 62.3337 62.9154 62.5494 62.7058C62.765 62.4963 62.6613 62.1626 62.5189 61.9815C62.3764 61.8005 61.8963 61.6235 61.7172 61.7557C61.4482 62.0348 61.2923 62.4038 61.2798 62.7913C61.3214 63.1019 61.242 63.4166 61.058 63.6702C60.7961 63.9646 60.5103 64.2368 60.2035 64.4841C60.1603 64.5231 60.1085 64.5516 60.0524 64.5671C59.9962 64.5827 59.9372 64.5849 59.88 64.5736C59.6001 64.5129 59.3273 64.4229 59.0662 64.305C58.8871 64.1911 58.7 63.5075 58.6593 63.3956C58.5874 63.2363 58.5586 63.0609 58.5758 62.8869C58.6104 62.7486 59.1496 61.8452 59.2452 61.6662C59.3408 61.4871 59.3246 61.3813 59.3653 61.0558C59.406 60.7303 59.6399 58.6693 59.6399 58.6693C59.7647 58.787 59.8772 58.9172 59.9756 59.0579C60.0613 59.2651 60.1161 59.4838 60.1384 59.7069C60.2701 59.4946 60.3522 59.2554 60.3785 59.007C60.3785 58.773 60.0977 58.1687 59.9716 57.8147C59.848 57.3134 59.8642 56.7877 60.0184 56.2949C60.1811 55.8107 60.7142 54.5126 60.7142 54.5126C60.7142 54.5126 60.8871 54.7751 61.0723 54.7812C61.2574 54.7873 61.6684 54.1383 62.2666 53.3244C62.8647 52.5106 63.764 51.2492 63.764 51.2492C63.9736 51.6037 64.0814 52.0092 64.0753 52.4211C64.0244 53.1528 63.6997 53.8386 63.1658 54.3417C62.9581 54.5271 62.7235 54.6801 62.47 54.7954C62.47 54.7954 63.2574 54.8341 63.585 54.6937C63.8119 54.5937 64.0264 54.4674 64.2238 54.3173C64.2238 54.3173 64.7752 55.7415 64.8647 55.945C64.8961 56.006 64.9125 56.0737 64.9125 56.1423C64.9125 56.211 64.8961 56.2786 64.8647 56.3397C64.8281 56.4841 64.1038 58.0691 64.1038 58.0691C64.1038 58.0691 63.3774 58.2725 63.29 58.2929C63.2427 58.3089 63.1998 58.3356 63.1645 58.3709C63.1293 58.4062 63.1026 58.4491 63.0865 58.4963C63.0458 58.598 62.2381 60.7343 62.2381 60.7343C62.0745 60.7557 61.9153 60.8024 61.7661 60.8727C61.6349 60.9807 61.5339 61.1209 61.4731 61.2796C61.4731 61.2796 62.3235 61.0294 62.6592 61.2267C62.9949 61.4241 63.3713 62.0039 63.3652 62.3274C63.3591 62.6509 63.0275 63.0904 62.8546 63.2938ZM61.7193 62.3905C61.6826 62.0589 62.0245 61.9958 62.2157 62.1341C62.2492 62.1619 62.2757 62.1971 62.293 62.237C62.3103 62.2768 62.318 62.3202 62.3154 62.3636C62.3128 62.407 62.3001 62.4492 62.2782 62.4867C62.2562 62.5243 62.2258 62.5561 62.1893 62.5797C61.9907 62.7515 61.8019 62.9342 61.6236 63.127C61.6896 62.8844 61.7218 62.6338 61.7193 62.3823V62.3905ZM68.3642 59.7862C68.5232 59.0596 68.5623 58.3119 68.4802 57.5726C68.7863 57.946 69.0446 58.356 69.2492 58.7934C69.524 59.4312 69.6851 60.1122 69.7253 60.8056V60.8523L70.2502 61.422V62.7323L69.4771 63.2104V63.2674C69.4771 63.2674 69.4771 64.1504 68.5921 65.1636C68.2245 65.5516 67.8345 65.9178 67.4242 66.2602C68.0081 65.5665 68.8606 64.2948 68.9624 62.7099C69.0478 61.3813 68.3072 60.0751 68.3642 59.7781V59.7862ZM69.7782 64.6224C69.2553 65.2653 68.2299 65.9876 67.5504 66.4291C67.9717 66.0789 68.3713 65.7031 68.7467 65.304C69.5605 64.3701 69.6663 63.5563 69.6806 63.3325L70.4476 62.8523V61.3508L69.9125 60.773C69.8689 60.0662 69.703 59.3722 69.4222 58.7221C69.1645 58.1731 68.8272 57.6651 68.4212 57.2145L68.4028 57.1901C68.3122 56.7678 68.1505 56.364 67.9247 55.9958C67.6216 55.5236 67.2356 55.11 66.7854 54.7751C66.7854 54.7751 67.3489 55.7761 67.3367 56.7629C67.319 57.2181 67.1489 57.6543 66.8538 58.0014C66.5587 58.3486 66.1556 58.5866 65.7091 58.6774C65.3043 58.7322 64.8967 58.7642 64.4883 58.773L63.2778 60.6998C63.1512 60.679 63.0234 60.666 62.8952 60.6611C62.6918 60.6611 62.4883 60.6753 62.4883 60.6753L63.3266 58.5045L64.2727 58.24L64.6796 57.2837L65.1821 57.2715C65.1821 57.2715 65.5585 56.5594 65.6012 56.3966C65.644 56.2339 65.5402 56.1159 65.4629 55.9368C65.3856 55.7578 64.6857 53.9348 64.6857 53.9348L65.115 53.3794C65.115 53.3794 67.4324 53.4933 69.1841 55.1616C70.4579 56.3685 71.2025 58.0303 71.2553 59.7842C71.3693 61.9449 70.7528 63.4098 69.7782 64.6143V64.6224Z" fill="#707E85"/>
<path d="M90.211 53.2031V65.5212H88.331V55.5665C87.4955 56.1872 86.457 56.5691 85.2157 56.7123V54.9219C86.5287 54.7071 87.6447 54.1341 88.5638 53.2031H90.211ZM95.6828 52.9883V65.5212H93.6954V52.9883H95.6828ZM108.997 52.9883V65.5212H106.759L100.69 55.9246V65.5212H98.738V52.9883H101.191L107.046 62.3701V52.9883H108.997ZM120.936 61.0094H122.941C122.869 62.4536 122.32 63.6234 121.294 64.5186C120.267 65.4019 118.984 65.8435 117.444 65.8435C115.606 65.8435 114.126 65.2288 113.004 63.9994C111.894 62.77 111.339 61.1705 111.339 59.201C111.339 57.2554 111.9 55.6858 113.022 54.4922C114.156 53.2986 115.654 52.7018 117.516 52.7018C119.02 52.7018 120.255 53.1017 121.222 53.9014C122.189 54.6892 122.744 55.7455 122.887 57.0704H120.864C120.768 56.3185 120.404 55.7097 119.772 55.2442C119.139 54.7787 118.363 54.5459 117.444 54.5459C116.215 54.5459 115.224 54.9697 114.472 55.8171C113.72 56.6646 113.344 57.7806 113.344 59.1652C113.344 60.5618 113.72 61.7076 114.472 62.6028C115.224 63.4861 116.215 63.9278 117.444 63.9278C118.399 63.9278 119.199 63.6652 119.843 63.14C120.488 62.6148 120.852 61.9046 120.936 61.0094ZM135.452 52.9883V65.5212H133.465V60.1321H127.18V65.5212H125.193V52.9883H127.18V58.2879H133.465V52.9883H135.452ZM143.971 51.6633L138.761 67.061H136.988L142.198 51.6633H143.971Z" fill="#404B51"/>
<path d="M156.58 55.267H157.795V61.903C157.795 63.1628 157.434 64.1247 156.711 64.7888C155.989 65.4529 155.032 65.7849 153.84 65.7849C152.649 65.7849 151.687 65.448 150.954 64.7741C150.222 64.1003 149.856 63.1432 149.856 61.903V55.267H151.116V61.8004C151.116 62.7184 151.365 63.4167 151.863 63.8952C152.37 64.3737 153.049 64.613 153.899 64.613C154.719 64.613 155.369 64.3884 155.847 63.9392C156.335 63.4899 156.58 62.8356 156.58 61.9762V55.267ZM163.434 65.7849C162.34 65.7849 161.403 65.4675 160.621 64.8327C159.84 64.198 159.435 63.3093 159.406 62.1666H160.753C160.763 62.9674 161.032 63.5778 161.559 63.9978C162.096 64.4177 162.741 64.6277 163.493 64.6277C164.157 64.6277 164.694 64.4714 165.104 64.1589C165.524 63.8464 165.734 63.4313 165.734 62.9137C165.734 62.4743 165.592 62.1276 165.309 61.8737C165.006 61.61 164.704 61.4293 164.401 61.3316C164.02 61.2145 163.551 61.0875 162.995 60.9508C162.331 60.7945 161.774 60.6187 161.325 60.4234C160.25 59.9449 159.713 59.1392 159.713 58.0063C159.713 57.0395 160.04 56.3022 160.695 55.7943C161.359 55.2768 162.208 55.018 163.244 55.018C164.269 55.018 165.124 55.2768 165.807 55.7943C166.481 56.3022 166.842 57.0297 166.891 57.977H165.602C165.583 57.3911 165.368 56.9418 164.958 56.6293C164.547 56.3168 163.991 56.1606 163.288 56.1606C162.575 56.1606 162.008 56.3168 161.588 56.6293C161.168 56.9321 160.958 57.3715 160.958 57.9477C160.958 58.3481 161.071 58.6753 161.295 58.9292C161.51 59.1538 161.774 59.3296 162.086 59.4566C162.399 59.5835 162.853 59.7154 163.449 59.8521C164.259 60.0474 164.879 60.2232 165.309 60.3795C165.768 60.5455 166.173 60.8189 166.525 61.1998C166.877 61.5807 167.052 62.1032 167.052 62.7672C167.052 63.695 166.701 64.4323 165.998 64.9792C165.304 65.5164 164.45 65.7849 163.434 65.7849ZM177.084 60.2476C177.094 61.1754 176.909 62.0348 176.528 62.8258C176.147 63.6169 175.556 64.2663 174.755 64.7741C173.964 65.282 173.041 65.531 171.987 65.5212H168.808V55.267H172.075C173.647 55.267 174.872 55.7406 175.751 56.6879C176.64 57.6352 177.084 58.8218 177.084 60.2476ZM175.766 60.3209C175.766 59.1978 175.434 58.2651 174.77 57.5229C174.116 56.7709 173.193 56.395 172.001 56.395H170.068V64.3933H171.972C173.163 64.3933 174.091 63.9978 174.755 63.2067C175.429 62.4157 175.766 61.4537 175.766 60.3209ZM184.39 63.3532C184.39 64.1052 184.102 64.6814 183.526 65.0818C182.95 65.4822 182.242 65.6824 181.402 65.6824C180.533 65.6824 179.795 65.4724 179.19 65.0525C178.584 64.6228 178.247 64.0075 178.179 63.2067H179.439C179.507 63.6657 179.722 64.0124 180.083 64.2468C180.455 64.4812 180.923 64.5984 181.49 64.5984C181.978 64.5984 182.369 64.5056 182.662 64.32C182.955 64.1247 183.101 63.8561 183.101 63.5143C183.101 63.2018 182.984 62.9723 182.75 62.8258C182.525 62.6696 182.169 62.5573 181.68 62.4889C180.889 62.362 180.323 62.2545 179.981 62.1666C179.571 62.0592 179.2 61.8541 178.868 61.5514C178.536 61.2486 178.37 60.7994 178.37 60.2037C178.37 59.5103 178.628 58.9683 179.146 58.5776C179.673 58.1772 180.357 57.977 181.197 57.977C182.027 57.977 182.73 58.1772 183.306 58.5776C183.882 58.978 184.175 59.5591 184.185 60.3209H182.94C182.93 59.9205 182.764 59.6128 182.442 59.398C182.12 59.1734 181.705 59.0611 181.197 59.0611C180.728 59.0611 180.347 59.1538 180.054 59.3394C179.771 59.5249 179.629 59.7935 179.629 60.1451C179.629 60.5064 179.776 60.7652 180.069 60.9215C180.362 61.0777 180.86 61.2096 181.563 61.317C182.208 61.4049 182.691 61.4977 183.013 61.5953C183.414 61.7028 183.741 61.903 183.995 62.1959C184.258 62.4889 184.39 62.8747 184.39 63.3532Z" fill="#707E85"/>
<path d="M56.6796 143.741H73.3631C73.655 143.741 73.935 143.625 74.1414 143.419C74.3478 143.212 74.4638 142.932 74.4638 142.64C74.4638 142.348 74.3478 142.068 74.1414 141.862C73.935 141.656 73.655 141.54 73.3631 141.54H69.9043L68.0488 136.25C67.8288 135.623 67.4198 135.081 66.8782 134.697C66.3366 134.313 65.6892 134.107 65.0254 134.107C64.3616 134.107 63.7142 134.313 63.1726 134.697C62.631 135.081 62.222 135.623 62.002 136.25L60.1383 141.54H56.6796C56.3876 141.54 56.1077 141.656 55.9012 141.862C55.6948 142.068 55.5789 142.348 55.5789 142.64C55.5789 142.932 55.6948 143.212 55.9012 143.419C56.1077 143.625 56.3876 143.741 56.6796 143.741ZM64.0732 136.97C64.1423 136.774 64.2706 136.604 64.4404 136.483C64.6102 136.363 64.8132 136.298 65.0213 136.298C65.2294 136.298 65.4324 136.363 65.6022 136.483C65.7721 136.604 65.9004 136.774 65.9694 136.97L67.5706 141.54H62.472L64.0732 136.97Z" fill="#707E85"/>
<path d="M73.3631 145.735H56.6796C56.3997 145.752 56.137 145.875 55.9448 146.079C55.7527 146.283 55.6458 146.553 55.6458 146.834C55.6458 147.114 55.7527 147.384 55.9448 147.588C56.137 147.792 56.3997 147.915 56.6796 147.932H57.9003L56.5616 151.757C56.4684 152.032 56.4873 152.332 56.6143 152.593C56.7413 152.854 56.966 153.054 57.2397 153.15C57.5133 153.246 57.8138 153.23 58.0758 153.105C58.3378 152.981 58.5401 152.758 58.6389 152.486L60.2319 147.932H69.8107L71.4038 152.482C71.4795 152.696 71.6198 152.883 71.8056 153.015C71.9915 153.146 72.2136 153.218 72.4414 153.218C72.5655 153.218 72.6887 153.197 72.8056 153.155C73.081 153.059 73.3069 152.857 73.4335 152.594C73.5602 152.331 73.5773 152.029 73.4811 151.753L72.1423 147.932H73.3631C73.655 147.932 73.935 147.816 74.1414 147.61C74.3478 147.403 74.4638 147.123 74.4638 146.832C74.4638 146.54 74.3478 146.26 74.1414 146.053C73.935 145.847 73.655 145.731 73.3631 145.731V145.735Z" fill="#707E85"/>
<path d="M95.1704 150.159L94.0425 147.134H88.3847L87.2568 150.159H85.1441L90.0319 137.626H92.449L97.3369 150.159H95.1704ZM89.083 145.289H93.3442L91.2136 139.56L89.083 145.289ZM108.188 150.159L107.06 147.134H101.402L100.274 150.159H98.1617L103.05 137.626H105.467L110.355 150.159H108.188ZM102.101 145.289H106.362L104.231 139.56L102.101 145.289ZM118.832 137.626H120.909L116.397 150.159H114.535L110.023 137.626H112.136L115.484 147.742L118.832 137.626ZM131.33 150.159H122.719V137.626H130.99V139.471H124.706V142.89H130.507V144.752H124.706V148.297H131.33V150.159ZM139.048 136.302L133.838 151.699H132.066L137.276 136.302H139.048Z" fill="#404B51"/>
<path d="M151.657 139.905H152.873V146.541C152.873 147.801 152.512 148.763 151.789 149.427C151.067 150.091 150.109 150.423 148.918 150.423C147.727 150.423 146.765 150.086 146.032 149.412C145.3 148.738 144.933 147.781 144.933 146.541V139.905H146.193V146.439C146.193 147.357 146.442 148.055 146.94 148.533C147.448 149.012 148.127 149.251 148.977 149.251C149.797 149.251 150.446 149.027 150.925 148.577C151.413 148.128 151.657 147.474 151.657 146.614V139.905ZM158.512 150.423C157.418 150.423 156.48 150.106 155.699 149.471C154.918 148.836 154.513 147.947 154.483 146.805H155.831C155.841 147.606 156.109 148.216 156.637 148.636C157.174 149.056 157.818 149.266 158.57 149.266C159.234 149.266 159.772 149.11 160.182 148.797C160.602 148.485 160.812 148.07 160.812 147.552C160.812 147.112 160.67 146.766 160.387 146.512C160.084 146.248 159.781 146.067 159.479 145.97C159.098 145.853 158.629 145.726 158.072 145.589C157.408 145.433 156.852 145.257 156.402 145.062C155.328 144.583 154.791 143.777 154.791 142.645C154.791 141.678 155.118 140.94 155.772 140.433C156.437 139.915 157.286 139.656 158.321 139.656C159.347 139.656 160.201 139.915 160.885 140.433C161.559 140.94 161.92 141.668 161.969 142.615H160.68C160.66 142.029 160.445 141.58 160.035 141.268C159.625 140.955 159.068 140.799 158.365 140.799C157.652 140.799 157.086 140.955 156.666 141.268C156.246 141.57 156.036 142.01 156.036 142.586C156.036 142.986 156.148 143.313 156.373 143.567C156.588 143.792 156.852 143.968 157.164 144.095C157.477 144.222 157.931 144.354 158.526 144.49C159.337 144.686 159.957 144.861 160.387 145.018C160.846 145.184 161.251 145.457 161.603 145.838C161.954 146.219 162.13 146.741 162.13 147.405C162.13 148.333 161.778 149.071 161.075 149.617C160.382 150.155 159.527 150.423 158.512 150.423ZM172.162 144.886C172.172 145.814 171.986 146.673 171.606 147.464C171.225 148.255 170.634 148.904 169.833 149.412C169.042 149.92 168.119 150.169 167.064 150.159H163.886V139.905H167.152C168.725 139.905 169.95 140.379 170.829 141.326C171.718 142.273 172.162 143.46 172.162 144.886ZM170.844 144.959C170.844 143.836 170.512 142.903 169.848 142.161C169.193 141.409 168.27 141.033 167.079 141.033H165.145V149.031H167.05C168.241 149.031 169.169 148.636 169.833 147.845C170.507 147.054 170.844 146.092 170.844 144.959ZM179.468 147.991C179.468 148.743 179.18 149.32 178.604 149.72C178.028 150.12 177.319 150.321 176.48 150.321C175.61 150.321 174.873 150.111 174.268 149.691C173.662 149.261 173.325 148.646 173.257 147.845H174.517C174.585 148.304 174.8 148.651 175.161 148.885C175.532 149.119 176.001 149.237 176.568 149.237C177.056 149.237 177.446 149.144 177.739 148.958C178.032 148.763 178.179 148.494 178.179 148.153C178.179 147.84 178.062 147.611 177.827 147.464C177.603 147.308 177.246 147.195 176.758 147.127C175.967 147 175.4 146.893 175.059 146.805C174.648 146.697 174.277 146.492 173.945 146.19C173.613 145.887 173.447 145.438 173.447 144.842C173.447 144.148 173.706 143.606 174.224 143.216C174.751 142.815 175.435 142.615 176.275 142.615C177.105 142.615 177.808 142.815 178.384 143.216C178.96 143.616 179.253 144.197 179.263 144.959H178.018C178.008 144.559 177.842 144.251 177.52 144.036C177.197 143.812 176.782 143.699 176.275 143.699C175.806 143.699 175.425 143.792 175.132 143.978C174.849 144.163 174.707 144.432 174.707 144.783C174.707 145.145 174.854 145.403 175.147 145.56C175.44 145.716 175.938 145.848 176.641 145.955C177.285 146.043 177.769 146.136 178.091 146.234C178.491 146.341 178.819 146.541 179.072 146.834C179.336 147.127 179.468 147.513 179.468 147.991Z" fill="#707E85"/>
<path d="M61.3386 187.537C62.2173 187.537 62.9296 186.825 62.9296 185.946C62.9296 185.067 62.2173 184.355 61.3386 184.355C60.4599 184.355 59.7476 185.067 59.7476 185.946C59.7476 186.825 60.4599 187.537 61.3386 187.537Z" fill="#707E85"/>
<path d="M68.7038 187.537C69.5825 187.537 70.2949 186.825 70.2949 185.946C70.2949 185.067 69.5825 184.355 68.7038 184.355C67.8251 184.355 67.1128 185.067 67.1128 185.946C67.1128 186.825 67.8251 187.537 68.7038 187.537Z" fill="#707E85"/>
<path d="M63.1799 190.725C64.0586 190.725 64.7709 190.013 64.7709 189.134C64.7709 188.256 64.0586 187.543 63.1799 187.543C62.3012 187.543 61.5889 188.256 61.5889 189.134C61.5889 190.013 62.3012 190.725 63.1799 190.725Z" fill="#707E85"/>
<path d="M66.8625 184.349C67.7412 184.349 68.4536 183.637 68.4536 182.758C68.4536 181.879 67.7412 181.167 66.8625 181.167C65.9838 181.167 65.2715 181.879 65.2715 182.758C65.2715 183.637 65.9838 184.349 66.8625 184.349Z" fill="#707E85"/>
<path d="M66.8625 190.725C67.7412 190.725 68.4536 190.013 68.4536 189.134C68.4536 188.256 67.7412 187.543 66.8625 187.543C65.9838 187.543 65.2715 188.256 65.2715 189.134C65.2715 190.013 65.9838 190.725 66.8625 190.725Z" fill="#707E85"/>
<path d="M63.1799 184.349C64.0586 184.349 64.7709 183.637 64.7709 182.758C64.7709 181.879 64.0586 181.167 63.1799 181.167C62.3012 181.167 61.5889 181.879 61.5889 182.758C61.5889 183.637 62.3012 184.349 63.1799 184.349Z" fill="#707E85"/>
<path d="M73.1555 186.813C73.6162 186.813 73.9896 186.439 73.9896 185.979C73.9896 185.518 73.6162 185.145 73.1555 185.145C72.6948 185.145 72.3213 185.518 72.3213 185.979C72.3213 186.439 72.6948 186.813 73.1555 186.813Z" fill="#707E85"/>
<path d="M56.8869 186.813C57.3476 186.813 57.7211 186.439 57.7211 185.979C57.7211 185.518 57.3476 185.145 56.8869 185.145C56.4262 185.145 56.0527 185.518 56.0527 185.979C56.0527 186.439 56.4262 186.813 56.8869 186.813Z" fill="#707E85"/>
<path d="M53.9286 186.508C54.2208 186.508 54.4576 186.271 54.4576 185.979C54.4576 185.687 54.2208 185.45 53.9286 185.45C53.6365 185.45 53.3997 185.687 53.3997 185.979C53.3997 186.271 53.6365 186.508 53.9286 186.508Z" fill="#707E85"/>
<path d="M76.1137 186.508C76.4059 186.508 76.6427 186.271 76.6427 185.979C76.6427 185.687 76.4059 185.45 76.1137 185.45C75.8216 185.45 75.5847 185.687 75.5847 185.979C75.5847 186.271 75.8216 186.508 76.1137 186.508Z" fill="#707E85"/>
<path d="M69.0883 179.767C69.549 179.767 69.9225 179.394 69.9225 178.933C69.9225 178.472 69.549 178.099 69.0883 178.099C68.6276 178.099 68.2542 178.472 68.2542 178.933C68.2542 179.394 68.6276 179.767 69.0883 179.767Z" fill="#707E85"/>
<path d="M60.954 193.859C61.4148 193.859 61.7882 193.485 61.7882 193.024C61.7882 192.564 61.4148 192.19 60.954 192.19C60.4933 192.19 60.1199 192.564 60.1199 193.024C60.1199 193.485 60.4933 193.859 60.954 193.859Z" fill="#707E85"/>
<path d="M59.475 196.113C59.7672 196.113 60.004 195.876 60.004 195.584C60.004 195.292 59.7672 195.055 59.475 195.055C59.1829 195.055 58.946 195.292 58.946 195.584C58.946 195.876 59.1829 196.113 59.475 196.113Z" fill="#707E85"/>
<path d="M70.5676 176.902C70.8597 176.902 71.0966 176.666 71.0966 176.373C71.0966 176.081 70.8597 175.844 70.5676 175.844C70.2754 175.844 70.0386 176.081 70.0386 176.373C70.0386 176.666 70.2754 176.902 70.5676 176.902Z" fill="#707E85"/>
<path d="M60.954 179.767C61.4148 179.767 61.7882 179.394 61.7882 178.933C61.7882 178.472 61.4148 178.099 60.954 178.099C60.4933 178.099 60.1199 178.472 60.1199 178.933C60.1199 179.394 60.4933 179.767 60.954 179.767Z" fill="#707E85"/>
<path d="M69.0883 193.859C69.549 193.859 69.9225 193.485 69.9225 193.024C69.9225 192.564 69.549 192.19 69.0883 192.19C68.6276 192.19 68.2542 192.564 68.2542 193.024C68.2542 193.485 68.6276 193.859 69.0883 193.859Z" fill="#707E85"/>
<path d="M70.5676 196.113C70.8597 196.113 71.0966 195.876 71.0966 195.584C71.0966 195.292 70.8597 195.055 70.5676 195.055C70.2754 195.055 70.0386 195.292 70.0386 195.584C70.0386 195.876 70.2754 196.113 70.5676 196.113Z" fill="#707E85"/>
<path d="M59.475 176.902C59.7672 176.902 60.004 176.666 60.004 176.373C60.004 176.081 59.7672 175.844 59.475 175.844C59.1829 175.844 58.946 176.081 58.946 176.373C58.946 176.666 59.1829 176.902 59.475 176.902Z" fill="#707E85"/>
<path d="M65.0214 180.573C65.5517 180.573 65.9817 180.143 65.9817 179.613C65.9817 179.082 65.5517 178.652 65.0214 178.652C64.491 178.652 64.061 179.082 64.061 179.613C64.061 180.143 64.491 180.573 65.0214 180.573Z" fill="#707E85"/>
<path d="M65.0212 176.473C65.3841 176.473 65.6783 176.179 65.6783 175.816C65.6783 175.453 65.3841 175.159 65.0212 175.159C64.6582 175.159 64.364 175.453 64.364 175.816C64.364 176.179 64.6582 176.473 65.0212 176.473Z" fill="#707E85"/>
<path d="M65.0214 193.305C65.5517 193.305 65.9817 192.875 65.9817 192.345C65.9817 191.814 65.5517 191.385 65.0214 191.385C64.491 191.385 64.061 191.814 64.061 192.345C64.061 192.875 64.491 193.305 65.0214 193.305Z" fill="#707E85"/>
<path d="M65.0212 196.799C65.3841 196.799 65.6783 196.504 65.6783 196.141C65.6783 195.778 65.3841 195.484 65.0212 195.484C64.6582 195.484 64.364 195.778 64.364 196.141C64.364 196.504 64.6582 196.799 65.0212 196.799Z" fill="#707E85"/>
<path d="M59.5077 183.757C60.0381 183.757 60.468 183.327 60.468 182.797C60.468 182.266 60.0381 181.836 59.5077 181.836C58.9773 181.836 58.5474 182.266 58.5474 182.797C58.5474 183.327 58.9773 183.757 59.5077 183.757Z" fill="#707E85"/>
<path d="M56.2197 181.554C56.5826 181.554 56.8768 181.259 56.8768 180.896C56.8768 180.533 56.5826 180.239 56.2197 180.239C55.8567 180.239 55.5625 180.533 55.5625 180.896C55.5625 181.259 55.8567 181.554 56.2197 181.554Z" fill="#707E85"/>
<path d="M70.535 190.121C71.0654 190.121 71.4953 189.691 71.4953 189.161C71.4953 188.63 71.0654 188.2 70.535 188.2C70.0047 188.2 69.5747 188.63 69.5747 189.161C69.5747 189.691 70.0047 190.121 70.535 190.121Z" fill="#707E85"/>
<path d="M73.8229 191.718C74.1859 191.718 74.4801 191.424 74.4801 191.061C74.4801 190.698 74.1859 190.404 73.8229 190.404C73.46 190.404 73.1658 190.698 73.1658 191.061C73.1658 191.424 73.46 191.718 73.8229 191.718Z" fill="#707E85"/>
<path d="M59.5077 190.121C60.0381 190.121 60.468 189.691 60.468 189.161C60.468 188.63 60.0381 188.2 59.5077 188.2C58.9773 188.2 58.5474 188.63 58.5474 189.161C58.5474 189.691 58.9773 190.121 59.5077 190.121Z" fill="#707E85"/>
<path d="M56.2197 191.718C56.5826 191.718 56.8768 191.424 56.8768 191.061C56.8768 190.698 56.5826 190.404 56.2197 190.404C55.8567 190.404 55.5625 190.698 55.5625 191.061C55.5625 191.424 55.8567 191.718 56.2197 191.718Z" fill="#707E85"/>
<path d="M70.535 183.757C71.0654 183.757 71.4953 183.327 71.4953 182.797C71.4953 182.266 71.0654 181.836 70.535 181.836C70.0047 181.836 69.5747 182.266 69.5747 182.797C69.5747 183.327 70.0047 183.757 70.535 183.757Z" fill="#707E85"/>
<path d="M73.8229 181.554C74.1859 181.554 74.4801 181.259 74.4801 180.896C74.4801 180.533 74.1859 180.239 73.8229 180.239C73.46 180.239 73.1658 180.533 73.1658 180.896C73.1658 181.259 73.46 181.554 73.8229 181.554Z" fill="#707E85"/>
<path d="M95.1704 192.479L94.0425 189.453H88.3847L87.2568 192.479H85.1441L90.0319 179.946H92.449L97.3369 192.479H95.1704ZM89.083 187.609H93.3442L91.2136 181.879L89.083 187.609ZM109.692 185.962C109.704 186.797 109.567 187.603 109.28 188.379C108.994 189.155 108.582 189.853 108.045 190.473C107.508 191.094 106.809 191.59 105.95 191.96C105.103 192.318 104.154 192.491 103.103 192.479H99.236V179.946H103.408C105.306 179.946 106.827 180.501 107.973 181.611C109.119 182.709 109.692 184.159 109.692 185.962ZM107.687 185.962C107.687 184.696 107.305 183.688 106.541 182.936C105.789 182.172 104.774 181.79 103.497 181.79H101.223V190.617H103.121C104.47 190.617 105.568 190.181 106.416 189.31C107.263 188.426 107.687 187.31 107.687 185.962ZM120.104 192.479L118.976 189.453H113.319L112.191 192.479H110.078L114.966 179.946H117.383L122.271 192.479H120.104ZM114.017 187.609H118.278L116.147 181.879L114.017 187.609ZM129.72 178.621L124.51 194.019H122.737L127.948 178.621H129.72Z" fill="#404B51"/>
<path d="M142.329 182.225H143.545V188.86C143.545 190.12 143.183 191.082 142.461 191.746C141.738 192.41 140.781 192.742 139.59 192.742C138.398 192.742 137.436 192.406 136.704 191.732C135.971 191.058 135.605 190.101 135.605 188.86V182.225H136.865V188.758C136.865 189.676 137.114 190.374 137.612 190.853C138.12 191.331 138.799 191.571 139.648 191.571C140.469 191.571 141.118 191.346 141.596 190.897C142.085 190.447 142.329 189.793 142.329 188.934V182.225ZM149.183 192.742C148.09 192.742 147.152 192.425 146.371 191.79C145.59 191.155 145.184 190.267 145.155 189.124H146.503C146.512 189.925 146.781 190.535 147.308 190.955C147.845 191.375 148.49 191.585 149.242 191.585C149.906 191.585 150.443 191.429 150.853 191.116C151.273 190.804 151.483 190.389 151.483 189.871C151.483 189.432 151.342 189.085 151.058 188.831C150.756 188.567 150.453 188.387 150.15 188.289C149.769 188.172 149.301 188.045 148.744 187.908C148.08 187.752 147.523 187.576 147.074 187.381C146 186.902 145.463 186.097 145.463 184.964C145.463 183.997 145.79 183.26 146.444 182.752C147.108 182.234 147.958 181.975 148.993 181.975C150.018 181.975 150.873 182.234 151.557 182.752C152.23 183.26 152.592 183.987 152.641 184.935H151.351C151.332 184.349 151.117 183.899 150.707 183.587C150.297 183.274 149.74 183.118 149.037 183.118C148.324 183.118 147.758 183.274 147.338 183.587C146.918 183.89 146.708 184.329 146.708 184.905C146.708 185.306 146.82 185.633 147.045 185.887C147.259 186.111 147.523 186.287 147.836 186.414C148.148 186.541 148.602 186.673 149.198 186.81C150.009 187.005 150.629 187.181 151.058 187.337C151.517 187.503 151.923 187.776 152.274 188.157C152.626 188.538 152.802 189.061 152.802 189.725C152.802 190.653 152.45 191.39 151.747 191.937C151.054 192.474 150.199 192.742 149.183 192.742ZM162.834 187.205C162.844 188.133 162.658 188.992 162.277 189.783C161.896 190.574 161.305 191.224 160.505 191.732C159.714 192.239 158.791 192.489 157.736 192.479H154.557V182.225H157.824C159.396 182.225 160.622 182.698 161.501 183.645C162.389 184.593 162.834 185.779 162.834 187.205ZM161.515 187.278C161.515 186.155 161.183 185.223 160.519 184.48C159.865 183.728 158.942 183.352 157.751 183.352H155.817V191.351H157.721C158.913 191.351 159.841 190.955 160.505 190.164C161.178 189.373 161.515 188.411 161.515 187.278ZM170.14 190.311C170.14 191.063 169.852 191.639 169.275 192.039C168.699 192.44 167.991 192.64 167.151 192.64C166.282 192.64 165.545 192.43 164.939 192.01C164.334 191.58 163.997 190.965 163.928 190.164H165.188C165.257 190.623 165.471 190.97 165.833 191.204C166.204 191.439 166.673 191.556 167.239 191.556C167.727 191.556 168.118 191.463 168.411 191.278C168.704 191.082 168.851 190.814 168.851 190.472C168.851 190.159 168.733 189.93 168.499 189.783C168.274 189.627 167.918 189.515 167.43 189.446C166.639 189.319 166.072 189.212 165.73 189.124C165.32 189.017 164.949 188.812 164.617 188.509C164.285 188.206 164.119 187.757 164.119 187.161C164.119 186.468 164.378 185.926 164.895 185.535C165.423 185.135 166.106 184.935 166.946 184.935C167.776 184.935 168.479 185.135 169.056 185.535C169.632 185.936 169.925 186.517 169.935 187.278H168.689C168.68 186.878 168.514 186.57 168.191 186.356C167.869 186.131 167.454 186.019 166.946 186.019C166.477 186.019 166.097 186.111 165.804 186.297C165.52 186.482 165.379 186.751 165.379 187.103C165.379 187.464 165.525 187.723 165.818 187.879C166.111 188.035 166.609 188.167 167.312 188.275C167.957 188.362 168.44 188.455 168.763 188.553C169.163 188.66 169.49 188.86 169.744 189.153C170.008 189.446 170.14 189.832 170.14 190.311Z" fill="#707E85"/>
<path d="M321 51C321 46.5817 324.582 43 329 43H391C395.418 43 399 46.5817 399 51V67C399 71.4183 395.418 75 391 75H329C324.582 75 321 71.4183 321 67V51Z" fill="white"/>
<path d="M356.76 61.172C356.76 61.9373 356.461 62.6 355.864 63.16C355.276 63.72 354.483 64 353.484 64H349.452V54.2H353.68C354.52 54.2 355.169 54.4147 355.626 54.844C356.093 55.264 356.326 55.7867 356.326 56.412C356.326 56.8973 356.195 57.35 355.934 57.77C355.673 58.19 355.313 58.498 354.856 58.694C355.463 58.89 355.929 59.212 356.256 59.66C356.592 60.0987 356.76 60.6027 356.76 61.172ZM350.642 58.302H353.274C353.843 58.302 354.291 58.148 354.618 57.84C354.954 57.5227 355.122 57.14 355.122 56.692C355.122 56.2813 354.977 55.9453 354.688 55.684C354.408 55.4133 354.011 55.278 353.498 55.278H350.642V58.302ZM355.528 61.144C355.528 60.6307 355.355 60.206 355.01 59.87C354.674 59.5247 354.212 59.352 353.624 59.352H350.642V62.922H353.526C354.17 62.922 354.665 62.7587 355.01 62.432C355.355 62.096 355.528 61.6667 355.528 61.144ZM364.052 56.916V64H362.918V62.754C362.452 63.6407 361.71 64.084 360.692 64.084C359.983 64.084 359.395 63.86 358.928 63.412C358.462 62.964 358.228 62.3387 358.228 61.536V56.916H359.39V61.34C359.39 61.8813 359.53 62.3013 359.81 62.6C360.1 62.8987 360.478 63.048 360.944 63.048C361.486 63.048 361.943 62.824 362.316 62.376C362.699 61.9187 362.89 61.2933 362.89 60.5V56.916H364.052ZM370.423 56.916H371.599L368.687 64.574C368.258 65.722 367.413 66.296 366.153 66.296H365.733V65.274H366.111C366.932 65.274 367.46 64.9473 367.693 64.294L367.819 63.958L365.103 56.916H366.335L368.379 62.418L370.423 56.916Z" fill="#1B2022"/>
<path d="M329 44H391V42H329V44ZM398 51V67H400V51H398ZM391 74H329V76H391V74ZM322 67V51H320V67H322ZM329 74C325.134 74 322 70.866 322 67H320C320 71.9706 324.029 76 329 76V74ZM398 67C398 70.866 394.866 74 391 74V76C395.971 76 400 71.9706 400 67H398ZM391 44C394.866 44 398 47.134 398 51H400C400 46.0294 395.971 42 391 42V44ZM329 42C324.029 42 320 46.0294 320 51H322C322 47.134 325.134 44 329 44V42Z" fill="#E7ECEF"/>
<path d="M321 93C321 88.5817 324.582 85 329 85H391C395.418 85 399 88.5817 399 93V109C399 113.418 395.418 117 391 117H329C324.582 117 321 113.418 321 109V93Z" fill="white"/>
<path d="M356.76 103.172C356.76 103.937 356.461 104.6 355.864 105.16C355.276 105.72 354.483 106 353.484 106H349.452V96.2H353.68C354.52 96.2 355.169 96.4147 355.626 96.844C356.093 97.264 356.326 97.7867 356.326 98.412C356.326 98.8973 356.195 99.35 355.934 99.77C355.673 100.19 355.313 100.498 354.856 100.694C355.463 100.89 355.929 101.212 356.256 101.66C356.592 102.099 356.76 102.603 356.76 103.172ZM350.642 100.302H353.274C353.843 100.302 354.291 100.148 354.618 99.84C354.954 99.5227 355.122 99.14 355.122 98.692C355.122 98.2813 354.977 97.9453 354.688 97.684C354.408 97.4133 354.011 97.278 353.498 97.278H350.642V100.302ZM355.528 103.144C355.528 102.631 355.355 102.206 355.01 101.87C354.674 101.525 354.212 101.352 353.624 101.352H350.642V104.922H353.526C354.17 104.922 354.665 104.759 355.01 104.432C355.355 104.096 355.528 103.667 355.528 103.144ZM364.052 98.916V106H362.918V104.754C362.452 105.641 361.71 106.084 360.692 106.084C359.983 106.084 359.395 105.86 358.928 105.412C358.462 104.964 358.228 104.339 358.228 103.536V98.916H359.39V103.34C359.39 103.881 359.53 104.301 359.81 104.6C360.1 104.899 360.478 105.048 360.944 105.048C361.486 105.048 361.943 104.824 362.316 104.376C362.699 103.919 362.89 103.293 362.89 102.5V98.916H364.052ZM370.423 98.916H371.599L368.687 106.574C368.258 107.722 367.413 108.296 366.153 108.296H365.733V107.274H366.111C366.932 107.274 367.46 106.947 367.693 106.294L367.819 105.958L365.103 98.916H366.335L368.379 104.418L370.423 98.916Z" fill="#1B2022"/>
<path d="M329 86H391V84H329V86ZM398 93V109H400V93H398ZM391 116H329V118H391V116ZM322 109V93H320V109H322ZM329 116C325.134 116 322 112.866 322 109H320C320 113.971 324.029 118 329 118V116ZM398 109C398 112.866 394.866 116 391 116V118C395.971 118 400 113.971 400 109H398ZM391 86C394.866 86 398 89.134 398 93H400C400 88.0294 395.971 84 391 84V86ZM329 84C324.029 84 320 88.0294 320 93H322C322 89.134 325.134 86 329 86V84Z" fill="#E7ECEF"/>
<path d="M321 139C321 134.582 324.582 131 329 131H391C395.418 131 399 134.582 399 139V155C399 159.418 395.418 163 391 163H329C324.582 163 321 159.418 321 155V139Z" fill="white"/>
<path d="M356.76 149.172C356.76 149.937 356.461 150.6 355.864 151.16C355.276 151.72 354.483 152 353.484 152H349.452V142.2H353.68C354.52 142.2 355.169 142.415 355.626 142.844C356.093 143.264 356.326 143.787 356.326 144.412C356.326 144.897 356.195 145.35 355.934 145.77C355.673 146.19 355.313 146.498 354.856 146.694C355.463 146.89 355.929 147.212 356.256 147.66C356.592 148.099 356.76 148.603 356.76 149.172ZM350.642 146.302H353.274C353.843 146.302 354.291 146.148 354.618 145.84C354.954 145.523 355.122 145.14 355.122 144.692C355.122 144.281 354.977 143.945 354.688 143.684C354.408 143.413 354.011 143.278 353.498 143.278H350.642V146.302ZM355.528 149.144C355.528 148.631 355.355 148.206 355.01 147.87C354.674 147.525 354.212 147.352 353.624 147.352H350.642V150.922H353.526C354.17 150.922 354.665 150.759 355.01 150.432C355.355 150.096 355.528 149.667 355.528 149.144ZM364.052 144.916V152H362.918V150.754C362.452 151.641 361.71 152.084 360.692 152.084C359.983 152.084 359.395 151.86 358.928 151.412C358.462 150.964 358.228 150.339 358.228 149.536V144.916H359.39V149.34C359.39 149.881 359.53 150.301 359.81 150.6C360.1 150.899 360.478 151.048 360.944 151.048C361.486 151.048 361.943 150.824 362.316 150.376C362.699 149.919 362.89 149.293 362.89 148.5V144.916H364.052ZM370.423 144.916H371.599L368.687 152.574C368.258 153.722 367.413 154.296 366.153 154.296H365.733V153.274H366.111C366.932 153.274 367.46 152.947 367.693 152.294L367.819 151.958L365.103 144.916H366.335L368.379 150.418L370.423 144.916Z" fill="#1B2022"/>
<path d="M329 132H391V130H329V132ZM398 139V155H400V139H398ZM391 162H329V164H391V162ZM322 155V139H320V155H322ZM329 162C325.134 162 322 158.866 322 155H320C320 159.971 324.029 164 329 164V162ZM398 155C398 158.866 394.866 162 391 162V164C395.971 164 400 159.971 400 155H398ZM391 132C394.866 132 398 135.134 398 139H400C400 134.029 395.971 130 391 130V132ZM329 130C324.029 130 320 134.029 320 139H322C322 135.134 325.134 132 329 132V130Z" fill="#E7ECEF"/>
<path d="M321 181C321 176.582 324.582 173 329 173H391C395.418 173 399 176.582 399 181V197C399 201.418 395.418 205 391 205H329C324.582 205 321 201.418 321 197V181Z" fill="white"/>
<path d="M356.76 191.172C356.76 191.937 356.461 192.6 355.864 193.16C355.276 193.72 354.483 194 353.484 194H349.452V184.2H353.68C354.52 184.2 355.169 184.415 355.626 184.844C356.093 185.264 356.326 185.787 356.326 186.412C356.326 186.897 356.195 187.35 355.934 187.77C355.673 188.19 355.313 188.498 354.856 188.694C355.463 188.89 355.929 189.212 356.256 189.66C356.592 190.099 356.76 190.603 356.76 191.172ZM350.642 188.302H353.274C353.843 188.302 354.291 188.148 354.618 187.84C354.954 187.523 355.122 187.14 355.122 186.692C355.122 186.281 354.977 185.945 354.688 185.684C354.408 185.413 354.011 185.278 353.498 185.278H350.642V188.302ZM355.528 191.144C355.528 190.631 355.355 190.206 355.01 189.87C354.674 189.525 354.212 189.352 353.624 189.352H350.642V192.922H353.526C354.17 192.922 354.665 192.759 355.01 192.432C355.355 192.096 355.528 191.667 355.528 191.144ZM364.052 186.916V194H362.918V192.754C362.452 193.641 361.71 194.084 360.692 194.084C359.983 194.084 359.395 193.86 358.928 193.412C358.462 192.964 358.228 192.339 358.228 191.536V186.916H359.39V191.34C359.39 191.881 359.53 192.301 359.81 192.6C360.1 192.899 360.478 193.048 360.944 193.048C361.486 193.048 361.943 192.824 362.316 192.376C362.699 191.919 362.89 191.293 362.89 190.5V186.916H364.052ZM370.423 186.916H371.599L368.687 194.574C368.258 195.722 367.413 196.296 366.153 196.296H365.733V195.274H366.111C366.932 195.274 367.46 194.947 367.693 194.294L367.819 193.958L365.103 186.916H366.335L368.379 192.418L370.423 186.916Z" fill="#1B2022"/>
<path d="M329 174H391V172H329V174ZM398 181V197H400V181H398ZM391 204H329V206H391V204ZM322 197V181H320V197H322ZM329 204C325.134 204 322 200.866 322 197H320C320 201.971 324.029 206 329 206V204ZM398 197C398 200.866 394.866 204 391 204V206C395.971 206 400 201.971 400 197H398ZM391 174C394.866 174 398 177.134 398 181H400C400 176.029 395.971 172 391 172V174ZM329 172C324.029 172 320 176.029 320 181H322C322 177.134 325.134 174 329 174V172Z" fill="#E7ECEF"/>
<defs>
<filter id="filter0_d_112_1209" x="0" y="0" width="456" height="250" filterUnits="userSpaceOnUse" color-interpolation-filters="sRGB">
<feFlood flood-opacity="0" result="BackgroundImageFix"/>
<feColorMatrix in="SourceAlpha" type="matrix" values="0 0 0 0 0 0 0 0 0 0 0 0 0 0 0 0 0 0 127 0" result="hardAlpha"/>
<feOffset dy="10"/>
<feGaussianBlur stdDeviation="8"/>
<feColorMatrix type="matrix" values="0 0 0 0 0 0 0 0 0 0 0 0 0 0 0 0 0 0 0.05 0"/>
<feBlend mode="normal" in2="BackgroundImageFix" result="effect1_dropShadow_112_1209"/>
<feBlend mode="normal" in="SourceGraphic" in2="effect1_dropShadow_112_1209" result="shape"/>
</filter>
</defs>
</svg>
