<svg width="120" height="120" viewBox="0 0 120 120" fill="none" xmlns="http://www.w3.org/2000/svg">
<path d="M120 59.999C120 75.9122 113.678 91.1737 102.426 102.426C91.1737 113.678 75.9122 120 59.999 120C44.0864 119.999 28.8258 113.678 17.5739 102.426C6.32203 91.1742 0.000547397 75.9136 0 60.001C-9.41579e-09 44.0881 6.32124 28.8269 17.5732 17.5746C28.8251 6.32231 44.0861 0.000547418 59.999 0C75.9119 -9.41581e-09 91.1731 6.32124 102.425 17.5732C113.678 28.8251 119.999 44.0861 120 59.999Z" fill="#111C23"/>
<path d="M68.2059 98.0154C67.7479 98.0156 67.3044 97.8549 66.953 97.5613C66.7333 97.3778 66.5565 97.1483 66.4353 96.889C66.314 96.6297 66.2512 96.3469 66.2512 96.0607V79.9236C66.2515 79.4657 66.4124 79.0225 66.7058 78.671C66.9992 78.3195 67.4066 78.082 67.8571 77.9999C72.2907 77.1877 76.3777 75.0612 79.5873 71.8964C80.2209 71.2644 80.8099 70.5892 81.35 69.8756C75.7398 64.2861 69.2833 66.6949 61.8072 69.4814L59.5615 70.307C51.9243 73.1555 43.2552 76.3837 35.8678 68.9943C33.489 66.5631 31.9957 63.4034 31.6274 60.022C31.2591 56.6407 32.0371 53.2336 33.8367 50.3473C29.8159 44.091 31.1926 35.653 37.6512 29.1924C41.4242 25.4676 46.2306 22.964 51.4455 22.0073C51.7271 21.956 52.0167 21.9673 52.2935 22.0404C52.5703 22.1135 52.8276 22.2467 53.0472 22.4305C53.267 22.6138 53.4438 22.8433 53.5651 23.1027C53.6864 23.362 53.7492 23.6448 53.749 23.9311V40.0867C53.7488 40.5443 53.5882 40.9873 53.2952 41.3388C53.0022 41.6902 52.5953 41.9279 52.1452 42.0104C47.7116 42.8227 43.6246 44.9492 40.415 48.1139C39.7818 48.7463 39.1928 49.4215 38.6522 50.1347C44.2624 55.7222 50.7189 53.3154 58.195 50.5269L60.4408 49.7012C68.0779 46.8507 76.7471 43.6225 84.1345 51.014C85.6445 52.5115 86.805 54.3242 87.5329 56.3224C88.2608 58.3206 88.5382 60.455 88.3452 62.5729C88.1194 65.0554 87.374 67.4626 86.1573 69.6383C90.1864 75.8863 88.8158 84.3346 82.3428 90.7993C78.5715 94.5231 73.7674 97.0266 68.5547 97.9844C68.4389 98.0055 68.3215 98.0159 68.2038 98.0154H68.2059ZM70.1585 81.5027V93.5858C73.713 92.5489 76.9524 90.6411 79.5831 88.0355C84.1241 83.4945 85.5587 77.7914 83.6432 73.2607C83.2304 73.741 82.799 74.2095 82.349 74.6664C78.9774 78.0005 74.7677 80.3618 70.1647 81.5006L70.1585 81.5027ZM36.6232 53.5879C35.6139 55.6464 35.2649 57.9665 35.624 60.2309C35.9832 62.4952 37.0328 64.5935 38.6295 66.2387C44.2439 71.853 50.7065 69.4422 58.1909 66.6515L60.4366 65.8259C67.8199 63.0745 76.1547 59.968 83.3749 66.4245C83.9543 65.101 84.3147 63.6921 84.442 62.2529C84.5859 60.6998 84.3846 59.134 83.8526 57.6678C83.3205 56.2015 82.4709 54.8711 81.3645 53.7716C75.7501 48.1573 69.2875 50.5681 61.8031 53.3588L59.5573 54.1844C52.1762 56.9359 43.8414 60.0444 36.6212 53.59L36.6232 53.5879ZM49.8313 26.4203C46.2771 27.4578 43.0377 29.3655 40.4067 31.9707C35.8657 36.5117 34.4312 42.2127 36.3446 46.7413C36.7574 46.2652 37.1902 45.7973 37.6429 45.3377C41.0148 42.0014 45.2263 39.6392 49.8313 38.5015V26.4203Z" fill="#00FFB9"/>
</svg>
