<svg width="32" height="32" viewBox="0 0 32 32" fill="none" xmlns="http://www.w3.org/2000/svg">
<path fill-rule="evenodd" clip-rule="evenodd" d="M20.6747 23.3583C21.2654 24.1171 21.9743 24.9973 21.9743 24.9973C23.1465 25.0278 24.3082 24.7636 25.3585 24.2275C26.4086 23.6915 27.3154 22.8999 28 21.9216C27.9361 17.8194 26.9665 13.7857 25.1644 10.1247C23.5785 8.84477 21.6451 8.10235 19.631 8L19.3553 8.32374C21.1476 8.81104 22.8187 9.68344 24.2586 10.8835C22.425 9.84492 20.4115 9.18502 18.3313 8.94095C17.0107 8.802 15.6786 8.82578 14.3634 9.01173C14.251 9.0152 14.1389 9.02879 14.0287 9.05218C12.4832 9.22964 10.9747 9.65642 9.55862 10.3169C8.83005 10.6508 8.39685 10.9037 8.39685 10.9037C9.90988 9.64137 11.6746 8.73639 13.566 8.25295L13.369 8C11.3549 8.10235 9.42153 8.84477 7.83564 10.1247C6.03348 13.7857 5.06393 17.8194 5 21.9216C5.67907 22.9008 6.58207 23.6936 7.62936 24.2299C8.67666 24.7662 9.83626 25.0298 11.006 24.9973C11.006 24.9973 11.2365 24.706 11.5434 24.3161C11.782 24.0128 12.0669 23.6498 12.3254 23.3178C10.941 22.9591 9.72201 22.1144 8.87926 20.9301C9.58274 21.4114 10.3355 21.8118 11.1242 22.124C12.0613 22.504 13.0301 22.7953 14.0188 22.9941C15.7028 23.3268 17.4325 23.3337 19.119 23.0143C20.1002 22.838 21.0583 22.546 21.9743 22.1442C22.7706 21.8354 23.5303 21.4349 24.2389 20.9503C23.3646 22.1601 22.1021 23.013 20.6747 23.3583ZM11.3844 16.2668C11.7573 15.8508 12.269 15.594 12.8176 15.5476C13.0937 15.5577 13.365 15.624 13.6158 15.7426C13.8667 15.8613 14.0922 16.0301 14.279 16.239C14.4659 16.4481 14.6105 16.6931 14.7044 16.96C14.7983 17.2268 14.8397 17.5102 14.8262 17.7937C14.8381 18.0768 14.7956 18.3594 14.701 18.6256C14.6065 18.8918 14.4617 19.1361 14.2752 19.3447C14.0886 19.5533 13.8639 19.7221 13.6138 19.8414C13.3637 19.9607 13.0932 20.0281 12.8176 20.0398C12.269 19.9934 11.7573 19.7367 11.3844 19.3205C11.0113 18.9044 10.8043 18.3594 10.8043 17.7937C10.8043 17.228 11.0113 16.683 11.3844 16.2668ZM18.7398 15.8322C19.1241 15.6086 19.5651 15.5094 20.0052 15.5476C20.2806 15.5593 20.5512 15.6268 20.8013 15.746C21.0514 15.8653 21.2762 16.034 21.4627 16.2427C21.6493 16.4513 21.794 16.6956 21.8885 16.9618C21.983 17.2279 22.0256 17.5107 22.0138 17.7937C22.0137 18.2475 21.8803 18.6907 21.631 19.0654C21.3817 19.44 21.0282 19.7285 20.6167 19.8932C20.2052 20.0579 19.7549 20.0912 19.3247 19.9886C18.8945 19.886 18.5045 19.6523 18.2056 19.3181C17.9068 18.984 17.7132 18.5649 17.65 18.1158C17.5867 17.6667 17.657 17.2084 17.8515 16.801C18.0459 16.3935 18.3555 16.0559 18.7398 15.8322Z" fill="#1B2022"/>
</svg>
