<svg width="32" height="32" viewBox="0 0 32 32" fill="none" xmlns="http://www.w3.org/2000/svg">
<path d="M26.8573 6.43182C26.8573 6.28788 26.7146 6.14394 26.5719 6C26.2864 6 26.001 6 25.7156 6C25.7156 6 5.73548 13.197 4.59376 14.0606C4.16562 14.3485 4.16562 14.4924 4.0229 14.4924C3.88019 15.0682 4.45105 15.3561 4.45105 15.3561L9.58879 17.0833C9.7315 17.0833 9.7315 17.0833 9.87421 17.0833C11.0159 16.3636 21.7196 9.59848 22.2904 9.31061C22.4331 9.31061 22.4331 9.31061 22.4331 9.31061C22.1477 10.1742 13.0139 18.3788 13.0139 18.5227C13.0139 18.5227 12.8712 18.6667 13.0139 18.6667L12.5858 23.7045C12.5858 23.7045 12.4431 25.2879 14.0129 23.7045C15.1547 22.553 16.1537 21.6894 16.7245 21.2576C18.4371 22.553 20.4351 23.8485 21.2914 24.5682C21.5768 24.8561 22.005 25 22.2904 25C22.7186 25 23.1467 24.5682 23.2894 24.1364C23.2894 24.1364 27 9.31061 27 7.29545C27 7.15152 27 7.00758 27 6.86364C26.8573 6.7197 26.8573 6.57576 26.8573 6.43182Z" fill="#1B2022"/>
</svg>
