<svg width="58" height="58" viewBox="0 0 58 58" fill="none" xmlns="http://www.w3.org/2000/svg">
<circle cx="29" cy="29" r="28.5" fill="white" stroke="#E7ECEF"/>
<path d="M32.5046 23.9198C32.1662 23.4258 31.6876 23.0444 31.1306 22.8246C30.5736 22.6049 29.9635 22.5569 29.379 22.6868L25.5153 23.722C24.7467 23.928 24.0915 24.4308 23.6936 25.1198C23.2958 25.8089 23.188 26.6277 23.3939 27.3963C23.5999 28.1648 24.1027 28.8201 24.7917 29.2179C25.4808 29.6157 26.2996 29.7235 27.0682 29.5176L30.9319 28.4823C31.7004 28.2764 32.5193 28.3842 33.2083 28.782C33.8974 29.1798 34.4002 29.8351 34.6061 30.6036C34.812 31.3722 34.7042 32.191 34.3064 32.8801C33.9086 33.5691 33.2533 34.0719 32.4848 34.2779L28.6211 35.3131C28.0365 35.443 27.4265 35.395 26.8695 35.1753C26.3124 34.9555 25.8339 34.5741 25.4955 34.0801M26.6707 20.3066L27.4471 23.2044M30.5529 34.7955L31.3294 37.6933" stroke="#1B2022" stroke-width="2" stroke-linecap="round" stroke-linejoin="round"/>
</svg>
