<svg width="56" height="56" viewBox="0 0 56 56" fill="none" xmlns="http://www.w3.org/2000/svg">
<circle cx="28" cy="28" r="27.5" fill="white" stroke="#E7ECEF"/>
<g clip-path="url(#clip0_718_1455)">
<path d="M22.333 38.508L21.8154 36.5762C21.5408 35.5514 21.6845 34.4596 22.215 33.5409C22.7454 32.6221 23.6191 31.9517 24.6438 31.6772L28.5075 30.6419C29.5322 30.3673 30.624 30.5111 31.5428 31.0415C32.4615 31.5719 33.1319 32.4456 33.4065 33.4703L33.9241 35.4022M30.2649 17.8823C31.1531 17.8724 32.0192 18.1583 32.7268 18.6951C33.4345 19.2318 33.9433 19.9888 34.1732 20.8467C34.4031 21.7046 34.3409 22.6147 33.9964 23.4333C33.652 24.252 33.0449 24.9327 32.2708 25.3682M39.7197 33.8493L39.202 31.9174C38.9686 31.066 38.4601 30.3157 37.7557 29.7835C37.0513 29.2512 36.1906 28.967 35.3078 28.9751M28.3688 22.3969C28.9406 24.5307 27.6742 26.7241 25.5404 27.2958C23.4065 27.8676 21.2132 26.6013 20.6414 24.4674C20.0696 22.3335 21.3359 20.1402 23.4698 19.5684C25.6037 18.9967 27.797 20.263 28.3688 22.3969Z" stroke="black" stroke-width="2" stroke-linecap="round" stroke-linejoin="round"/>
</g>
<defs>
<clipPath id="clip0_718_1455">
<rect width="24" height="24" fill="white" transform="translate(14 19) rotate(-15)"/>
</clipPath>
</defs>
</svg>
