<svg width="24" height="24" viewBox="0 0 24 24" fill="none" xmlns="http://www.w3.org/2000/svg">
<path d="M9.02214 18.4737C7.17357 18.4737 5.45039 17.9225 4 16.9714C5.23142 17.0531 7.40461 16.8575 8.75633 15.5357C6.7229 15.4401 5.80586 13.8413 5.68625 13.158C5.85903 13.2263 6.68303 13.3083 7.14819 13.117C4.80908 12.5157 4.45024 10.4113 4.52999 9.76908C4.96857 10.0834 5.71283 10.1927 6.00522 10.1654C3.8256 8.56656 4.60973 6.16152 4.99515 5.64225C6.55933 7.86384 8.90354 9.11157 11.8036 9.18097C11.749 8.93511 11.7201 8.67915 11.7201 8.41625C11.7201 6.52951 13.2077 5 15.0427 5C16.0015 5 16.8654 5.41754 17.4718 6.08542C18.1125 5.9315 19.0767 5.57121 19.5481 5.25963C19.3105 6.13419 18.5708 6.86376 18.1234 7.13416C18.1271 7.14336 18.1197 7.12492 18.1234 7.13416C18.5164 7.07321 19.5799 6.86369 20 6.57147C19.7922 7.06279 19.008 7.87969 18.3644 8.33703C18.4842 13.7509 14.4437 18.4737 9.02214 18.4737Z" fill="#1B2022"/>
</svg>
